<svg preserveAspectRatio="none" width="100%" height="100%" overflow="visible" style="display: block;" viewBox="0 0 17.2133 9.75403" fill="none" xmlns="http://www.w3.org/2000/svg">
<path id="Vector" fill-rule="evenodd" clip-rule="evenodd" d="M11.0931 1.91257C11.0931 0.856301 11.9494 2.19792e-05 13.0057 4.23095e-10C14.062 -2.19784e-05 14.9183 0.85627 14.9183 1.91257C14.9182 2.96883 14.062 3.82511 13.0057 3.82514C11.9494 3.82516 11.0931 2.96886 11.0931 1.91257ZM10.8146 3.91557C10.8141 3.91503 10.8136 3.9145 10.813 3.91396C9.50152 2.60245 7.78963 1.86831 6.24211 1.50722C4.71107 1.14997 3.21074 1.12828 2.25455 1.36741C1.74219 1.49555 1.43072 2.01477 1.55885 2.52713C1.68699 3.03949 2.20622 3.35097 2.71858 3.22283C3.29245 3.07931 4.46971 3.0576 5.80752 3.36976C6.75244 3.59024 7.71111 3.9623 8.54034 4.5161C8.17026 4.90206 7.67305 5.37543 7.12213 5.84983C6.27774 6.57694 5.3934 7.23154 4.7365 7.55999C4.66147 7.59751 4.59353 7.64355 4.53326 7.69637C3.60066 7.91336 2.67586 7.95478 1.36263 7.33876C0.884486 7.11446 0.315044 7.32025 0.0907488 7.7984C-0.133546 8.27655 0.0722413 8.84599 0.550388 9.07028C2.42755 9.95084 3.85048 9.84097 5.15034 9.51472C5.52554 9.42055 5.86273 9.32024 6.18306 9.22495C6.98604 8.98607 7.68299 8.77874 8.60678 8.77874C9.53403 8.77874 10.2851 9.0014 11.1447 9.25624L11.1447 9.25625C11.2279 9.2809 11.3121 9.30586 11.3975 9.33095C11.9043 9.47971 12.4357 9.18949 12.5845 8.68273C12.7332 8.17597 12.443 7.64457 11.9362 7.49581C11.8512 7.47084 11.7643 7.4449 11.6755 7.41839C11.338 7.3176 10.9732 7.20868 10.5785 7.11443C10.7866 6.90121 10.9921 6.67765 11.1651 6.46422C12.1175 6.91822 13.0989 7.10464 13.9257 7.16925C14.6045 7.22229 15.2049 7.19564 15.6439 7.15648C15.8643 7.13682 16.0451 7.11389 16.1744 7.09613C16.2156 7.09047 16.2571 7.08455 16.2877 7.08019L16.3212 7.07542L16.3341 7.07365C16.8257 7.03448 17.2127 6.62346 17.2133 6.12166C17.214 5.59352 16.7864 5.16482 16.2583 5.16413C16.1914 5.16405 16.1312 5.17149 16.1206 5.17281L16.1193 5.17296C16.0973 5.1756 16.0741 5.17879 16.0554 5.18141L16.007 5.18828L16.0069 5.1883C15.98 5.19215 15.9516 5.19621 15.9142 5.20135C15.8044 5.21642 15.6553 5.2353 15.474 5.25148C15.1097 5.28398 14.62 5.3051 14.0747 5.26249C12.97 5.17617 11.7378 4.83767 10.8146 3.91557ZM16.3468 7.07198L16.3552 7.071C16.3554 7.07096 16.3543 7.07107 16.3518 7.07136C16.3505 7.07152 16.3488 7.07172 16.3468 7.07198Z" fill="#3A549D"/>
</svg>
