<svg preserveAspectRatio="none" width="100%" height="100%" overflow="visible" style="display: block;" viewBox="0 0 18.6706 19.1257" fill="none" xmlns="http://www.w3.org/2000/svg">
<path id="Union" fill-rule="evenodd" clip-rule="evenodd" d="M14.3445 5.03685e-10C13.087 2.61657e-05 12.0676 1.01941 12.0676 2.27687C12.0676 3.53436 13.087 4.55376 14.3445 4.55373C15.6019 4.55371 16.6213 3.53433 16.6214 2.27687C16.6214 1.01937 15.602 -2.61647e-05 14.3445 5.03685e-10ZM2.04943 2.27687C1.42069 2.27687 0.910996 2.78656 0.910996 3.4153C0.910996 4.04404 1.42069 4.55373 2.04943 4.55373C3.21825 4.55373 5.75384 4.77224 7.97847 5.26661C8.58943 5.40238 9.15405 5.55411 9.64776 5.71912C9.44176 5.93192 9.25196 6.13372 9.08243 6.32422C8.6466 6.81393 8.21618 7.36481 8.02348 7.96593C7.91863 8.29298 7.87569 8.65773 7.95191 9.04097C8.0278 9.42261 8.20673 9.74657 8.43054 10.0165C8.46161 10.054 8.49391 10.0908 8.52739 10.1271C7.91945 10.7321 7.31504 11.2829 6.8084 11.6963C6.50636 11.9428 6.2588 12.1242 6.07804 12.2376C6.05798 12.2502 6.03976 12.2613 6.02333 12.2711C5.86576 12.2242 5.5713 12.0945 5.09756 11.766C4.48455 11.3409 3.73503 10.702 2.8187 9.86207C2.55536 9.62068 2.19399 9.5169 1.8427 9.58177C1.49141 9.64664 1.19094 9.87264 1.03118 10.1922L0.120437 12.0136C-0.160744 12.576 0.0671983 13.2598 0.62956 13.541C1.19192 13.8222 1.87575 13.5943 2.15693 13.0319L2.40301 12.5397C2.89966 12.9648 3.36618 13.3361 3.80003 13.637C4.50169 14.1236 5.31648 14.5719 6.14779 14.5719C6.44186 14.5719 6.68999 14.4757 6.82531 14.4166C6.98538 14.3466 7.14298 14.2574 7.28838 14.1661C7.58078 13.9826 7.90955 13.7365 8.24788 13.4604C8.92136 12.9108 9.71139 12.1781 10.4663 11.4049C10.9605 11.6671 11.2439 11.8673 11.4098 12.0436C11.551 12.1937 11.6126 12.3267 11.6125 12.5795C11.6125 12.9039 11.505 13.4126 11.1779 14.2505C10.8568 15.0732 10.3649 16.1145 9.68311 17.4781C9.50665 17.831 9.5255 18.2501 9.73293 18.5857C9.94036 18.9214 10.3068 19.1257 10.7013 19.1257H12.5218C13.1506 19.1257 13.6603 18.616 13.6603 17.9872C13.6603 17.3592 13.1517 16.8499 12.5238 16.8488C12.8345 16.1902 13.0941 15.6032 13.2989 15.0784C13.6551 14.166 13.8893 13.337 13.8894 12.5798C13.8895 11.7512 13.6096 11.0588 13.0678 10.4831C12.7756 10.1726 12.4188 9.90951 12.0296 9.67337C12.2224 9.43909 12.4039 9.20808 12.5699 8.98397C12.6383 8.89162 12.705 8.7991 12.7696 8.70677C12.8471 8.7521 12.9263 8.79398 13.0066 8.8324C13.7367 9.18159 14.5828 9.26388 15.3593 9.15295C16.855 8.93928 18.6706 7.8532 18.6706 5.69217C18.6706 5.06343 18.1609 4.55373 17.5321 4.55373C16.9034 4.55373 16.3937 5.06343 16.3937 5.69217C16.3937 6.26337 15.9324 6.7711 15.0373 6.89896C14.6185 6.95879 14.2408 6.89879 13.989 6.77836C13.792 6.68414 13.6976 6.57224 13.6554 6.44154C13.6119 5.86949 13.3416 5.39896 13.0145 5.04255C12.7905 4.79845 12.5242 4.58889 12.2408 4.4076C12.227 4.39843 12.213 4.38958 12.1988 4.38107C12.0557 4.29144 11.9086 4.20886 11.7606 4.13254C10.8453 3.6604 9.6595 3.30776 8.47239 3.04396C6.08636 2.51373 3.38516 2.27687 2.04943 2.27687ZM5.91363 12.3302C5.89843 12.3368 5.89976 12.3349 5.9152 12.3295L5.91363 12.3302Z" fill="#3A549D"/>
</svg>
