<svg preserveAspectRatio="none" width="100%" height="100%" overflow="visible" style="display: block;" viewBox="0 0 18.4338 12.5687" fill="none" xmlns="http://www.w3.org/2000/svg">
<path id="Vector" fill-rule="evenodd" clip-rule="evenodd" d="M14.2444 2.09472C14.2444 0.937852 15.1822 2.40725e-05 16.3391 4.63389e-10C17.496 -2.40716e-05 18.4338 0.937821 18.4338 2.09472C18.4338 3.25158 17.496 4.18941 16.3391 4.18944C15.1822 4.18946 14.2444 3.25161 14.2444 2.09472ZM11.8715 2.89553C12.0938 2.88286 12.4176 2.88358 12.7252 2.99843C13.117 3.14472 13.3761 3.45223 13.5104 3.62532C13.6729 3.83478 13.8277 4.08663 13.9718 4.3392C13.9836 4.36003 13.9956 4.38123 14.0078 4.40277C14.0125 4.41102 14.0172 4.41935 14.0218 4.42777C14.1834 4.71625 14.3648 5.06335 14.554 5.42527C14.6813 5.66878 14.8121 5.919 14.9427 6.16259C15.6803 7.53823 16.5525 8.97409 17.6381 9.87894C18.0824 10.2493 18.1424 10.9097 17.772 11.3541C17.4017 11.7984 16.7412 11.8584 16.2969 11.488C14.8688 10.2977 13.8355 8.53049 13.0966 7.15245C12.9376 6.85587 12.7963 6.58522 12.6668 6.33713C12.6596 6.32325 12.6524 6.30945 12.6452 6.29572C12.1445 6.5371 11.6268 6.80032 11.0969 7.07838C11.3584 7.18917 11.6077 7.302 11.8228 7.41434C12.0659 7.54122 12.3664 7.71737 12.5957 7.95277C12.7139 8.07409 12.8695 8.26758 12.9532 8.5368C13.0474 8.83996 13.0284 9.17312 12.8771 9.47567C12.6806 9.86856 12.3183 10.2408 12.0201 10.5192C11.8718 10.6576 11.7126 10.7968 11.5501 10.9328C11.6642 11.1006 11.7309 11.3032 11.7309 11.5214C11.7309 12.0998 11.262 12.5687 10.6836 12.5687H9.00778C8.54627 12.5687 8.13915 12.2666 8.00538 11.8249C7.87161 11.3832 8.04272 10.906 8.42668 10.65L8.43175 10.6466L8.45059 10.6339C8.46755 10.6225 8.49311 10.6052 8.52615 10.5826C8.59226 10.5375 8.6881 10.4715 8.80478 10.3895C9.03889 10.2249 9.35331 9.99843 9.67826 9.74841C9.95962 9.53192 10.2387 9.3056 10.4768 9.09205C10.177 8.95939 9.81702 8.81712 9.41653 8.65885C9.36197 8.63728 9.30665 8.61542 9.25064 8.59325C9.07448 8.52352 8.89052 8.45035 8.70529 8.3742C8.46035 8.50954 8.21447 8.64576 7.96805 8.78228C7.78719 8.88249 7.60604 8.98284 7.42478 9.08312C5.31772 10.2488 3.17848 11.4132 1.41946 12.0811C0.878692 12.2865 0.273849 12.0146 0.0685022 11.4738C-0.136845 10.9331 0.135064 10.3282 0.675828 10.1229C2.26835 9.51813 4.2711 8.4339 6.41076 7.2502C6.48031 7.21172 6.55 7.17315 6.6198 7.13449C6.37421 6.83767 6.11172 6.30475 6.35941 5.68552C6.49235 5.35317 6.71982 5.0939 6.91992 4.90671C7.12999 4.71018 7.37531 4.53299 7.62553 4.37609C8.12639 4.06204 8.7307 3.77736 9.32348 3.54662C9.91808 3.31516 10.5374 3.12388 11.0793 3.00933C11.3492 2.95227 11.6204 2.90983 11.8715 2.89553Z" fill="#3A549D"/>
</svg>
