<svg preserveAspectRatio="none" width="100%" height="100%" overflow="visible" style="display: block;" viewBox="0 0 22.1311 17.7049" fill="none" xmlns="http://www.w3.org/2000/svg">
<path id="Vector" fill-rule="evenodd" clip-rule="evenodd" d="M13.0328 2.45902C13.0328 1.10094 14.1337 0 15.4918 0C16.8499 0 17.9508 1.10094 17.9508 2.45902C17.9508 3.81709 16.8499 4.91803 15.4918 4.91803C14.1337 4.91803 13.0328 3.81709 13.0328 2.45902ZM10.6943 3.00829C11.2709 2.82571 11.8947 3.08963 12.1652 3.63062C12.8131 4.92657 13.9453 6.27885 15.1699 7.37757C16.3492 8.43563 17.4609 9.12192 18.1446 9.34868C20.3634 9.44991 22.1311 11.2808 22.1311 13.5246C22.1311 15.8333 20.2596 17.7049 17.9508 17.7049C15.6421 17.7049 13.7705 15.8333 13.7705 13.5246C13.7705 12.3168 14.2827 11.2286 15.1018 10.4655C14.5682 10.0911 14.035 9.66301 13.5277 9.20789C12.802 8.5568 12.0802 7.80618 11.4386 6.99903C10.873 7.20588 10.3777 7.42343 9.86203 7.69821C10.2194 7.91956 10.5474 8.14145 10.8372 8.37078C11.4745 8.87515 12.0094 9.47767 12.2912 10.2947C12.5674 11.0956 12.5479 11.9525 12.3754 12.8701C12.2038 13.7825 11.86 14.8572 11.3864 16.1448C11.152 16.7821 10.4453 17.1087 9.80804 16.8743C9.17075 16.6399 8.84414 15.9333 9.07855 15.296C9.54253 14.0345 9.82666 13.1179 9.95872 12.4157C10.0898 11.7186 10.0497 11.3377 9.9665 11.0963C9.88881 10.871 9.72547 10.6269 9.31126 10.2991C8.87567 9.95438 8.25927 9.5906 7.3628 9.09292C6.87241 8.82068 6.45224 8.53909 6.12126 8.23864C5.79747 7.94472 5.48792 7.56864 5.33911 7.09424C5.17498 6.57101 5.24608 6.0534 5.48317 5.61411C5.6973 5.21735 6.01948 4.93104 6.30623 4.72741C6.87318 4.32481 7.63935 4.01395 8.3617 3.75884C8.90908 3.56551 9.51504 3.37671 10.0962 3.19561C10.2998 3.13218 10.5004 3.06969 10.6943 3.00829ZM4.18033 11.8033C3.22967 11.8033 2.45902 12.5739 2.45902 13.5246C2.45902 14.4752 3.22967 15.2459 4.18033 15.2459C5.13098 15.2459 5.90164 14.4752 5.90164 13.5246C5.90164 12.5739 5.13098 11.8033 4.18033 11.8033ZM0 13.5246C0 11.2159 1.8716 9.34426 4.18033 9.34426C6.48906 9.34426 8.36066 11.2159 8.36066 13.5246C8.36066 15.8333 6.48906 17.7049 4.18033 17.7049C1.8716 17.7049 0 15.8333 0 13.5246ZM17.9508 11.8033C17.0002 11.8033 16.2295 12.5739 16.2295 13.5246C16.2295 14.4752 17.0002 15.2459 17.9508 15.2459C18.9015 15.2459 19.6721 14.4752 19.6721 13.5246C19.6721 12.5739 18.9015 11.8033 17.9508 11.8033Z" fill="#3A549D"/>
</svg>
