<svg preserveAspectRatio="none" width="100%" height="100%" overflow="visible" style="display: block;" viewBox="0 0 13.1905 13.1905" fill="none" xmlns="http://www.w3.org/2000/svg">
<g id="Group">
<path id="Vector (Stroke)" d="M0 3.95714V0.659524C0 0.295279 0.295279 0 0.659524 0H3.95714C4.32139 0 4.61667 0.295279 4.61667 0.659524C4.61667 1.02377 4.32139 1.31905 3.95714 1.31905H1.31905V3.95714C1.31905 4.32139 1.02377 4.61667 0.659524 4.61667C0.295279 4.61667 0 4.32139 0 3.95714ZM11.8714 3.95714V1.31905H9.23333C8.86909 1.31905 8.57381 1.02377 8.57381 0.659524C8.57381 0.295279 8.86909 0 9.23333 0H12.531C12.8952 0 13.1905 0.295279 13.1905 0.659524V3.95714C13.1905 4.32139 12.8952 4.61667 12.531 4.61667C12.1667 4.61667 11.8714 4.32139 11.8714 3.95714Z" fill="var(--fill-0, white)"/>
<path id="Vector (Stroke)_2" d="M5.9357 12.5309V7.96065C5.93555 7.26137 5.65782 6.59064 5.16347 6.09608L0.193207 1.12582C-0.0643527 0.868255 -0.0643527 0.450768 0.193207 0.193207C0.450768 -0.0643527 0.868255 -0.0643527 1.12582 0.193207L6.09608 5.16347L6.23133 5.30581C6.88809 6.03136 7.25447 6.97671 7.25475 7.96V12.5309C7.25475 12.8952 6.95947 13.1905 6.59523 13.1905C6.23098 13.1905 5.9357 12.8952 5.9357 12.5309ZM7.25475 5.28262V5.27618C7.25475 4.91193 7.55003 4.61665 7.91427 4.61665C8.27852 4.61665 8.5738 4.91193 8.5738 5.27618V5.28262C8.5738 5.64686 8.27852 5.94214 7.91427 5.94214C7.55003 5.94214 7.25475 5.64686 7.25475 5.28262ZM8.5738 3.97001V3.96357C8.57388 3.5994 8.86913 3.30405 9.23332 3.30405C9.59752 3.30405 9.89276 3.5994 9.89285 3.96357V3.97001C9.89285 4.33426 9.59757 4.62954 9.23332 4.62954C8.86908 4.62954 8.5738 4.33426 8.5738 3.97001ZM9.89285 2.64452V2.63808C9.89285 2.27384 10.1881 1.97856 10.5524 1.97856C10.9166 1.97856 11.2119 2.27384 11.2119 2.63808V2.64452C11.2119 3.00877 10.9166 3.30405 10.5524 3.30405C10.1881 3.30405 9.89285 3.00877 9.89285 2.64452Z" fill="var(--fill-0, white)"/>
</g>
</svg>
