<svg preserveAspectRatio="none" width="100%" height="100%" overflow="visible" style="display: block;" viewBox="0 0 20 20" fill="none" xmlns="http://www.w3.org/2000/svg">
<g id="routing">
<path id="Vector" d="M4.55833 8.95833C3.96667 8.95833 3.36667 8.74167 2.90833 8.3C1.375 6.84167 0.758333 5.25 1.11667 3.69167C1.54167 1.85833 3.15 1.04167 4.55833 1.04167C5.96667 1.04167 7.58333 1.86667 8 3.69167C8.35833 5.25 7.73333 6.84167 6.20833 8.3C5.75 8.74167 5.15833 8.95833 4.55833 8.95833ZM2.33333 3.975C2.01667 5.36667 2.94167 6.6 3.775 7.39167C4.21667 7.81667 4.90833 7.80833 5.35 7.39167C6.18333 6.6 7.10833 5.36667 6.78333 3.96667C6.5 2.73333 5.40833 2.29167 4.56667 2.29167C3.71667 2.29167 2.625 2.73333 2.33333 3.975Z" fill="var(--fill-0, white)"/>
<path id="Vector_2" d="M4.59167 5.16667C4.13333 5.16667 3.75833 4.79167 3.75833 4.33333C3.75833 3.875 4.125 3.5 4.59167 3.5H4.6C5.05833 3.5 5.43333 3.875 5.43333 4.33333C5.43333 4.79167 5.05833 5.16667 4.59167 5.16667Z" fill="var(--fill-0, white)"/>
<path id="Vector_3" d="M15.4083 18.9583C14.8167 18.9583 14.2167 18.7417 13.75 18.3C12.2083 16.8417 11.5833 15.25 11.95 13.6833C12.375 11.8583 13.9917 11.0333 15.4083 11.0333C16.825 11.0333 18.4417 11.8583 18.8667 13.6833C19.225 15.2417 18.6 16.8417 17.0583 18.2917C16.6 18.7417 16.0083 18.9583 15.4083 18.9583ZM15.4083 12.2917C14.5583 12.2917 13.4583 12.7333 13.1667 13.975C12.8417 15.3667 13.775 16.6083 14.6083 17.4C15.05 17.825 15.75 17.825 16.2 17.4C17.0333 16.6083 17.9667 15.375 17.6417 13.9833C17.3667 12.7333 16.2667 12.2917 15.4083 12.2917Z" fill="var(--fill-0, white)"/>
<path id="Vector_4" d="M15.4417 15.1667C14.9833 15.1667 14.6083 14.7917 14.6083 14.3333C14.6083 13.875 14.975 13.5 15.4417 13.5H15.45C15.9083 13.5 16.2833 13.875 16.2833 14.3333C16.2833 14.7917 15.9 15.1667 15.4417 15.1667Z" fill="var(--fill-0, white)"/>
<path id="Vector_5" d="M10 16.4583H7.76667C6.8 16.4583 5.95833 15.875 5.625 14.975C5.28333 14.075 5.53333 13.0833 6.25833 12.4417L12.9167 6.61667C13.3167 6.26667 13.325 5.79167 13.2083 5.46667C13.0833 5.14167 12.7667 4.79167 12.2333 4.79167H10C9.65833 4.79167 9.375 4.50833 9.375 4.16667C9.375 3.825 9.65833 3.54167 10 3.54167H12.2333C13.2 3.54167 14.0417 4.125 14.375 5.025C14.7167 5.925 14.4667 6.91667 13.7417 7.55833L7.08333 13.3833C6.68333 13.7333 6.675 14.2083 6.79167 14.5333C6.91667 14.8583 7.23333 15.2083 7.76667 15.2083H10C10.3417 15.2083 10.625 15.4917 10.625 15.8333C10.625 16.175 10.3417 16.4583 10 16.4583Z" fill="var(--fill-0, white)"/>
<path id="Vector_6" d="M10 16.4583H7.76667C6.8 16.4583 5.95833 15.875 5.625 14.975C5.28333 14.075 5.53333 13.0833 6.25833 12.4417L12.9167 6.61667C13.3167 6.26667 13.325 5.79167 13.2083 5.46667C13.0833 5.14167 12.7667 4.79167 12.2333 4.79167H10C9.65833 4.79167 9.375 4.50833 9.375 4.16667C9.375 3.825 9.65833 3.54167 10 3.54167H12.2333C13.2 3.54167 14.0417 4.125 14.375 5.025C14.7167 5.925 14.4667 6.91667 13.7417 7.55833L7.08333 13.3833C6.68333 13.7333 6.675 14.2083 6.79167 14.5333C6.91667 14.8583 7.23333 15.2083 7.76667 15.2083H10C10.3417 15.2083 10.625 15.4917 10.625 15.8333C10.625 16.175 10.3417 16.4583 10 16.4583Z" fill="var(--fill-0, white)"/>
<g id="Vector_7" opacity="0">
</g>
</g>
</svg>
