<svg width="16" height="16" viewBox="0 0 16 16" fill="none" xmlns="http://www.w3.org/2000/svg">
<path d="M4.33301 13.2074V13.2002C4.33315 12.8321 4.63157 12.5335 4.99967 12.5335C5.36778 12.5335 5.6662 12.8321 5.66634 13.2002V13.2074C5.66621 13.5754 5.36779 13.874 4.99967 13.874C4.63156 13.874 4.33313 13.5754 4.33301 13.2074ZM2.13314 11.0068V11.0003C2.13321 10.6322 2.43166 10.3337 2.7998 10.3337C3.16789 10.3337 3.4664 10.6322 3.46647 11.0003V11.0068C3.46647 11.375 3.16793 11.6734 2.7998 11.6735C2.43161 11.6735 2.13314 11.375 2.13314 11.0068ZM6.66634 9.00033C6.66631 8.91197 6.63117 8.82713 6.56869 8.76465C6.52175 8.71774 6.46224 8.68627 6.39811 8.6735L6.33301 8.66699H5.99967C5.63148 8.66699 5.33301 8.36852 5.33301 8.00033C5.33308 7.6322 5.63153 7.33366 5.99967 7.33366H6.33301L6.39811 7.32715C6.46226 7.31436 6.52176 7.28293 6.56869 7.236C6.63116 7.1735 6.66634 7.0887 6.66634 7.00033C6.66631 6.91197 6.63117 6.82713 6.56869 6.76465C6.52175 6.71774 6.46224 6.68627 6.39811 6.6735L6.33301 6.66699H5.33301C4.96482 6.66699 4.66634 6.36852 4.66634 6.00033C4.66641 5.6322 4.96486 5.33366 5.33301 5.33366H6.33301C6.775 5.33366 7.19884 5.50942 7.51139 5.82194C7.82392 6.13447 7.99964 6.55835 7.99967 7.00033C7.99967 7.36351 7.8794 7.71331 7.66374 8.00033C7.87945 8.28734 7.99965 8.63711 7.99967 9.00033C7.99967 9.44232 7.82391 9.86616 7.51139 10.1787C7.19883 10.4913 6.77504 10.667 6.33301 10.667H5.33301C4.96482 10.667 4.66634 10.3685 4.66634 10.0003C4.66641 9.6322 4.96486 9.33366 5.33301 9.33366H6.33301L6.39811 9.32715C6.46226 9.31436 6.52176 9.28293 6.56869 9.236C6.63116 9.1735 6.66634 9.0887 6.66634 9.00033ZM10.6663 7.00033C10.6663 6.91197 10.6312 6.82713 10.5687 6.76465C10.5218 6.71774 10.4622 6.68627 10.3981 6.6735L10.333 6.66699C10.2446 6.66699 10.1598 6.70218 10.0973 6.76465C10.0349 6.82713 9.99971 6.91197 9.99967 7.00033V9.00033C9.99967 9.0887 10.0349 9.1735 10.0973 9.236C10.1598 9.29851 10.2446 9.33366 10.333 9.33366L10.3981 9.32715C10.4623 9.31436 10.5218 9.28293 10.5687 9.236C10.6312 9.1735 10.6663 9.0887 10.6663 9.00033V7.00033ZM1.33301 8.00684V8.00033C1.33308 7.6322 1.63153 7.33366 1.99967 7.33366C2.36782 7.33366 2.66627 7.6322 2.66634 8.00033V8.00684C2.66634 8.37503 2.36786 8.6735 1.99967 8.6735C1.63148 8.6735 1.33301 8.37503 1.33301 8.00684ZM2.13314 5.00684V5.00033C2.13321 4.6322 2.43166 4.33366 2.7998 4.33366C3.16789 4.33373 3.4664 4.63224 3.46647 5.00033V5.00684C3.46647 5.37498 3.16793 5.67343 2.7998 5.6735C2.43161 5.6735 2.13314 5.37503 2.13314 5.00684ZM4.33301 2.80697V2.80046C4.33301 2.43227 4.63148 2.13379 4.99967 2.13379C5.36786 2.13379 5.66634 2.43227 5.66634 2.80046V2.80697C5.66634 3.17516 5.36786 3.47363 4.99967 3.47363C4.63148 3.47363 4.33301 3.17516 4.33301 2.80697ZM11.9997 9.00033C11.9997 9.44232 11.8239 9.86616 11.5114 10.1787C11.2379 10.4522 10.8793 10.6213 10.4977 10.6592L10.333 10.667C9.89098 10.667 9.46718 10.4913 9.15462 10.1787C8.8421 9.86616 8.66634 9.44232 8.66634 9.00033V7.00033C8.66638 6.55835 8.84209 6.13447 9.15462 5.82194C9.46718 5.50942 9.89101 5.33366 10.333 5.33366L10.4977 5.34212C10.8792 5.38 11.2379 5.54849 11.5114 5.82194C11.8239 6.13447 11.9996 6.55834 11.9997 7.00033V9.00033Z" fill="#5170D5"/>
<path d="M8 14C9.5913 14 11.1174 13.3679 12.2426 12.2426C13.3679 11.1174 14 9.5913 14 8C14 6.4087 13.3679 4.88258 12.2426 3.75736C11.1174 2.63214 9.5913 2 8 2" stroke="#5170D5" stroke-width="2" stroke-linecap="round" stroke-linejoin="round"/>
</svg>
