<svg width="56" height="56" viewBox="0 0 56 56" fill="none" xmlns="http://www.w3.org/2000/svg">
<rect width="56" height="56" fill="black"/>
<g clip-path="url(#clip0_630_1746)">
<path d="M16.4846 28.5747C16.4051 28.4137 16.1934 28.2822 16.0143 28.2822H15.6502C15.4714 28.2822 15.2622 28.4152 15.1848 28.5773L12.2984 34.6433C12.2183 34.8038 12.3054 34.9187 12.4845 34.9187H13.1516C13.4149 34.9187 13.5356 34.7983 13.6068 34.6506C13.6784 34.503 13.8374 34.1822 13.8678 34.1167C13.909 34.0282 14.0358 33.9739 14.2146 33.9741L17.3203 33.9758C17.4993 33.9761 17.6143 34.0103 17.6673 34.1167C17.7018 34.186 17.8605 34.4746 17.9386 34.6321C18.0173 34.7896 18.1494 34.9187 18.4059 34.9187H19.3738C19.5528 34.9187 19.6311 34.7821 19.5667 34.6551C19.502 34.5279 16.4846 28.5747 16.4846 28.5747ZM14.661 33.0372C14.4822 33.0372 14.3981 32.9033 14.4733 32.7404L15.6107 30.2893C15.6864 30.126 15.8087 30.1271 15.8826 30.2903L16.9899 32.7414C17.0638 32.9049 16.978 33.0389 16.7994 33.0389L14.661 33.0372ZM38.788 28.6216C38.788 28.6802 38.788 34.5215 38.788 34.6394C38.788 34.8051 38.9342 34.9187 39.1134 34.9187H39.9021C40.0809 34.9187 40.2273 34.8038 40.2273 34.6237V28.6094C40.2273 28.4292 40.1118 28.2824 39.933 28.2824H39.1134C38.9342 28.2822 38.788 28.393 38.788 28.6216ZM25.5703 32.3909C25.4675 32.2436 25.5239 32.0809 25.6951 32.0295C25.6951 32.0295 26.3766 31.8242 26.7028 31.53C27.0292 31.2349 27.1933 30.8088 27.1933 30.2536C27.1933 29.8905 27.1302 29.5852 27.0045 29.3369C26.8788 29.0892 26.6987 28.8865 26.4643 28.7313C26.2299 28.5753 25.9493 28.4609 25.6226 28.3893C25.2953 28.318 24.8539 28.2971 24.8539 28.2971C24.6749 28.2889 24.3826 28.2822 24.2039 28.2822H20.9284C20.7498 28.2822 20.6033 28.429 20.6033 28.6092V34.6237C20.6033 34.8039 20.7496 34.9187 20.9284 34.9187H21.7035C21.8825 34.9187 22.0288 34.8038 22.0288 34.6237C22.0288 34.6237 22.0293 32.2316 22.0308 32.2316C22.0321 32.2316 22.0329 32.2302 22.0329 32.2286C22.0329 32.2265 23.5023 32.2249 23.5023 32.2249C23.681 32.2249 23.9117 32.3451 24.0152 32.4924L25.5405 34.653C25.6823 34.8444 25.8171 34.9187 25.9959 34.9187H27.0091C27.1881 34.9187 27.2162 34.749 27.1542 34.6608C27.093 34.5731 25.5703 32.3909 25.5703 32.3909ZM24.9535 31.1694C24.7528 31.2158 24.5268 31.2252 24.5268 31.2252C24.3482 31.233 24.0558 31.2394 23.8769 31.2394H22.3585C22.1795 31.2394 22.0332 31.0921 22.0332 30.9122V29.6936C22.0332 29.5136 22.1795 29.3664 22.3585 29.3664H23.8769C24.0558 29.3664 24.3482 29.3729 24.5268 29.3805C24.5268 29.3805 24.7528 29.3895 24.9535 29.4361C25.1542 29.4827 25.3134 29.5476 25.43 29.6316C25.547 29.7161 25.6305 29.8152 25.681 29.9291C25.7308 30.043 25.7562 30.167 25.7562 30.3025C25.7562 30.4373 25.7308 30.562 25.681 30.6757C25.6305 30.7896 25.547 30.8887 25.43 30.9732C25.3134 31.0577 25.1542 31.1235 24.9535 31.1694ZM48.4721 28.2822C48.2933 28.2822 48.1487 28.4008 48.1487 28.5742C48.1487 28.6573 48.1507 32.4213 48.1507 32.4213C48.1507 32.6016 48.0495 32.6426 47.9253 32.513L44.0959 28.5174C43.9716 28.3878 43.7896 28.2822 43.5446 28.2822H42.8244C42.5979 28.2822 42.4988 28.4038 42.4988 28.5269C42.4988 28.6495 42.4988 34.5556 42.4988 34.6789C42.4988 34.8016 42.615 34.9187 42.7942 34.9187H43.5155C43.694 34.9187 43.8192 34.8208 43.8192 34.6551C43.8192 34.572 43.8228 30.6023 43.8228 30.6023C43.8228 30.4224 43.9239 30.3813 44.0478 30.5112L48.0407 34.6869C48.1675 34.8146 48.3216 34.9187 48.5957 34.9187H49.1375C49.3167 34.9187 49.4629 34.7715 49.4629 34.5915V28.6094C49.4629 28.4292 49.3167 28.2824 49.1375 28.2824L48.4721 28.2822ZM32.8593 32.0335C32.7725 32.1906 32.6295 32.1901 32.5439 32.0327L30.672 28.5747C30.5925 28.4142 30.4293 28.2822 30.2018 28.2822H29.1866C29.0077 28.2822 28.8611 28.429 28.8611 28.6092V34.6161C28.8611 34.7958 28.9786 34.9187 29.1866 34.9187H29.8177C29.9968 34.9187 30.1258 34.8051 30.1258 34.6316C30.1258 34.5484 30.1285 30.2627 30.1353 30.2627C30.1422 30.2627 32.4716 34.6304 32.4716 34.6304C32.556 34.7889 32.763 34.7896 32.849 34.6318C32.849 34.6318 35.1975 30.2753 35.2045 30.2753C35.2118 30.2753 35.2091 34.5065 35.2091 34.6316C35.2091 34.8053 35.3471 34.9187 35.5262 34.9187H36.253C36.4322 34.9187 36.5781 34.829 36.5781 34.5915V28.6094C36.5781 28.4292 36.4322 28.2824 36.253 28.2824H35.2798C35.0315 28.2824 34.8821 28.4098 34.7932 28.5663L32.8593 32.0335Z" fill="white"/>
<path d="M4 31.595C4 34.8357 7.29513 35 7.95588 35C10.1425 35 11.0666 34.4057 11.1049 34.3799C11.2417 34.3021 11.4082 34.1451 11.4082 33.851V31.6142C11.4082 31.4081 11.2414 31.2402 11.0363 31.2402H8.28925C8.08388 31.2402 7.94907 31.4081 7.94907 31.6142V31.8458C7.94907 32.0522 8.08388 32.2206 8.28925 32.2206H9.87821C10.0316 32.2206 10.1563 32.3458 10.1563 32.5001C10.1563 32.5001 10.1548 33.4806 10.1548 33.5427C9.84085 33.6717 8.4111 34.0918 7.26226 33.8163C5.59577 33.4153 5.46594 32.0323 5.46594 31.618C5.46594 31.2703 5.56954 29.5284 7.61621 29.3522C9.2729 29.2096 10.3638 29.8825 10.3746 29.889C10.5693 29.9905 10.7709 29.9182 10.8795 29.7108C10.88 29.7091 11.0862 29.2895 11.0862 29.2895C11.172 29.1168 11.1431 28.9377 10.9336 28.7948C10.9196 28.7868 9.75834 28.1533 7.95621 28.1533C4.1109 28.1535 4 31.2427 4 31.595Z" fill="white"/>
<path d="M50.4963 34.0929H50.2132V33.9902H50.9022V34.0929H50.6178V34.9261H50.4963V34.0929Z" fill="white"/>
<path d="M51.8589 34.5153C51.852 34.3847 51.8437 34.2264 51.8437 34.1111H51.8408C51.8078 34.2194 51.7704 34.3374 51.7236 34.4667L51.5593 34.9206H51.4681L51.3162 34.475C51.2721 34.3418 51.2364 34.2222 51.21 34.1111H51.2071C51.2043 34.2277 51.1973 34.3834 51.1892 34.525L51.1645 34.9261H51.0499L51.1148 33.9902H51.2681L51.427 34.443C51.4655 34.5582 51.4959 34.6611 51.5208 34.7581H51.5236C51.5483 34.6638 51.5815 34.5611 51.623 34.443L51.7887 33.9902H51.9419L52 34.9261H51.8812L51.8589 34.5153Z" fill="white"/>
<path d="M48.108 26.624L43.7929 26.6239C43.6347 26.6239 43.4989 26.5447 43.4198 26.4069C43.3408 26.2691 43.3408 26.1115 43.42 25.9737L45.5777 22.2164C45.6568 22.0788 45.7924 22 45.9506 22C46.1087 22 46.2445 22.0788 46.3235 22.2164L48.4809 25.9739C48.5603 26.1117 48.5603 26.2695 48.4811 26.4073C48.402 26.5449 48.2662 26.624 48.108 26.624Z" fill="#007CC2"/>
</g>
<defs>
<clipPath id="clip0_630_1746">
<rect width="48" height="13" fill="white" transform="translate(4 22)"/>
</clipPath>
</defs>
</svg>
