<svg width="150" height="125" viewBox="0 0 150 125" fill="none" xmlns="http://www.w3.org/2000/svg">
<path d="M30.2369 42.1193L31.3523 40.1219L37.8057 42.2448L32.6637 37.7698L33.7411 35.8379L43.062 40.8477L42.2948 42.2175L35.9502 38.8503L41.5493 43.5545L40.9018 44.717L33.9206 42.4031L40.14 46.0758L39.3674 47.4565L30.2314 42.1193H30.2369Z" fill="white"/>
<path d="M43.7962 38.7741C43.0399 38.7468 42.2346 38.3593 41.3748 37.6062L38.4093 35.0031C37.5496 34.25 37.0653 33.5023 36.9456 32.7656C36.8259 32.0234 37.1415 31.2321 37.8761 30.3862C38.6107 29.5457 39.3507 29.1364 40.107 29.1528C40.8579 29.1692 41.6632 29.5512 42.5121 30.2989L45.4885 32.9075C46.3373 33.6551 46.827 34.4028 46.9522 35.1559C47.0773 35.909 46.7726 36.7058 46.038 37.5462C45.298 38.3921 44.5526 38.8014 43.7962 38.7795V38.7741ZM45.0858 35.7234C44.9824 35.4669 44.7648 35.1941 44.4383 34.9048L40.6784 31.6032C40.3519 31.3139 40.058 31.1393 39.7914 31.0793C39.5302 31.0192 39.2745 31.1229 39.0351 31.4012C38.7957 31.6741 38.7249 31.9415 38.8174 32.1925C38.9154 32.4436 39.1276 32.7164 39.4541 33.0057L43.214 36.3074C43.5459 36.6021 43.8452 36.7822 44.1118 36.8476C44.373 36.9186 44.6287 36.8094 44.879 36.5257C45.1184 36.2473 45.1892 35.9799 45.0858 35.7234Z" fill="white"/>
<path d="M42.5127 25.7909L43.6935 24.8632L48.928 27.7501L45.5435 23.4115L46.9528 22.3037L53.4714 30.648L52.3288 31.543L46.8766 28.3777L50.4787 32.9946L49.0314 34.1297L42.5127 25.7855V25.7909Z" fill="white"/>
<path d="M49.793 20.5075L53.8413 18.3027L54.5541 19.6125L52.3885 20.7913L53.727 23.2634L55.4029 22.3521L56.1212 23.6727L54.4453 24.5841L56.0287 27.5038L58.2161 26.3086L58.9126 27.5966L54.8425 29.8177L49.793 20.502V20.5075Z" fill="white"/>
<path d="M59.8481 22.7235L55.7617 17.3917L57.6662 16.7096L59.9842 19.8421L59.7175 15.9783L61.573 15.3125L61.8015 22.025L63.2108 25.9816L61.2574 26.6801L59.8481 22.7235Z" fill="white"/>
<path d="M68.5703 13.8169L71.2474 13.6041C72.2704 13.5223 73.0811 13.6587 73.6742 14.008C74.2673 14.3572 74.6101 15.0503 74.6918 16.0872C74.7407 16.7148 74.6482 17.2169 74.4143 17.5989C74.1803 17.9809 73.8157 18.2374 73.3314 18.3629C73.9518 18.4011 74.436 18.6249 74.7788 19.0342C75.1216 19.4435 75.3229 20.0274 75.3828 20.786C75.546 22.8543 74.6047 23.973 72.5588 24.1367L69.4083 24.3878L68.5703 13.8224V13.8169ZM72.0364 22.6524C72.5588 22.6087 72.9125 22.4504 73.1029 22.1721C73.2934 21.8938 73.3695 21.4736 73.326 20.906C73.277 20.2948 73.1301 19.8691 72.8907 19.6235C72.6458 19.378 72.2649 19.2743 71.7317 19.3179L71.1604 19.3616L71.427 22.7015L72.0364 22.6524ZM71.5902 17.8717C72.1126 17.8281 72.4554 17.6862 72.6295 17.4352C72.8036 17.1841 72.8689 16.8021 72.8254 16.2891C72.7873 15.8198 72.6404 15.4923 72.3792 15.3068C72.118 15.1212 71.7371 15.0503 71.2257 15.0885L70.823 15.1212L71.0461 17.9154L71.5902 17.8717Z" fill="white"/>
<path d="M79.4968 13.5771L81.8692 13.8282L82.7779 24.5846L80.8027 24.3717L80.6612 22.0142L79.0016 21.8395L78.3541 24.1152L76.3408 23.9024L79.4968 13.5771ZM80.5959 20.6717L80.4109 16.3604L79.339 20.5352L80.5959 20.6717Z" fill="white"/>
<path d="M84.4101 24.224C84.1271 23.509 84.1489 22.6031 84.4645 21.5062L85.5201 17.8607C85.8466 16.7365 86.3145 15.9561 86.9294 15.5141C87.5442 15.072 88.3931 15.0065 89.4759 15.3231C90.5098 15.6232 91.1736 16.0925 91.4565 16.7256C91.7395 17.3586 91.7449 18.15 91.4674 19.0941L91.2171 19.9509L89.2147 19.3669L89.4868 18.4228C89.5739 18.1227 89.6283 17.8716 89.6555 17.6806C89.6772 17.4896 89.65 17.315 89.563 17.1567C89.4759 16.9985 89.3072 16.8839 89.0569 16.8129C88.6815 16.7038 88.404 16.7529 88.2244 16.9657C88.0448 17.1786 87.8871 17.5169 87.751 17.9862L86.407 22.6086C86.271 23.0888 86.2275 23.4599 86.2873 23.7328C86.3417 24.0057 86.5431 24.1912 86.8859 24.2894C87.2341 24.3931 87.4953 24.3386 87.664 24.1312C87.8326 23.9238 87.985 23.58 88.121 23.1161L88.4094 22.1229L90.4118 22.7068L90.167 23.5473C89.884 24.5187 89.4541 25.2063 88.8719 25.6156C88.2897 26.0249 87.479 26.074 86.4342 25.7684C85.3569 25.4519 84.6767 24.9389 84.3937 24.224H84.4101Z" fill="white"/>
<path d="M95.2819 17.4904L97.1918 18.4564L95.1894 22.4566L98.9058 19.3186L100.772 20.2573L96.8653 23.619L96.1634 29.7967L94.2154 28.8144L94.8793 23.8482L94.3079 24.2029L92.447 27.9194L90.5371 26.9534L95.2819 17.4795V17.4904Z" fill="white"/>
<path d="M56.6329 95.4152L58.6843 96.4248L56.9213 103.006L61.0948 97.6091L63.0754 98.5805L58.6027 108.185L57.1988 107.492L60.2024 100.954L55.8276 106.821L54.6305 106.232L56.5513 99.1153L53.2376 105.544L51.8174 104.845L56.6329 95.4043V95.4152Z" fill="white"/>
<path d="M62.3785 108.633C62.0575 107.945 62.0303 107.045 62.3078 105.937L63.26 102.1C63.5375 100.993 63.9728 100.218 64.5768 99.7702C65.1808 99.3282 66.0242 99.2409 67.1124 99.5137C68.1952 99.7811 68.8972 100.256 69.2236 100.938C69.5501 101.62 69.5828 102.51 69.3053 103.607L68.3476 107.454C68.0755 108.557 67.6348 109.331 67.0199 109.79C66.4105 110.243 65.5617 110.336 64.4843 110.068C63.396 109.795 62.6887 109.315 62.3676 108.627L62.3785 108.633ZM65.6705 108.387C65.8555 108.175 65.997 107.858 66.1004 107.438L67.3083 102.575C67.4117 102.15 67.4335 101.806 67.3682 101.544C67.3029 101.282 67.0961 101.107 66.737 101.014C66.3833 100.927 66.1167 100.982 65.9371 101.184C65.7575 101.386 65.6161 101.697 65.5073 102.122L64.2993 106.985C64.1905 107.416 64.1687 107.765 64.2285 108.033C64.2884 108.3 64.5006 108.48 64.8597 108.567C65.2134 108.655 65.48 108.595 65.665 108.382L65.6705 108.387Z" fill="white"/>
<path d="M71.0526 100.513L72.549 100.595L74.6058 106.221L74.8996 100.72L76.6844 100.813L76.1239 111.4L74.6765 111.324L72.6415 105.342L72.3313 111.198L70.4922 111.1L71.0526 100.513Z" fill="white"/>
<path d="M77.8809 100.708L82.457 100.168L82.6311 101.652L80.1825 101.942L80.509 104.736L82.4026 104.512L82.5767 106.007L80.6831 106.231L81.0695 109.533L83.5452 109.243L83.7139 110.701L79.1106 111.241L77.8809 100.714V100.708Z" fill="white"/>
<path d="M86.2935 105.79L82.5771 100.191L84.5251 99.6394L86.6255 102.919V99.0446L88.519 98.5098L88.2905 105.222L89.4277 109.266L87.4308 109.828L86.2935 105.784V105.79Z" fill="white"/>
<path d="M91.9473 97.0142L94.2489 95.6226C95.1304 95.0932 95.914 94.8477 96.5996 94.8968C97.2906 94.9459 97.9 95.4152 98.4333 96.2993C98.7543 96.8396 98.8958 97.3307 98.8577 97.7782C98.8142 98.2257 98.6074 98.6132 98.2265 98.9461C98.7979 98.7005 99.3311 98.6842 99.8208 98.897C100.311 99.1098 100.751 99.541 101.138 100.196C102.204 101.975 101.861 103.394 100.104 104.458L97.3994 106.09L91.9473 97.0088V97.0142ZM96.4527 99.2899C96.8988 99.0225 97.1437 98.7333 97.1872 98.4331C97.2308 98.133 97.1165 97.7619 96.8553 97.3198C96.6105 96.916 96.3329 96.6922 96.0228 96.6377C95.7072 96.5885 95.3317 96.6977 94.891 96.9596L94.5428 97.167L95.9847 99.5682L96.4527 99.2845V99.2899ZM98.9774 103.372C99.4236 103.099 99.6739 102.799 99.7174 102.466C99.7664 102.133 99.6412 101.724 99.3529 101.238C99.0373 100.714 98.7162 100.398 98.3898 100.283C98.0633 100.169 97.6715 100.25 97.2199 100.523L96.7302 100.818L98.455 103.689L98.9829 103.372H98.9774Z" fill="white"/>
<path d="M99.0205 92.2552L100.8 90.6562L109.37 97.1887L107.895 98.5148L106.051 97.0413L104.805 98.1601L106.056 100.168L104.549 101.522L99.0205 92.2552ZM105.006 96.19L101.692 93.4395L104.065 97.0359L105.006 96.19Z" fill="white"/>
<path d="M110.714 94.4931C109.946 94.4931 109.114 94.1439 108.216 93.4453L105.223 91.1205C104.304 90.4056 103.749 89.6798 103.564 88.943C103.379 88.2063 103.629 87.3932 104.326 86.4981C104.984 85.6413 105.664 85.1993 106.355 85.1666C107.046 85.1338 107.781 85.4231 108.559 86.0234L109.261 86.5691L107.982 88.2227L107.209 87.6224C106.959 87.4314 106.752 87.2895 106.584 87.1912C106.415 87.0985 106.241 87.0603 106.061 87.0875C105.887 87.1094 105.719 87.224 105.555 87.4314C105.316 87.7424 105.261 88.0207 105.392 88.2663C105.523 88.5119 105.778 88.7848 106.165 89.0795L109.963 92.0264C110.354 92.332 110.686 92.5067 110.958 92.5503C111.231 92.594 111.475 92.4794 111.693 92.1956C111.916 91.9064 111.965 91.6444 111.829 91.4097C111.698 91.1751 111.437 90.9077 111.051 90.6075L110.235 89.9745L111.513 88.3209L112.205 88.8557C113.004 89.4779 113.483 90.1327 113.646 90.8203C113.81 91.5134 113.559 92.2884 112.896 93.1506C112.21 94.0402 111.481 94.4877 110.714 94.4877V94.4931Z" fill="white"/>
<path d="M106.676 83.4909L107.656 81.5808L111.628 83.6273L108.532 79.8727L109.484 78.0117L112.803 81.9574L118.957 82.7159L117.962 84.6587L113.015 83.9493L113.364 84.5278L117.053 86.4269L116.073 88.337L106.671 83.4963L106.676 83.4909Z" fill="white"/>
<path d="M47.0726 64.1123L49.766 74.5631L51.4528 74.0119L47.5024 63.9704L47.0726 64.1123ZM60.9315 59.5282L60.6758 59.61L61.9654 63.5939L63.1407 63.2119C63.7665 63.01 63.8644 62.2514 63.44 60.9471C63.157 60.0794 62.8578 59.5664 62.5313 59.4027C62.2102 59.2389 61.6716 59.2826 60.9207 59.5282H60.9315ZM75.253 54.9167L77.9465 65.3675L79.6333 64.8163L75.6829 54.7749L75.253 54.9167ZM133.415 24.6995L126.298 27.0189C111.046 4.86217 82.528 -5.67593 55.7242 3.07217C28.9205 11.8148 12.0416 37.1641 12.7054 64.0796L5.5882 66.399L0 77.4173L5.60453 94.6952L16.585 100.3L23.7023 97.9805C38.9542 120.137 67.472 130.675 94.2758 121.927C121.08 113.185 137.958 87.8353 137.295 60.9143L144.412 58.595L150 47.5821L144.395 30.3042L133.415 24.6995ZM56.2901 4.81305C82.1254 -3.61851 109.609 6.40659 124.486 27.6083L121.858 28.4651C107.525 8.64409 81.5431 -0.655187 57.1009 7.32342C32.6586 15.2966 17.1074 38.1409 17.1455 62.6334L14.5174 63.4902C14.1093 37.5679 30.4495 13.2446 56.2847 4.81305H56.2901ZM121.624 44.5478L122.924 48.559L118.484 50.0052L120.062 54.8731L124.997 53.2632L126.352 57.4326L116.634 60.6033L109.707 39.2433L119.121 36.1708L120.465 40.313L115.84 41.8246L117.194 45.994L121.635 44.5478H121.624ZM94.624 37.3551C86.56 31.041 75.6121 28.727 65.154 32.1379C54.6958 35.5487 47.1977 43.882 44.3846 53.7489L18.9738 62.0386C19.186 38.5448 34.1985 16.7264 57.6722 9.06431C81.1459 1.40768 106.083 10.194 120.04 29.0654L94.6294 37.3551H94.624ZM98.2044 47.5494L96.8713 43.4345L107.166 40.0783L108.499 44.1931L105.702 45.1045L111.296 62.3496L106.589 63.8831L100.996 46.638L98.1989 47.5494H98.2044ZM72.1732 43.8984L69.0499 43.3199L66.868 45.6284L66.4545 42.474L63.5869 41.1043L66.449 39.7345L66.8625 36.5801L69.0499 38.8886L72.1732 38.3101L70.6606 41.1097L72.1732 43.9093V43.8984ZM78.0172 80.0095L81.1405 80.588L83.3224 78.2796L83.736 81.4339L86.6035 82.8037L83.7414 84.1735L83.3279 87.3278L81.1405 85.0193L78.0172 85.5978L79.5299 82.7982L78.0172 79.9986V80.0095ZM82.6314 71.698L81.2548 68.5873L78.8769 69.3623L79.6278 72.6749L75.0571 74.1647L70.5354 52.0189L77.9029 49.6177L87.1858 70.2082L82.6423 71.6926L82.6314 71.698ZM80.0958 40.8751L77.8812 40.4658L76.3304 42.103L76.0366 39.8654L74.0015 38.894L76.0311 37.9226L76.325 35.6851L77.8757 37.3223L80.0903 36.913L79.0184 38.8995L80.0958 40.886V40.8751ZM87.7408 77.2863L89.9554 77.6956L91.5061 76.0584L91.8 78.2959L93.835 79.2673L91.8054 80.2387L91.5116 82.4762L89.9608 80.839L87.7462 81.2483L88.8181 79.2619L87.7408 77.2754V77.2863ZM89.716 69.3896L82.7892 48.0296L87.6265 46.4524L93.1059 55.9646L89.7921 45.7484L94.3356 44.264L101.262 65.624L96.6645 67.1248L90.8423 57.2034L94.3084 67.8888L89.7105 69.3896H89.716ZM70.0947 83.0438L72.3093 83.4531L73.8601 81.8159L74.1539 84.0534L76.1889 85.0248L74.1593 85.9962L73.8655 88.2337L72.3147 86.5965L70.1001 87.0058L71.1721 85.0193L70.0947 83.0329V83.0438ZM68.5113 61.4601C68.5548 61.8748 68.5385 62.2405 68.4732 62.5461C68.4079 62.8572 68.261 63.1846 68.0324 63.5339C67.8039 63.8831 67.4937 64.1997 67.102 64.4725C67.5645 64.4125 67.9726 64.4452 68.3317 64.5708C68.6854 64.6963 68.9792 64.8982 69.2077 65.182C69.4363 65.4603 69.6158 65.7332 69.7519 65.9897C69.8825 66.2462 70.0076 66.5463 70.1164 66.8847C71.2646 70.4156 72.1134 73.106 72.6738 74.9451L68.076 76.4459L65.3771 68.118C65.2683 67.7851 65.1485 67.5341 65.018 67.3594C64.8874 67.1848 64.7187 67.0866 64.5065 67.0593C64.2943 67.032 64.1038 67.0429 63.9297 67.0757C63.7556 67.1139 63.4944 67.1903 63.1462 67.2994L66.3021 77.0189L61.541 78.5742L54.6142 57.2143L61.8348 54.8567C62.5748 54.6166 63.2387 54.5075 63.8318 54.5402C64.4249 54.5675 64.9255 54.6985 65.3335 54.9277C65.7416 55.1569 66.1225 55.5116 66.4708 55.9973C66.819 56.483 67.1074 56.9851 67.3359 57.509C67.5645 58.0329 67.8039 58.6768 68.0542 59.4463C68.1848 59.8502 68.2827 60.1776 68.3535 60.4396C68.4242 60.6961 68.4786 61.0344 68.5221 61.4546L68.5113 61.4601ZM62.4497 46.638L60.2351 46.2287L58.6843 47.8659L58.3905 45.6284L56.3554 44.657L58.385 43.6856L58.6789 41.4481L60.2296 43.0853L62.4442 42.676L61.3723 44.6624L62.4497 46.6489V46.638ZM58.9999 79.4147L54.4564 80.8991L53.0798 77.7884L50.7019 78.5633L51.4528 81.8759L46.8821 83.3658L42.3604 61.22L49.7279 58.8187L59.0108 79.4092L58.9999 79.4147ZM26.0583 66.5408L30.629 65.051L35.6187 80.4297C35.6949 80.6644 35.7547 80.8445 35.8037 80.9755C35.8526 81.1065 35.9343 81.2865 36.0485 81.5048C36.1628 81.7231 36.2825 81.8868 36.4022 81.996C36.5219 82.1051 36.6743 82.187 36.8593 82.2416C37.0443 82.2961 37.2456 82.2852 37.4687 82.2143C37.6537 82.1543 37.8061 82.0669 37.9258 81.9632C38.0455 81.8541 38.1217 81.7231 38.1598 81.5703C38.1978 81.4121 38.2196 81.2702 38.2305 81.1337C38.2414 80.9973 38.2196 80.8227 38.1761 80.6207C38.1271 80.4134 38.089 80.2551 38.0618 80.146C38.0292 80.0368 37.9856 79.884 37.9203 79.6875L32.9307 64.3088L37.5014 62.819L42.5944 78.5197C43.2202 80.4516 43.2365 82.0669 42.6379 83.3712C42.0394 84.6755 40.7661 85.636 38.8073 86.2691C36.8212 86.924 35.2051 86.9076 33.9591 86.2036C32.713 85.5051 31.7771 84.1898 31.1514 82.2579L26.0583 66.5572V66.5408ZM55.3814 87.6552C63.4454 93.9694 74.3933 96.2833 84.8515 92.8724C95.3096 89.4616 102.808 81.1283 105.621 71.2614L131.032 62.9718C130.819 86.4655 115.807 108.284 92.3387 115.946C68.8649 123.603 43.9275 114.816 29.9706 95.9449L55.3814 87.6552ZM16.1878 86.34L13.1842 77.0899C12.8578 76.0802 12.7054 75.158 12.7272 74.3175C12.7489 73.4771 12.8904 72.7949 13.1462 72.2601C13.4019 71.7253 13.7719 71.2505 14.2562 70.8248C14.7405 70.3992 15.1975 70.0772 15.6383 69.8644C16.0736 69.6461 16.5633 69.4496 17.0965 69.275C17.7549 69.0621 18.3698 68.9093 18.9357 68.8329C19.5016 68.7511 20.0076 68.7456 20.4592 68.8166C20.9109 68.8875 21.3244 68.9966 21.6944 69.144C22.0699 69.2913 22.4072 69.5205 22.7174 69.8152C23.0275 70.1154 23.2996 70.421 23.5336 70.7375C23.7675 71.0541 23.9961 71.447 24.2192 71.9218C24.4423 72.3966 24.6327 72.8441 24.7959 73.2697C24.9592 73.6899 25.1333 74.192 25.3183 74.776L20.8238 76.244L20.2742 74.5522C20.1654 74.2138 20.0348 73.941 19.8934 73.7445C19.7519 73.5426 19.5995 73.4171 19.4363 73.368C19.2785 73.3188 19.137 73.2916 19.0227 73.297C18.903 73.297 18.7779 73.3243 18.6473 73.368C18.3807 73.4553 18.1739 73.559 18.0324 73.6845C17.891 73.81 17.793 73.941 17.7332 74.0774C17.6733 74.2139 17.6679 74.4321 17.7168 74.7268C17.7658 75.0215 17.8257 75.2999 17.8964 75.5509C17.9671 75.8019 18.0923 76.2003 18.2664 76.7351L20.9435 84.9921C21.0469 85.3031 21.1394 85.5651 21.2319 85.7725C21.3244 85.9798 21.4496 86.1981 21.6128 86.4219C21.776 86.6456 21.9665 86.793 22.1896 86.8639C22.4127 86.9349 22.6684 86.924 22.9568 86.8312C23.4302 86.6784 23.6859 86.3891 23.7186 85.9689C23.7567 85.5487 23.637 84.9211 23.3649 84.0916L22.565 81.6249L21.3081 82.0342L20.111 78.345L25.808 76.4841L29.8455 88.9268L28.0118 89.5271L26.6242 87.9772C26.2325 89.6199 25.1605 90.7223 23.4139 91.2953C20.0185 92.4031 17.608 90.755 16.177 86.3455L16.1878 86.34ZM93.7153 120.197C67.8801 128.629 40.3961 118.604 25.5196 97.402L28.1478 96.5452C42.4856 116.372 68.4623 125.666 92.9046 117.692C117.347 109.719 132.898 86.8694 132.86 62.3824L135.488 61.5256C135.896 87.4479 119.556 111.771 93.7208 120.203L93.7153 120.197ZM138.971 53.3232L129.252 56.4939L122.326 35.1339L131.739 32.0615L133.083 36.2036L128.458 37.7153L129.813 41.8847L134.253 40.4385L135.553 44.4496L131.113 45.8958L132.691 50.7637L137.626 49.1538L138.981 53.3232H138.971Z" fill="white"/>
</svg>
