<?xml version="1.0" standalone="no"?>
<!DOCTYPE svg>
<svg version="1.0" xmlns="http://www.w3.org/2000/svg"
 width="48px" height="48px" viewBox="0 0 200.000000 200.000000"
 preserveAspectRatio="xMidYMid meet">

<g transform="translate(0.000000,200.000000) scale(0.100000,-0.100000)"
fill="#000" stroke="none">
<path d="M413 1729 c-143 -71 -350 -353 -398 -544 -23 -93 -20 -143 14 -197
61 -96 251 -212 414 -252 51 -13 106 -30 122 -39 35 -18 100 -85 175 -180 94
-119 196 -182 359 -223 257 -66 652 -51 810 29 80 40 111 138 76 236 -34 98
-72 122 -322 203 -84 27 -159 56 -167 63 -19 19 -89 183 -180 420 -135 350
-167 415 -205 415 -34 0 -108 -85 -132 -151 -25 -69 -38 -77 -134 -86 -104
-10 -155 33 -200 166 -14 44 -35 92 -47 106 -44 57 -114 70 -185 34z m-123
-518 c67 -57 210 -196 318 -309 216 -225 272 -272 395 -337 170 -90 349 -125
680 -132 227 -6 229 -6 209 -25 -53 -54 -339 -88 -561 -69 -299 27 -424 88
-572 282 -91 120 -143 155 -280 188 -157 39 -351 153 -386 226 -14 30 -15 45
-6 99 11 67 60 189 74 184 4 -2 63 -50 129 -107z"/>
<path fill="#ff8904" d="M12 698 c-16 -16 -15 -33 4 -52 12 -13 39 -16 128 -16 124 0 150 9
144 51 -3 24 -4 24 -133 27 -93 2 -134 -1 -143 -10z"/>
<path fill="#ff8904" d="M12 508 c-16 -16 -15 -43 2 -57 9 -8 86 -11 256 -9 219 3 244 5 254
20 8 13 8 23 0 35 -10 16 -35 18 -255 21 -182 2 -248 -1 -257 -10z"/>
<path fill="#ff8904" d="M17 319 c-20 -12 -22 -42 -3 -58 9 -8 114 -11 367 -9 l354 3 3 23 c8
52 6 52 -362 52 -213 0 -348 -4 -359 -11z"/>
</g>
</svg>
