<svg width="82" height="80" viewBox="0 0 82 80" fill="none" xmlns="http://www.w3.org/2000/svg">
<path d="M64.74 46.0699C63.44 46.0699 62.18 46.24 60.96 46.52L59.13 41.0699V41.05L57.66 36.67L56.43 33.0099L60.97 33.52C63.47 33.8 65.74 32 66.03 29.5C66.3 27 64.5 24.73 62 24.45L50.27 23.11L42.42 14.5C41.47 13.48 40.13 12.94 38.77 13.03C37.38 13.11 36.12 13.82 35.31 14.96L23.19 32.24C22.46 33.28 22.2 34.59 22.47 35.83C22.74 37.08 23.53 38.17 24.62 38.79L27.28 40.35L23.25 47.5099C21.19 46.5799 18.91 46.06 16.51 46.06C7.39999 46.06 0 53.4699 0 62.5699C0 71.6699 7.40999 79.08 16.51 79.08C24.34 79.08 30.9 73.6 32.59 66.27C32.64 66.61 32.72 66.95 32.85 67.28C33.3 68.41 34.16 69.3 35.28 69.78C35.86 70.03 36.47 70.16 37.1 70.16C38.92 70.16 40.56 69.08 41.3 67.4L45.91 56.73L57.07 44.48L58.08 47.49C52.29 50.06 48.24 55.85 48.24 62.58C48.24 71.69 55.65 79.09 64.75 79.09C73.85 79.09 81.26 71.68 81.26 62.58C81.26 53.48 73.85 46.0699 64.75 46.0699H64.74ZM54.1 35.65L37.45 35.75L33.51 33.44L39.51 24.89L44.66 30.54C45.41 31.37 46.43 31.89 47.52 32L53.09 32.63L54.1 35.64V35.65ZM37.33 53.53L34.61 44.67L39.83 47.74L37.33 53.53ZM29.9 41.91L30.71 42.39L35.46 57.84L34.07 61.0699H32.93C32.47 56.0899 29.79 51.74 25.89 49.03L29.9 41.92V41.91ZM29.88 61.06H19.11L24.39 51.69C27.37 53.86 29.44 57.21 29.88 61.06ZM16.51 76.05C9.07999 76.05 3.04 70.01 3.04 62.58C3.04 55.15 9.07999 49.11 16.51 49.11C18.37 49.11 20.14 49.49 21.76 50.17L15.19 61.83C14.92 62.3 14.93 62.88 15.2 63.35C15.47 63.82 15.97 64.1 16.51 64.1H29.88C29.12 70.81 23.42 76.04 16.5 76.04L16.51 76.05ZM38.49 66.19C38.16 66.95 37.26 67.33 36.47 66.99C36.1 66.83 35.81 66.54 35.67 66.16C35.52 65.78 35.53 65.37 35.69 64.99L36.47 63.18C36.47 63.18 36.47 63.16 36.48 63.15L43.15 47.7C43.45 47 43.19 46.17 42.53 45.79L26.15 36.17C25.79 35.96 25.53 35.61 25.44 35.19C25.35 34.78 25.44 34.35 25.68 34L37.8 16.73C38.07 16.35 38.48 16.12 38.95 16.09C38.98 16.09 39.02 16.09 39.05 16.09C39.48 16.09 39.88 16.27 40.17 16.58L48.4 25.61C48.65 25.88 48.99 26.06 49.35 26.1L61.65 27.5C62.48 27.59 63.09 28.35 63 29.18C62.9 30.01 62.14 30.61 61.31 30.52L47.86 29C47.5 28.96 47.17 28.79 46.92 28.52L40.48 21.46C40.17 21.12 39.72 20.94 39.26 20.97C38.8 21 38.38 21.24 38.11 21.61L30.07 33.0699C29.83 33.4199 29.74 33.85 29.83 34.27C29.92 34.68 30.18 35.0399 30.55 35.2599L46.39 44.56C47.05 44.95 47.32 45.78 47.02 46.48L38.5 66.23L38.49 66.19ZM49.6 48.14L49.81 47.65C50.72 45.54 49.92 43.07 47.93 41.9L42.58 38.7599L55.11 38.69L55.94 41.17L49.59 48.14H49.6ZM64.73 76.05C57.3 76.05 51.26 70.01 51.26 62.58C51.26 57.19 54.45 52.55 59.03 50.39L63.28 63.06C63.49 63.7 64.09 64.1 64.72 64.1C64.88 64.1 65.04 64.07 65.2 64.02C66 63.75 66.43 62.89 66.16 62.09L61.91 49.41C62.82 49.21 63.76 49.11 64.72 49.11C72.15 49.11 78.19 55.15 78.19 62.58C78.19 70.01 72.15 76.04 64.73 76.04V76.05ZM49.33 16.08C53.76 16.08 57.37 12.47 57.37 8.03998C57.37 3.60998 53.76 0 49.33 0C44.9 0 41.29 3.60998 41.29 8.03998C41.29 12.47 44.9 16.08 49.33 16.08ZM49.33 3.04999C52.08 3.04999 54.32 5.28998 54.32 8.03998C54.32 10.79 52.08 13.03 49.33 13.03C46.58 13.03 44.34 10.79 44.34 8.03998C44.34 5.28998 46.58 3.04999 49.33 3.04999Z" fill="black"/>
</svg>
