<svg width="97" height="96" viewBox="0 0 97 96" fill="none" xmlns="http://www.w3.org/2000/svg">
<path d="M0.874029 68.3398C1.07403 68.4398 5.78403 70.7798 14.034 73.1298C21.614 75.2898 33.734 77.8798 48.444 77.8798C63.154 77.8798 75.274 75.2998 82.854 73.1298C91.104 70.7698 95.814 68.4298 96.014 68.3398C96.604 68.0398 96.954 67.3998 96.864 66.7398C96.774 66.0798 96.284 65.5398 95.634 65.4098C95.524 65.3898 89.474 64.1198 81.354 62.7298L85.014 61.0198C85.794 60.6498 86.134 59.7198 85.764 58.9398L83.114 53.2798C82.254 51.4398 80.334 50.4098 78.414 50.5998L60.324 11.8898C60.814 11.4098 61.204 10.8198 61.444 10.1498C61.874 8.96978 61.814 7.69979 61.284 6.55979L58.634 0.899784C58.264 0.119784 57.334 -0.220216 56.554 0.149784L50.894 2.79981C50.114 3.16981 49.774 4.0998 50.144 4.8798L52.794 10.5398C53.324 11.6698 54.264 12.5398 55.444 12.9598C55.964 13.1498 56.504 13.2398 57.044 13.2398C57.194 13.2398 57.344 13.2398 57.494 13.2198L61.014 20.7398L52.264 26.5798C52.264 26.5798 52.214 26.6198 52.194 26.6298C51.494 26.4298 50.764 26.3198 50.004 26.3198C45.694 26.3198 42.194 29.8198 42.194 34.1298C42.194 36.5798 43.324 38.7598 45.094 40.1998C43.694 41.0898 42.514 42.4098 41.594 44.1398C39.914 47.2798 39.064 51.7998 39.064 57.5698V63.8198H38.564L37.394 60.8598C37.134 60.2098 36.474 59.8098 35.784 59.8798C19.884 61.5198 1.43404 65.3798 1.24404 65.4198C0.594039 65.5598 0.104028 66.0898 0.0140284 66.7498C-0.0759716 67.4098 0.274035 68.0498 0.864034 68.3498L0.874029 68.3398ZM80.304 54.6098L82.284 58.8598L79.454 60.1798L77.474 55.9298C77.294 55.5498 77.274 55.1298 77.424 54.7298C77.564 54.3398 77.854 54.0298 78.224 53.8498C78.434 53.7498 78.664 53.6998 78.884 53.6998C79.474 53.6998 80.034 54.0398 80.304 54.5998V54.6098ZM55.644 9.2298L53.664 4.9798L56.494 3.65979L58.474 7.90979C58.654 8.28979 58.674 8.70981 58.524 9.10981C58.384 9.49981 58.094 9.80981 57.724 9.98981C57.344 10.1698 56.924 10.1898 56.524 10.0398C56.134 9.8998 55.824 9.60981 55.644 9.23981V9.2298ZM59.194 25.7298L57.934 28.8698C57.614 29.6698 58.004 30.5798 58.804 30.8998C58.994 30.9798 59.194 31.0098 59.384 31.0098C60.004 31.0098 60.594 30.6398 60.834 30.0298L62.924 24.8198L70.864 41.7898L55.594 39.6098C56.974 38.1998 57.834 36.2698 57.834 34.1398C57.834 31.8498 56.844 29.7798 55.264 28.3498L59.194 25.7298ZM45.324 34.1298C45.324 31.5398 47.424 29.4398 50.014 29.4398C52.604 29.4398 54.704 31.5398 54.704 34.1298C54.704 36.7198 52.604 38.8198 50.014 38.8198C47.424 38.8198 45.324 36.7198 45.324 34.1298ZM42.204 57.5698C42.204 50.4798 43.544 42.0398 49.914 41.9498L67.104 44.3998C63.024 46.3098 56.184 48.5098 48.834 46.6798C47.994 46.4698 47.144 46.9798 46.944 47.8198C46.734 48.6598 47.244 49.5098 48.084 49.7098C49.274 50.0098 50.444 50.2098 51.584 50.3298V60.6898C51.584 61.5498 52.284 62.2498 53.144 62.2498C54.004 62.2498 54.704 61.5498 54.704 60.6898V50.4998C63.584 50.4598 70.644 46.2098 72.394 45.0498L75.604 51.9298C75.114 52.4098 74.724 52.9998 74.484 53.6698C74.054 54.8498 74.114 56.1198 74.644 57.2598L76.854 61.9998C71.814 61.1998 66.324 60.4198 61.104 59.8798C60.404 59.8098 59.744 60.2098 59.494 60.8598L58.324 63.8198H42.204V57.5698ZM34.934 63.1098L36.054 65.9598C36.284 66.5498 36.864 66.9498 37.504 66.9498H59.384C60.024 66.9498 60.604 66.5598 60.834 65.9598L61.954 63.1098C72.364 64.2498 83.674 66.2698 89.994 67.4898C82.834 70.1898 67.834 74.7598 48.434 74.7598C29.034 74.7598 14.044 70.1898 6.87403 67.4898C13.194 66.2798 24.494 64.2598 34.914 63.1098H34.934Z" fill="black"/>
<path d="M7.59402 86.1298C7.59402 86.9698 8.27402 87.6598 9.12402 87.6598C13.434 87.6598 15.694 86.4898 17.694 85.4498C19.624 84.4498 21.294 83.5798 24.864 83.5798C28.434 83.5798 30.094 84.4398 32.034 85.4498C34.034 86.4898 36.294 87.6598 40.604 87.6598C44.914 87.6598 47.174 86.4898 49.174 85.4498C51.104 84.4498 52.774 83.5798 56.334 83.5798C59.894 83.5798 61.564 84.4398 63.504 85.4498C65.504 86.4898 67.764 87.6598 72.074 87.6598C76.384 87.6598 78.644 86.4898 80.644 85.4498C82.574 84.4498 84.244 83.5798 87.804 83.5798C88.644 83.5798 89.334 82.8998 89.334 82.0498C89.334 81.1998 88.654 80.5198 87.804 80.5198C83.504 80.5198 81.234 81.6898 79.234 82.7298C77.304 83.7298 75.634 84.5998 72.074 84.5998C68.514 84.5998 66.844 83.7398 64.914 82.7298C62.914 81.6898 60.654 80.5198 56.344 80.5198C52.034 80.5198 49.774 81.6898 47.774 82.7298C45.844 83.7298 44.174 84.5998 40.604 84.5998C37.034 84.5998 35.374 83.7398 33.434 82.7298C31.434 81.6898 29.174 80.5198 24.864 80.5198C20.554 80.5198 18.294 81.6898 16.294 82.7298C14.364 83.7298 12.694 84.5998 9.12402 84.5998C8.28402 84.5998 7.59402 85.2798 7.59402 86.1298Z" fill="black"/>
<path d="M7.59402 94.2798C7.59402 95.1198 8.27402 95.8098 9.12402 95.8098C13.434 95.8098 15.694 94.6398 17.694 93.5998C19.624 92.5998 21.294 91.7298 24.864 91.7298C28.434 91.7298 30.094 92.5898 32.034 93.5998C34.034 94.6398 36.294 95.8098 40.604 95.8098C44.914 95.8098 47.174 94.6398 49.174 93.5998C51.104 92.5998 52.774 91.7298 56.334 91.7298C59.894 91.7298 61.564 92.5898 63.504 93.5998C65.504 94.6398 67.764 95.8098 72.074 95.8098C76.384 95.8098 78.644 94.6398 80.644 93.5998C82.574 92.5998 84.244 91.7298 87.804 91.7298C88.644 91.7298 89.334 91.0498 89.334 90.1998C89.334 89.3498 88.654 88.6698 87.804 88.6698C83.504 88.6698 81.234 89.8398 79.234 90.8798C77.304 91.8798 75.634 92.7498 72.074 92.7498C68.514 92.7498 66.844 91.8898 64.914 90.8798C62.914 89.8398 60.654 88.6698 56.344 88.6698C52.034 88.6698 49.774 89.8398 47.774 90.8798C45.844 91.8798 44.174 92.7498 40.604 92.7498C37.034 92.7498 35.374 91.8898 33.434 90.8798C31.434 89.8398 29.174 88.6698 24.864 88.6698C20.554 88.6698 18.294 89.8398 16.294 90.8798C14.364 91.8798 12.694 92.7498 9.12402 92.7498C8.28402 92.7498 7.59402 93.4298 7.59402 94.2798Z" fill="black"/>
</svg>
