<svg width="82" height="80" viewBox="0 0 82 80" fill="none" xmlns="http://www.w3.org/2000/svg">
<path d="M64.7401 46.0699C63.4401 46.0699 62.18 46.24 60.96 46.52L59.13 41.0699V41.05L56.4301 33.0099L60.97 33.52C63.47 33.8 65.74 32 66.03 29.5C66.3 27 64.5 24.73 62 24.45L50.27 23.11L42.42 14.5C41.47 13.48 40.13 12.94 38.77 13.03C37.38 13.11 36.1201 13.82 35.3101 14.96L23.19 32.24C22.46 33.28 22.2 34.59 22.47 35.83C22.74 37.08 23.5301 38.17 24.6201 38.79L27.28 40.35L23.25 47.5099C21.19 46.5799 18.91 46.06 16.51 46.06C7.40001 46.06 0 53.4699 0 62.5699C0 71.6699 7.41001 79.08 16.51 79.08C24.34 79.08 30.9 73.6 32.59 66.27C32.64 66.61 32.72 66.95 32.85 67.28C33.3 68.41 34.16 69.3 35.28 69.78C35.86 70.03 36.47 70.16 37.1 70.16C38.92 70.16 40.56 69.08 41.3 67.4L45.91 56.73L57.07 44.48L58.08 47.49C52.29 50.06 48.2401 55.85 48.2401 62.58C48.2401 71.69 55.65 79.09 64.75 79.09C73.85 79.09 81.26 71.68 81.26 62.58C81.26 53.48 73.85 46.0699 64.75 46.0699H64.7401ZM54.1 35.65L37.45 35.75L33.51 33.44L39.51 24.89L44.66 30.54C45.41 31.37 46.43 31.89 47.52 32L53.09 32.63L54.1 35.64V35.65ZM37.34 53.53L34.6201 44.67L39.84 47.74L37.34 53.53ZM29.91 41.91L30.72 42.39L35.47 57.84L34.08 61.0699H32.94C32.48 56.0899 29.8 51.74 25.9 49.03L29.91 41.92V41.91ZM29.89 61.06H19.1201L24.4 51.69C27.38 53.86 29.45 57.21 29.89 61.06ZM16.51 76.05C9.08001 76.05 3.04004 70.01 3.04004 62.58C3.04004 55.15 9.08001 49.11 16.51 49.11C18.37 49.11 20.14 49.49 21.76 50.17L15.19 61.83C14.92 62.3 14.93 62.88 15.2 63.35C15.47 63.82 15.97 64.1 16.51 64.1H29.88C29.12 70.81 23.42 76.04 16.5 76.04L16.51 76.05ZM38.5 66.19C38.17 66.95 37.27 67.33 36.48 66.99C36.11 66.83 35.8201 66.54 35.6801 66.16C35.5301 65.78 35.54 65.37 35.7 64.99L36.48 63.18C36.48 63.18 36.4801 63.16 36.4901 63.15L43.16 47.7C43.46 47 43.2 46.17 42.54 45.79L26.16 36.17C25.8 35.96 25.54 35.61 25.45 35.19C25.36 34.78 25.45 34.35 25.69 34L37.8101 16.73C38.0801 16.35 38.49 16.12 38.96 16.09C38.99 16.09 39.0301 16.09 39.0601 16.09C39.4901 16.09 39.8901 16.27 40.1801 16.58L48.41 25.61C48.66 25.88 49 26.06 49.36 26.1L61.66 27.5C62.49 27.59 63.1 28.35 63.01 29.18C62.91 30.01 62.15 30.61 61.32 30.52L47.8701 29C47.5101 28.96 47.1801 28.79 46.9301 28.52L40.4901 21.46C40.18 21.12 39.73 20.94 39.27 20.97C38.81 21 38.3901 21.24 38.1201 21.61L30.08 33.0699C29.84 33.4199 29.75 33.85 29.84 34.27C29.93 34.68 30.1901 35.0399 30.5601 35.2599L46.4 44.56C47.06 44.95 47.33 45.78 47.03 46.48L38.51 66.23L38.5 66.19ZM49.61 48.14L49.82 47.65C50.73 45.54 49.93 43.07 47.94 41.9L42.59 38.7599L55.1201 38.69L55.95 41.17L49.6 48.14H49.61ZM64.7401 76.05C57.3101 76.05 51.27 70.01 51.27 62.58C51.27 57.19 54.46 52.55 59.04 50.39L63.29 63.06C63.5 63.7 64.1 64.1 64.73 64.1C64.89 64.1 65.05 64.07 65.21 64.02C66.01 63.75 66.44 62.89 66.17 62.09L61.92 49.41C62.83 49.21 63.77 49.11 64.73 49.11C72.16 49.11 78.2 55.15 78.2 62.58C78.2 70.01 72.16 76.04 64.7401 76.04V76.05ZM49.34 16.08C53.77 16.08 57.38 12.47 57.38 8.03998C57.38 3.60998 53.77 0 49.34 0C44.91 0 41.3 3.60998 41.3 8.03998C41.3 12.47 44.91 16.08 49.34 16.08ZM49.34 3.04999C52.09 3.04999 54.33 5.28998 54.33 8.03998C54.33 10.79 52.09 13.03 49.34 13.03C46.59 13.03 44.35 10.79 44.35 8.03998C44.35 5.28998 46.59 3.04999 49.34 3.04999Z" fill="black"/>
<path d="M9.75001 0.579956L2.79005 15.25C2.46005 15.95 3.01003 16.74 3.77003 16.68L12.03 16.02C12.8 15.96 13.35 16.76 13.01 17.46L7.70002 28.28C7.19002 29.32 8.57003 30.25 9.34003 29.39L26.32 10.33C26.92 9.65996 26.3901 8.59998 25.4901 8.66998L17.03 9.33997C16.18 9.40997 15.64 8.44 16.15 7.75L20.66 1.60999C21.15 0.949985 20.67 0.0199585 19.85 0.0199585H10.64C10.25 0.0199585 9.90006 0.239966 9.74006 0.589966L9.75001 0.579956Z" fill="black"/>
<path d="M37.23 57.42H19.38L24.51 47.31H41.9301L37.23 57.42Z" fill="black"/>
</svg>
