<svg width="71" height="95" viewBox="0 0 71 95" fill="none" xmlns="http://www.w3.org/2000/svg">
<path d="M67.9071 71.9942V88.1442C67.9071 89.3642 67.5972 90.0942 67.0772 90.5942C66.5472 91.0942 65.6471 91.4742 64.0971 91.4742H4.05714C3.38714 91.4742 3.12713 91.2042 2.98713 90.8842C2.84713 90.5642 2.83711 90.1442 3.27711 89.6342L6.44715 86.0142C7.21715 85.1242 7.55713 84.8142 7.73713 84.7242C7.91713 84.6342 8.29715 84.5742 9.44715 84.5742H16.0971C19.5171 84.5742 22.4871 84.1642 25.3471 81.4442L32.8771 75.4242C33.9171 74.5842 34.5771 74.2442 35.1571 74.1142C35.7371 73.9842 36.3771 74.0242 37.5271 74.2542L51.1871 77.1042L48.2771 79.0042C46.5571 80.0442 48.2171 82.6042 49.8671 81.4542L65.6871 71.1042C67.1171 70.1642 67.8872 70.8842 67.8872 71.9842L67.9071 71.9942ZM68.3972 67.8942C66.9272 67.3742 65.3971 67.8242 64.1071 68.6742L54.6571 74.8442L38.1372 71.4042C36.8472 71.1342 35.6972 70.9942 34.5172 71.2742C33.3372 71.5442 32.2771 72.1842 31.0671 73.1542L23.3972 79.2942L23.3671 79.3242C21.0671 81.5142 19.3771 81.6442 16.1171 81.6442H9.46711C8.25711 81.6442 7.36712 81.6642 6.47712 82.1042C5.57712 82.5342 5.04716 83.1942 4.26716 84.0842L1.08717 87.7042C-0.0228318 88.9742 -0.282861 90.6842 0.307139 92.0442C0.907139 93.4142 2.35714 94.3942 4.05714 94.3942H64.0971C66.1371 94.3942 67.8772 93.8642 69.0872 92.7142C70.2972 91.5642 70.8171 89.9142 70.8171 88.1442V71.9942C70.8171 70.0542 69.8572 68.4142 68.3872 67.8942H68.3972Z" fill="black"/>
<path fill-rule="evenodd" clip-rule="evenodd" d="M31.5071 3.0942C33.1571 2.6942 34.9571 2.9442 36.5171 3.9042C39.6671 5.8342 40.6371 9.8842 38.7071 13.0342C36.7771 16.1642 32.7171 17.1342 29.5771 15.2042C26.4471 13.2842 25.4771 9.2142 27.3971 6.0942C28.3671 4.5242 29.8671 3.4942 31.5071 3.0942ZM30.8371 0.264198C28.4571 0.834198 26.2971 2.3042 24.9171 4.5542C22.1671 9.0242 23.5671 14.9442 28.0571 17.6842C32.5371 20.4342 38.4471 19.0242 41.2071 14.5442C43.9571 10.0642 42.5571 4.1542 38.0671 1.4042C35.8271 0.0341976 33.2271 -0.305802 30.8471 0.264198H30.8371Z" fill="black"/>
<path d="M19.9471 50.8142L24.7771 52.4142L18.1871 73.4742C17.8771 74.4542 17.3871 74.9342 16.8271 75.1942C16.2671 75.4542 15.5971 75.4842 14.9571 75.2942C14.3271 75.0942 13.7871 74.6942 13.4771 74.1642C13.1671 73.6342 13.0271 72.9842 13.3371 71.9942L19.9571 50.8042L19.9471 50.8142ZM51.9671 40.3142C51.9671 40.3142 52.2071 58.1842 51.9671 67.1142C51.9371 68.3242 49.8271 68.3242 49.8271 67.1142V40.3542H51.4371C51.6171 40.3542 51.7871 40.3242 51.9671 40.3042V40.3142ZM50.8971 24.4642C51.4371 24.4642 51.9671 24.9042 51.9671 25.7842V30.6742C51.7871 30.6642 51.6171 30.6242 51.4371 30.6242H49.8271V25.7742C49.8271 24.8942 50.3671 24.4542 50.8971 24.4542V24.4642ZM26.4571 23.8942C28.3571 23.8942 29.7671 23.8642 30.8771 24.1242C31.9871 24.3842 32.8771 24.8642 34.0771 26.2042L40.1771 33.0642C40.4571 33.3742 40.8571 33.5542 41.2671 33.5442H51.4271C53.7871 33.5442 54.3571 34.6242 54.3571 35.4942C54.3571 36.3642 53.7871 37.4342 51.4271 37.4342H39.7371C39.1771 37.4342 38.6471 37.2042 38.2771 36.7942L33.4071 31.3342C32.6471 30.4942 31.2671 30.7942 30.9271 31.8742L27.3871 43.4342C27.1471 44.1942 27.5571 45.0042 28.3271 45.2542L36.4771 47.8842C37.4271 48.1942 38.0271 49.0642 38.2471 50.2942L40.4171 62.7442C40.5471 63.4842 40.3771 63.8942 40.0271 64.2842C39.6771 64.6642 39.0771 64.9642 38.4171 65.0542C37.7571 65.1342 37.0571 64.9942 36.5171 64.6342C35.9771 64.2842 35.5371 63.7442 35.3271 62.7342L33.3371 52.9742C33.2271 52.4542 32.8571 52.0442 32.3671 51.8842L19.9571 47.7542C18.1971 47.1742 18.3171 45.7442 18.6671 44.4942L24.0071 25.7342C24.3271 24.6442 25.3071 23.9042 26.4471 23.9042L26.4571 23.8942ZM12.7471 19.6942L20.6271 21.8342C21.2771 22.0142 21.8771 22.8242 21.6671 23.8342C21.4771 24.1742 21.3171 24.5242 21.2071 24.9042L16.2771 42.1742C15.8371 42.7942 15.1171 43.0542 14.5571 42.8942C12.8271 42.4042 11.1071 41.9042 9.37711 41.4142C8.67711 41.2042 8.17709 40.3442 8.48709 39.2542L11.5071 28.7242C11.6871 28.0742 11.3971 27.3842 10.8071 27.0542C9.2471 26.1942 8.4171 24.3742 8.9371 22.5542C9.2071 21.6242 9.81709 20.7242 10.5471 20.2042C11.3071 19.6442 11.9571 19.4742 12.7271 19.6842L12.7471 19.6942ZM12.2371 16.7042C10.9871 16.7042 9.78713 17.1642 8.83713 17.8742C7.55713 18.8242 6.60708 20.1942 6.15708 21.7642C5.39708 24.4042 6.55707 26.9342 8.52707 28.6242L5.70712 38.4642C5.00712 40.8942 6.2071 43.5542 8.6171 44.2442L13.7871 45.7242C14.3671 45.8942 14.9571 45.9142 15.5271 45.8342C15.4971 46.5942 15.6071 47.3142 15.9071 47.9842C16.2071 48.6542 16.6871 49.1942 17.2771 49.6242L10.5571 71.1542C10.0371 72.8142 10.2371 74.4142 10.9471 75.6542C11.6671 76.8842 12.8271 77.7242 14.1071 78.1142C15.3771 78.5042 16.7971 78.4642 18.0871 77.8442C19.3671 77.2342 20.4571 76.0242 20.9671 74.3742L27.5371 53.3542L30.6471 54.3942L32.4871 63.3242C32.8271 65.0142 33.7571 66.3342 34.9271 67.1042C36.1171 67.8742 37.4871 68.1142 38.7771 67.9642C40.0671 67.8042 41.2971 67.2542 42.1971 66.2642C43.0871 65.2742 43.5771 63.7942 43.3071 62.2542L41.1371 49.8042C40.7871 47.8042 39.5671 45.8242 37.3971 45.1242L30.6071 42.9442L32.9671 35.2342L36.1071 38.7542C37.0371 39.7942 38.3671 40.3942 39.7471 40.3942H46.9071V67.2042C46.9071 68.3942 47.4471 69.4642 48.2171 70.1342C48.9871 70.8142 49.9471 71.1142 50.8971 71.1142C51.8471 71.1142 52.8171 70.8142 53.5871 70.1342C54.3571 69.4542 54.8971 68.3842 54.8971 67.2042V39.4642C56.3971 38.5542 57.2971 37.0842 57.2971 35.5142C57.2971 33.9442 56.3971 32.4742 54.8971 31.5642V25.8242C54.9271 23.6042 53.0771 21.7442 50.8471 21.7742C48.6571 21.8142 46.8871 23.6442 46.9171 25.8242V30.6542H41.9371L36.2571 24.2942C34.7671 22.6142 33.1871 21.6942 31.5571 21.3142C29.9171 20.9242 28.3171 21.0042 26.4671 21.0042C25.6371 21.0042 24.8471 21.2042 24.1271 21.5442C23.6371 20.3642 22.7071 19.4042 21.3971 19.0442L13.5171 16.9042C13.0871 16.7942 12.6671 16.7342 12.2471 16.7342L12.2371 16.7042Z" fill="black"/>
</svg>
