<svg width="88" height="94" viewBox="0 0 88 94" fill="none" xmlns="http://www.w3.org/2000/svg">
<path d="M48.6104 85.66C47.9804 85.27 48.0004 84.78 47.9304 84.14C47.0904 76.97 48.7504 68.59 48.3004 61.33C48.0704 60.3 41.5804 53.03 40.6904 52.66C39.9504 52.35 40.1004 52.95 39.9404 53.22C38.1804 56.21 36.1904 62.28 34.1204 64.56C32.0504 66.84 21.2604 71.82 20.4504 73.79C20.7304 78.79 25.6304 85.19 18.0504 86.79L5.80039 70.04C6.33039 69.28 7.06038 68.7 7.78038 68.14C11.9704 64.87 22.2604 60.26 25.0904 56.85C25.9704 55.79 32.6504 43.38 33.1104 41.99C33.6104 40.48 33.3604 39.36 34.0904 37.69C35.9704 33.34 41.2304 28.23 43.5604 23.85C43.7704 23.19 39.2504 22.99 38.2904 23.42C36.8104 24.09 32.2604 30.38 30.6004 32C25.3104 37.16 19.0104 32.07 23.5904 25.87C25.3604 23.47 31.1204 16.66 33.2204 14.83C34.2504 13.93 35.4004 13.62 36.7204 13.5C39.8004 13.21 50.2904 13.87 53.3604 14.5C60.8404 16.05 65.3904 24.48 70.8504 29.13C74.6704 30.05 80.6104 29.09 84.1704 29.89C88.4604 30.85 88.4904 38.45 83.3904 39.05C80.1804 39.43 71.3304 39.01 68.0204 38.56C64.1804 38.04 61.6004 33.41 58.7404 31.13L49.7804 44.2L49.9304 45.18C51.9404 48.08 58.3704 53.47 59.2004 56.62C60.2304 60.53 58.3904 73.47 59.8104 75.7C61.8304 77.56 67.2304 77.66 68.8504 79.53C69.8904 80.73 70.6404 84.54 69.3104 85.67H48.6304L48.6104 85.66ZM51.0304 69.82L56.5604 69.41L56.7304 57.74L46.1704 44.52L57.6204 27.78C58.5304 27.2 59.5004 28.19 60.2204 28.72C62.4604 30.39 65.7704 35.18 68.1504 35.75L82.9104 36.37L84.0604 35.77C84.6804 34.99 84.6504 33.83 84.0604 33.04C83.1704 31.92 78.4604 32.53 76.7604 32.42C74.4804 32.27 71.9004 31.91 69.6104 31.65C63.7604 27.13 59.5204 18.16 51.6804 17.03C48.1804 16.52 43.0004 16.28 39.3804 16.13C37.9704 16.07 36.3704 15.95 35.1904 16.82L25.3104 28.05C23.7604 29.76 25.0704 32.36 27.2604 31.33L37.2604 20.64L47.5104 20.99C47.5804 21.76 47.5404 22.43 47.2704 23.17C45.6704 27.47 38.7804 34 36.7004 38.56C35.3304 41.58 35.9504 43.37 37.8404 45.83C39.3904 47.86 51.0304 58.79 51.0304 59.92V69.82ZM22.8904 68.04C23.3604 68.18 23.7504 68.01 24.1704 67.83C24.8304 67.56 31.1904 63.5 31.6904 63.02C32.5604 62.19 38.2004 50.95 38.1504 50.23L34.0904 45.62C31.7804 49.03 29.7504 55.63 27.2804 58.6C26.1904 59.91 20.2804 63 20.2504 63.43L22.9004 68.03L22.8904 68.04ZM19.3504 83.46C19.5004 78.15 14.5604 72.98 21.1004 69.6L17.8104 65.01C15.3504 66.69 12.7704 68.17 10.2304 69.72C9.88038 69.93 9.51039 69.61 9.66039 70.47C9.81039 71.33 15.9204 79.87 16.9604 81.22L19.3404 83.46H19.3504ZM56.7504 72.46H50.5904V82.58H66.8704L66.6104 81.22C61.8104 79.71 55.6404 79.13 56.7504 72.46Z" fill="black"/>
<path d="M66.8704 0.0100098C63.1304 0.0100098 59.7604 2.26 58.3304 5.72C56.9004 9.17 57.6904 13.15 60.3304 15.79C62.9704 18.43 66.9504 19.22 70.4004 17.79C73.8504 16.36 76.1104 12.99 76.1104 9.25C76.1104 4.15 71.9704 0.01 66.8604 0L66.8704 0.0100098ZM66.8704 15.64C64.2904 15.64 61.9604 14.08 60.9704 11.7C59.9804 9.31001 60.5304 6.56999 62.3604 4.73999C64.1904 2.90999 66.9304 2.35999 69.3204 3.35999C71.7104 4.34999 73.2604 6.68001 73.2604 9.26001C73.2604 12.78 70.4004 15.64 66.8704 15.64Z" fill="black"/>
<path d="M0.639054 69.3315C1.31734 68.8559 2.2533 69.0204 2.7289 69.6987L16.0551 88.7055C16.0632 88.7134 16.0724 88.7223 16.0824 88.7319C16.1492 88.7955 16.2566 88.8926 16.4008 89.0063C16.6926 89.2364 17.117 89.5205 17.643 89.7387C18.6477 90.1554 20.0802 90.3673 21.8666 89.3471C22.5858 88.9366 23.5016 89.1868 23.9125 89.9057C24.3233 90.6251 24.0733 91.5417 23.3539 91.9526C20.6409 93.5019 18.2187 93.2248 16.4935 92.5092C15.6545 92.1611 14.994 91.718 14.5434 91.3627C14.3165 91.1839 14.1384 91.0232 14.0121 90.9028C13.9489 90.8425 13.8981 90.7919 13.8607 90.7534C13.8421 90.7341 13.827 90.7175 13.8148 90.7045C13.8087 90.698 13.8027 90.6927 13.7982 90.6879C13.7961 90.6856 13.7941 90.683 13.7924 90.6811C13.7915 90.6802 13.7912 90.679 13.7904 90.6782L13.7885 90.6772L14.9008 89.6703L13.7875 90.6762L13.726 90.6069L13.6723 90.5307L0.271867 71.4213C-0.203688 70.743 -0.039211 69.8071 0.639054 69.3315Z" fill="black"/>
<path d="M74.8967 82.0059C75.7215 82.0811 76.3291 82.8109 76.2541 83.6357C75.9707 86.7473 74.3553 88.5755 72.7805 89.5801C72.0147 90.0685 71.2731 90.3554 70.7238 90.5215C70.4474 90.605 70.2142 90.6597 70.0432 90.6943C69.9577 90.7116 69.8872 90.7238 69.8342 90.7324C69.8076 90.7367 69.7844 90.7406 69.7668 90.7432C69.7582 90.7444 69.7507 90.7452 69.7443 90.7461C69.7412 90.7465 69.7382 90.7467 69.7355 90.7471C69.7342 90.7472 69.7328 90.7479 69.7316 90.748H69.7297C69.7287 90.7465 69.7218 90.6968 69.5402 89.2598L69.7297 90.748L69.6359 90.7598H69.5432L46.2033 90.7998C45.375 90.8012 44.7019 90.1311 44.7004 89.3027C44.699 88.4744 45.3692 87.8014 46.1975 87.7998L69.4143 87.7598C69.4243 87.7578 69.4355 87.7563 69.4475 87.7539C69.538 87.7356 69.6796 87.7027 69.8557 87.6494C70.2115 87.5418 70.687 87.357 71.1672 87.0508C72.0848 86.4654 73.0801 85.4125 73.2668 83.3643C73.3419 82.5392 74.0717 81.9307 74.8967 82.0059Z" fill="black"/>
<path d="M8.90523 72.0565C9.63052 71.6563 10.543 71.9201 10.9433 72.6454C11.3435 73.3707 11.0806 74.2832 10.3554 74.6835L5.91499 77.1337C5.1897 77.5337 4.27711 77.2701 3.87691 76.5448C3.47667 75.8195 3.74045 74.907 4.46578 74.5067L8.90523 72.0565Z" fill="black"/>
<path d="M14.4158 82.0428C15.0546 81.5158 15.9998 81.6063 16.5271 82.2449C17.0545 82.8838 16.9638 83.8299 16.3249 84.3572L13.3454 86.8172C12.7066 87.3445 11.7605 87.2539 11.2331 86.6151C10.7059 85.9762 10.7965 85.0301 11.4353 84.5027L14.4158 82.0428Z" fill="black"/>
<path d="M53.3423 82.751C54.1701 82.7796 54.8181 83.4739 54.7896 84.3018L54.6294 88.9414C54.6009 89.7693 53.9066 90.4172 53.0786 90.3887C52.2507 90.3601 51.6028 89.6658 51.6314 88.8379L51.7915 84.1982C51.8201 83.3703 52.5144 82.7224 53.3423 82.751Z" fill="black"/>
<path d="M64.4587 82.8966C65.2779 82.7742 66.0412 83.3391 66.1638 84.1583L66.7341 87.9679C66.8567 88.7872 66.2917 89.5514 65.4724 89.674C64.6532 89.7965 63.89 89.2313 63.7673 88.4122L63.197 84.6017C63.0745 83.7825 63.6395 83.0192 64.4587 82.8966Z" fill="black"/>
</svg>
