<svg width="128" height="128" viewBox="0 0 128 128" fill="none" xmlns="http://www.w3.org/2000/svg">
<rect width="128" height="128" rx="16" fill="url(#paint0_linear_1684_7197)"/>
<path d="M80.254 21.01C76.084 21.01 72.324 23.52 70.734 27.37C69.144 31.22 70.024 35.66 72.964 38.6C75.914 41.55 80.344 42.43 84.194 40.83C88.044 39.23 90.554 35.48 90.554 31.31C90.554 25.62 85.934 21.01 80.244 21L80.254 21.01ZM80.254 38.43C77.374 38.43 74.784 36.7 73.674 34.04C72.574 31.38 73.184 28.32 75.224 26.28C77.264 24.24 80.324 23.63 82.984 24.74C85.644 25.84 87.374 28.44 87.374 31.32C87.374 35.25 84.184 38.44 80.254 38.44V38.43Z" fill="black"/>
<path d="M98.934 57.65C100.074 56.64 100.774 55.21 100.854 53.69C100.944 52.18 100.424 50.69 99.414 49.57C97.364 47.36 93.944 47.14 91.614 49.06L84.224 55.22L82.174 50.73C80.644 47.43 78.134 44.66 74.994 42.83L70.614 40.21C66.594 37.78 61.754 37.06 57.194 38.22L45.354 40.08C44.604 40.24 43.874 40.51 43.204 40.89L33.284 49.05C30.414 50.75 29.444 54.44 31.134 57.32C32.814 60.2 36.514 61.18 39.404 59.51L48.034 51.84L55.584 50.37L49.394 60.51C46.954 64.64 47.324 69.85 50.304 73.6L46.054 87.67L30.314 95.77C28.924 96.43 27.854 97.63 27.344 99.09C26.804 100.62 26.904 102.3 27.614 103.75C28.684 105.79 30.804 107.07 33.104 107.08C33.974 107.08 34.834 106.88 35.624 106.51L53.064 98.07C55.714 96.75 57.674 94.35 58.464 91.49L61.644 82.2L65.444 84.91L59.784 97.43C58.794 99.75 59.274 102.43 60.994 104.26C62.724 106.09 65.374 106.72 67.744 105.86C69.394 105.27 70.724 104.03 71.424 102.43L78.364 86.3C80.064 82.22 78.764 77.51 75.224 74.87L67.334 68.93L73.224 60.06L77.684 65.96C78.854 67.47 80.584 68.44 82.484 68.64C84.374 68.84 86.284 68.27 87.744 67.05L98.884 57.68L98.914 57.65H98.934ZM55.434 90.51L55.404 90.62C54.864 92.62 53.514 94.29 51.664 95.22L34.254 103.65C32.844 104.28 31.184 103.7 30.464 102.34C30.144 101.66 30.094 100.87 30.344 100.16C30.584 99.48 31.084 98.94 31.724 98.64L48.714 89.9L52.914 76L58.934 80.29L55.434 90.52V90.51ZM96.834 55.26L85.714 64.62C84.914 65.28 83.884 65.59 82.854 65.48C81.824 65.37 80.874 64.85 80.234 64.03L73.074 54.55L63.034 69.66L73.324 77.41C75.694 79.18 76.564 82.32 75.444 85.05L68.514 101.15C68.164 101.95 67.494 102.57 66.674 102.86C65.854 103.16 64.944 103.11 64.154 102.72C62.724 101.93 62.114 100.21 62.714 98.69L69.434 83.82L54.414 73.13C50.934 70.61 49.944 65.84 52.134 62.15L62.074 45.86L46.574 48.88L37.664 56.84C36.334 57.52 34.704 57.05 33.934 55.78C33.504 55.12 33.374 54.32 33.574 53.56C33.764 52.8 34.264 52.15 34.954 51.78L44.814 43.66C45.144 43.47 45.494 43.33 45.864 43.23L57.754 41.36L57.884 41.33C61.644 40.35 65.634 40.93 68.964 42.93L73.384 45.57C75.974 47.08 78.034 49.34 79.294 52.07L83.064 60.34L93.664 51.51C94.404 50.86 95.454 50.73 96.334 51.16C97.214 51.6 97.744 52.52 97.674 53.5C97.634 54.17 97.334 54.8 96.834 55.25V55.26Z" fill="black"/>
<defs>
<linearGradient id="paint0_linear_1684_7197" x1="64" y1="0" x2="64" y2="128" gradientUnits="userSpaceOnUse">
<stop stop-color="white"/>
<stop offset="1" stop-color="#E6E6E6"/>
</linearGradient>
</defs>
</svg>
