<svg xmlns="http://www.w3.org/2000/svg" viewBox="0 0 24 24" fill="#4a6bc5">
  <circle cx="12" cy="5" r="2.5"/>
  <path d="M10 9h4c.8 0 1.5.7 1.5 1.5v4H8.5v-4c0-.8.7-1.5 1.5-1.5z"/>
  <path d="M1 16.5c0 0 4-2 11-2s11 2 11 2" fill="none" stroke="#4a6bc5" stroke-width="1.8" stroke-linecap="round"/>
  <path d="M2.5 19c1.5 2.5 5 3.5 9.5 3.5S20 21.5 21.5 19" fill="none" stroke="#4a6bc5" stroke-width="1.8" stroke-linecap="round"/>
  <path d="M6.5 9l-3.5 5" stroke="#4a6bc5" stroke-width="1.3" stroke-linecap="round"/>
  <path d="M17.5 9l3.5 5" stroke="#4a6bc5" stroke-width="1.3" stroke-linecap="round"/>
  <ellipse cx="2.5" cy="14.5" rx="1.5" ry=".7" transform="rotate(-40 2.5 14.5)"/>
  <ellipse cx="21.5" cy="14.5" rx="1.5" ry=".7" transform="rotate(40 21.5 14.5)"/>
</svg>
