<svg width="93" height="92" viewBox="0 0 93 92" fill="none" xmlns="http://www.w3.org/2000/svg">
<path d="M0 60.5867C0 67.6367 5.73 73.3667 12.78 73.3667H79.48C86.53 73.3667 92.26 67.6367 92.26 60.5867C92.26 56.5567 90.31 52.7167 87.06 50.3067C87.01 50.2667 86.95 50.2466 86.9 50.2166L82.45 46.6366C79.4 44.1766 75.07 44.3466 72.21 46.8266L70.27 45.4866C70.28 45.1566 70.27 44.8266 70.19 44.4866C69.8 42.7866 68.3 41.6066 66.56 41.6066C66.28 41.6066 65.99 41.6367 65.72 41.7066L65.04 41.8667L53.9 34.1467C53.9 34.1467 53.9 34.1267 53.9 34.1167C53.9 30.0467 50.51 26.7366 46.33 26.7366C45.45 26.7366 44.61 26.8966 43.82 27.1666L35.45 21.3667L35.25 19.9267C35.25 19.9267 35.24 19.8467 35.23 19.8067C34.86 18.1067 33.33 16.8766 31.6 16.8766C31.33 16.8766 31.06 16.9066 30.8 16.9666C30.41 17.0566 30.05 17.2166 29.73 17.4066L28.21 16.3466C28.91 14.9766 29.21 13.4266 29.04 11.8566C28.81 9.73664 27.77 7.82663 26.11 6.49663L18.45 0.336655C17.79 -0.193345 16.83 -0.0833645 16.3 0.566635L8.2 10.6366C7.95 10.9566 7.83 11.3566 7.87 11.7566C7.91 12.1566 8.12 12.5266 8.43 12.7866L16.09 18.9466C17.5 20.0866 19.28 20.7066 21.09 20.7066C23.04 20.7066 24.88 19.9966 26.31 18.7466L27.95 19.8866C27.86 20.3466 27.85 20.8366 27.95 21.3266L30.77 42.1266C30.77 42.1266 30.78 42.2066 30.79 42.2466C30.87 42.6166 31.01 43.2766 33.26 44.9267C32.09 48.1866 29.36 56.2467 28.41 59.0567H19.65C14.37 59.0567 9.79 55.6666 8.25 50.6266C8.11 50.1666 7.77 49.8066 7.32 49.6366C6.87 49.4666 6.38 49.5266 5.97 49.7766C2.24 52.1366 0.00999451 56.1766 0.00999451 60.5766L0 60.5867ZM24.93 15.8166C23.99 16.9866 22.59 17.6566 21.08 17.6566C19.95 17.6566 18.88 17.2766 17.99 16.5666L11.52 11.3667L17.7 3.67665L24.17 8.87663C25.2 9.70663 25.84 10.8766 25.98 12.1866C26.12 13.4966 25.75 14.7867 24.92 15.8067L24.93 15.8166ZM50.84 34.1266C50.84 36.5066 48.82 38.4466 46.33 38.4466C43.84 38.4466 41.82 36.5066 41.82 34.1266C41.82 31.7466 43.84 29.8067 46.33 29.8067C48.82 29.8067 50.84 31.7466 50.84 34.1266ZM61.02 42.7966L53.5 44.5366L48.03 44.0567L37.8 38.7666L36 25.4766L40.97 28.9166C39.6 30.2566 38.76 32.0966 38.76 34.1266C38.76 38.1966 42.15 41.5066 46.33 41.5066C49.32 41.5066 51.9 39.8066 53.13 37.3466L61.01 42.8067L61.02 42.7966ZM66.71 45.9866L54.02 48.9166C53.16 48.8466 48.94 48.3766 46.33 48.0766C45.63 47.9966 44.97 48.4066 44.72 49.0666L41.07 59.0066H31.63C33.37 53.8566 36.14 45.7766 36.45 45.0066C36.77 44.3366 36.56 43.5266 35.93 43.0966C35.03 42.4866 34.09 41.7466 33.73 41.3766L30.95 20.8667C30.95 20.8667 30.94 20.7866 30.93 20.7466C30.85 20.3866 31.08 20.0266 31.44 19.9466C31.79 19.8666 32.13 20.0866 32.22 20.4166L34.87 39.9666C34.94 40.4566 35.24 40.8867 35.68 41.1167L46.88 46.9066C47.06 46.9966 47.25 47.0566 47.45 47.0666L53.46 47.5966C53.62 47.6066 53.78 47.5966 53.94 47.5666L66.4 44.6866C66.72 44.6166 67.11 44.7866 67.2 45.1866C67.28 45.5466 67.06 45.9066 66.7 45.9866H66.71ZM72.4 59.0567H44.32L47.19 51.2466C50.02 51.5666 53.73 51.9766 54.15 51.9766C54.27 51.9766 54.41 51.9666 54.52 51.9366L67.4 48.9566C67.96 48.8266 68.45 48.5667 68.87 48.2366L70.32 49.2366C69.62 50.6066 69.33 52.1566 69.5 53.7166C69.73 55.8266 70.76 57.7166 72.4 59.0466V59.0567ZM84.29 52.0466C82.81 55.3266 79.93 57.7267 76.51 58.6467L74.41 56.7666C73.32 55.8866 72.68 54.7067 72.54 53.3967C72.4 52.0867 72.78 50.7966 73.6 49.7766C75.3 47.6566 78.42 47.3166 80.54 49.0266L84.3 52.0567L84.29 52.0466ZM3.05 60.5867C3.05 57.8767 4.16 55.3566 6.09 53.5366C8.53 58.7466 13.74 62.1167 19.64 62.1167H73.44C79.06 62.1167 84.15 58.9667 86.71 54.0867C88.32 55.8567 89.21 58.1367 89.21 60.5867C89.21 65.9467 84.85 70.3166 79.48 70.3166H12.78C7.42 70.3166 3.05 65.9567 3.05 60.5867ZM7.02 82.0867C7.02 82.9267 7.7 83.6167 8.55 83.6167C12.86 83.6167 15.12 82.4466 17.12 81.4066C19.05 80.4066 20.72 79.5366 24.29 79.5366C27.86 79.5366 29.52 80.3966 31.46 81.4066C33.46 82.4466 35.72 83.6167 40.03 83.6167C44.34 83.6167 46.6 82.4466 48.6 81.4066C50.53 80.4066 52.2 79.5366 55.76 79.5366C59.32 79.5366 60.99 80.3966 62.93 81.4066C64.93 82.4466 67.19 83.6167 71.5 83.6167C75.81 83.6167 78.07 82.4466 80.07 81.4066C82 80.4066 83.67 79.5366 87.23 79.5366C88.07 79.5366 88.76 78.8566 88.76 78.0066C88.76 77.1566 88.08 76.4766 87.23 76.4766C82.93 76.4766 80.66 77.6466 78.66 78.6866C76.73 79.6866 75.06 80.5567 71.5 80.5567C67.94 80.5567 66.27 79.6966 64.34 78.6866C62.34 77.6466 60.08 76.4766 55.77 76.4766C51.46 76.4766 49.2 77.6466 47.2 78.6866C45.27 79.6866 43.6 80.5567 40.03 80.5567C36.46 80.5567 34.8 79.6966 32.86 78.6866C30.86 77.6466 28.6 76.4766 24.29 76.4766C19.98 76.4766 17.72 77.6466 15.72 78.6866C13.79 79.6866 12.12 80.5567 8.55 80.5567C7.71 80.5567 7.02 81.2367 7.02 82.0867ZM7.02 90.2266C7.02 91.0666 7.7 91.7566 8.55 91.7566C12.86 91.7566 15.12 90.5866 17.12 89.5466C19.05 88.5466 20.72 87.6767 24.29 87.6767C27.86 87.6767 29.52 88.5366 31.46 89.5466C33.46 90.5866 35.72 91.7566 40.03 91.7566C44.34 91.7566 46.6 90.5866 48.6 89.5466C50.53 88.5466 52.2 87.6767 55.76 87.6767C59.32 87.6767 60.99 88.5366 62.93 89.5466C64.93 90.5866 67.19 91.7566 71.5 91.7566C75.81 91.7566 78.07 90.5866 80.07 89.5466C82 88.5466 83.67 87.6767 87.23 87.6767C88.07 87.6767 88.76 86.9967 88.76 86.1467C88.76 85.2967 88.08 84.6167 87.23 84.6167C82.93 84.6167 80.66 85.7866 78.66 86.8266C76.73 87.8266 75.06 88.6966 71.5 88.6966C67.94 88.6966 66.27 87.8366 64.34 86.8266C62.34 85.7866 60.08 84.6167 55.77 84.6167C51.46 84.6167 49.2 85.7866 47.2 86.8266C45.27 87.8266 43.6 88.6966 40.03 88.6966C36.46 88.6966 34.8 87.8366 32.86 86.8266C30.86 85.7866 28.6 84.6167 24.29 84.6167C19.98 84.6167 17.72 85.7866 15.72 86.8266C13.79 87.8266 12.12 88.6966 8.55 88.6966C7.71 88.6966 7.02 89.3766 7.02 90.2266Z" fill="black"/>
</svg>
