<svg width="108" height="80" viewBox="0 0 108 80" fill="none" xmlns="http://www.w3.org/2000/svg">
<path d="M77.84 46.7299C76.54 46.7299 75.2801 46.8999 74.0601 47.1799L72.23 41.7299V41.7099L69.5301 33.6699L74.07 34.1799C76.57 34.4599 78.84 32.66 79.13 30.16C79.4 27.66 77.6 25.3899 75.1 25.1099L63.37 23.7699L55.52 15.16C54.57 14.14 53.23 13.5999 51.87 13.6899C50.48 13.7699 49.22 14.4799 48.41 15.6199L36.29 32.9C35.56 33.94 35.3 35.2499 35.57 36.4899C35.84 37.7399 36.63 38.8299 37.72 39.4499L40.38 41.0099L36.35 48.1699C34.29 47.2399 32.01 46.72 29.61 46.72C20.5 46.72 13.1 54.1299 13.1 63.2299C13.1 72.3299 20.51 79.7399 29.61 79.7399C37.44 79.7399 44 74.2599 45.69 66.9299C45.74 67.2699 45.82 67.6099 45.95 67.9399C46.4 69.0699 47.26 69.9599 48.38 70.4399C48.96 70.6899 49.57 70.8199 50.2 70.8199C52.02 70.8199 53.66 69.7399 54.4 68.0599L59.01 57.3899L70.17 45.1399L71.18 48.15C65.39 50.72 61.34 56.5099 61.34 63.2399C61.34 72.3499 68.75 79.7499 77.85 79.7499C86.95 79.7499 94.36 72.3399 94.36 63.2399C94.36 54.1399 86.95 46.7299 77.85 46.7299H77.84ZM67.2 36.3099L50.55 36.41L46.61 34.1L52.61 25.5499L57.76 31.1999C58.51 32.0299 59.53 32.55 60.62 32.66L66.19 33.29L67.2 36.2999V36.3099ZM50.43 54.1899L47.71 45.3299L52.93 48.4L50.43 54.1899ZM43.01 42.5699L43.82 43.0499L48.57 58.4999L47.18 61.7299H46.04C45.58 56.7499 42.9 52.3999 39 49.6899L43.01 42.5799V42.5699ZM42.98 61.72H32.21L37.49 52.35C40.47 54.52 42.54 57.87 42.98 61.72ZM29.61 76.71C22.18 76.71 16.14 70.6699 16.14 63.2399C16.14 55.8099 22.18 49.7699 29.61 49.7699C31.47 49.7699 33.24 50.1499 34.86 50.8299L28.29 62.4899C28.02 62.9599 28.03 63.5399 28.3 64.0099C28.57 64.4799 29.07 64.7599 29.61 64.7599H42.98C42.22 71.4699 36.52 76.6999 29.6 76.6999L29.61 76.71ZM51.6 66.85C51.27 67.61 50.37 67.99 49.58 67.65C49.21 67.49 48.92 67.1999 48.78 66.8199C48.63 66.4399 48.64 66.03 48.8 65.65L49.58 63.84C49.58 63.84 49.58 63.8199 49.59 63.8099L56.26 48.3599C56.56 47.6599 56.3 46.8299 55.64 46.4499L39.26 36.8299C38.9 36.6199 38.64 36.27 38.55 35.85C38.46 35.44 38.55 35.01 38.79 34.66L50.91 17.3899C51.18 17.0099 51.59 16.7799 52.06 16.7499C52.09 16.7499 52.13 16.7499 52.16 16.7499C52.59 16.7499 52.99 16.9299 53.28 17.2399L61.51 26.2699C61.76 26.5399 62.1 26.7199 62.46 26.7599L74.76 28.16C75.59 28.25 76.2 29.01 76.11 29.84C76.01 30.67 75.25 31.2699 74.42 31.1799L60.97 29.66C60.61 29.62 60.28 29.4499 60.03 29.1799L53.59 22.1199C53.28 21.7799 52.83 21.5999 52.37 21.6299C51.91 21.6599 51.49 21.8999 51.22 22.2699L43.18 33.7299C42.94 34.0799 42.85 34.5099 42.94 34.9299C43.03 35.3399 43.29 35.6999 43.66 35.9199L59.5 45.22C60.16 45.61 60.43 46.4399 60.13 47.1399L51.61 66.8899L51.6 66.85ZM62.7 48.7999L62.91 48.3099C63.82 46.1999 63.0201 43.7299 61.03 42.5599L55.68 39.4199L68.21 39.35L69.04 41.8299L62.69 48.7999H62.7ZM77.83 76.71C70.4 76.71 64.36 70.6699 64.36 63.2399C64.36 57.8499 67.55 53.2099 72.13 51.0499L76.38 63.72C76.59 64.36 77.19 64.7599 77.82 64.7599C77.98 64.7599 78.14 64.7299 78.3 64.6799C79.1 64.4099 79.53 63.5499 79.26 62.7499L75.01 50.0699C75.92 49.8699 76.86 49.7699 77.82 49.7699C85.25 49.7699 91.29 55.8099 91.29 63.2399C91.29 70.6699 85.25 76.6999 77.83 76.6999V76.71ZM62.43 16.7399C66.86 16.7399 70.47 13.1299 70.47 8.69994C70.47 4.26994 66.86 0.659963 62.43 0.659963C58 0.659963 54.39 4.26994 54.39 8.69994C54.39 13.1299 58 16.7399 62.43 16.7399ZM62.43 3.70995C65.18 3.70995 67.42 5.94994 67.42 8.69994C67.42 11.4499 65.18 13.6899 62.43 13.6899C59.68 13.6899 57.44 11.4499 57.44 8.69994C57.44 5.94994 59.68 3.70995 62.43 3.70995Z" fill="black"/>
<path d="M17.3702 0.00481178C17.7995 0.0393026 18.1932 0.256604 18.4512 0.601491L29.8135 15.8036L36.6387 10.1083L36.7276 10.039C37.1836 9.71294 37.7879 9.66749 38.291 9.92864L42.9912 12.3691C43.7263 12.7508 44.0126 13.6564 43.6309 14.3915C43.249 15.1264 42.3435 15.4128 41.6084 15.0312L37.795 13.0507L30.5215 19.122C30.2055 19.3858 29.7946 19.5077 29.3858 19.4599C28.9768 19.4119 28.605 19.1979 28.3584 18.8681L17.0684 3.76262L2.543 17.8183C1.94764 18.3941 0.997898 18.3784 0.42191 17.7831C-0.154157 17.1878 -0.138279 16.2381 0.457067 15.662L16.2071 0.421804L16.3282 0.316335C16.6226 0.0869852 16.9943 -0.0253225 17.3702 0.00481178Z" fill="black"/>
<path d="M7.49035 9.08342C8.2839 8.84606 9.11903 9.29672 9.35656 10.0903L10.839 15.0414L15.6661 9.89397L15.7921 9.77483C16.0998 9.51466 16.5015 9.38713 16.9073 9.42717C17.3711 9.47294 17.7871 9.73175 18.0333 10.1274L20.9073 14.7465L23.7169 10.8871C24.2044 10.2174 25.1429 10.0697 25.8126 10.5571C26.4824 11.0446 26.6302 11.983 26.1427 12.6528L22.0226 18.3129C21.729 18.716 21.2543 18.9471 20.756 18.9291C20.2574 18.911 19.7998 18.6457 19.5362 18.2221L16.5177 13.3705L11.2443 18.9955C10.8772 19.387 10.3291 19.5529 9.80675 19.4301C9.28429 19.3071 8.86692 18.914 8.713 18.3998L6.48351 10.9496C6.24614 10.1561 6.6968 9.32095 7.49035 9.08342Z" fill="black"/>
<path d="M39.6173 18.162C40.2179 17.5919 41.167 17.6164 41.7374 18.2167C42.3079 18.8174 42.2834 19.7673 41.6827 20.3378L31.7433 29.7773C31.3042 30.1942 30.6574 30.3063 30.1036 30.0615L22.2931 26.6064L8.65929 34.3251C7.93838 34.7333 7.0225 34.4796 6.61437 33.7587C6.20653 33.0379 6.46017 32.1229 7.18078 31.7148L21.4708 23.6249L21.63 23.5468C22.0079 23.3883 22.437 23.3907 22.8165 23.5585L30.4015 26.913L39.6173 18.162Z" fill="black"/>
<path d="M105.049 2.98144C105.728 2.50624 106.663 2.67061 107.138 3.34862C107.614 4.02702 107.449 4.963 106.771 5.43847L86.311 19.7783C85.7568 20.1668 85.011 20.1359 84.4907 19.7031L81.0171 16.8125L70.4858 22.1289C69.7463 22.5021 68.8445 22.2053 68.4712 21.4658C68.0979 20.7263 68.3947 19.8245 69.1343 19.4512L80.5444 13.6914L80.645 13.6445C81.1569 13.4319 81.7484 13.5186 82.1792 13.8769L85.5278 16.6631L105.049 2.98144Z" fill="black"/>
<path d="M96.7979 24.172C97.3291 23.9438 97.9442 24.0409 98.3789 24.422L106.898 31.8917C107.521 32.4378 107.584 33.386 107.038 34.0089C106.492 34.6318 105.544 34.6937 104.921 34.1476L97.1123 27.3009L85.3418 32.3585C84.5809 32.6852 83.6992 32.3331 83.3721 31.5724C83.0451 30.8112 83.3971 29.9287 84.1582 29.6017L96.7979 24.172Z" fill="black"/>
</svg>
