<svg width="93" height="80" viewBox="0 0 93 80" fill="none" xmlns="http://www.w3.org/2000/svg">
<path d="M76 46.0699C74.7 46.0699 73.44 46.24 72.22 46.52L70.39 41.0699V41.05L67.69 33.0099L72.23 33.52C74.73 33.8 77 32 77.29 29.5C77.56 27 75.76 24.73 73.26 24.45L61.53 23.11L53.68 14.5C52.73 13.48 51.39 12.94 50.03 13.03C48.64 13.11 47.38 13.82 46.57 14.96L34.45 32.24C33.72 33.28 33.46 34.59 33.73 35.83C34 37.08 34.79 38.17 35.88 38.79L38.54 40.35L34.51 47.5099C32.45 46.5799 30.17 46.06 27.77 46.06C18.66 46.06 11.26 53.4699 11.26 62.5699C11.26 71.6699 18.67 79.08 27.77 79.08C35.6 79.08 42.16 73.6 43.85 66.27C43.9 66.61 43.98 66.95 44.11 67.28C44.56 68.41 45.42 69.3 46.54 69.78C47.12 70.03 47.73 70.16 48.36 70.16C50.18 70.16 51.82 69.08 52.56 67.4L57.17 56.73L68.33 44.48L69.34 47.49C63.55 50.06 59.5 55.85 59.5 62.58C59.5 71.69 66.91 79.09 76.01 79.09C85.11 79.09 92.52 71.68 92.52 62.58C92.52 53.48 85.11 46.0699 76.01 46.0699H76ZM65.36 35.65L48.71 35.75L44.77 33.44L50.77 24.89L55.92 30.54C56.67 31.37 57.69 31.89 58.78 32L64.35 32.63L65.36 35.64V35.65ZM48.6 53.53L45.88 44.67L51.1 47.74L48.6 53.53ZM41.17 41.91L41.98 42.39L46.73 57.84L45.34 61.0699H44.2C43.74 56.0899 41.06 51.74 37.16 49.03L41.17 41.92V41.91ZM41.15 61.06H30.38L35.66 51.69C38.64 53.86 40.71 57.21 41.15 61.06ZM27.77 76.05C20.34 76.05 14.3 70.01 14.3 62.58C14.3 55.15 20.34 49.11 27.77 49.11C29.63 49.11 31.4 49.49 33.02 50.17L26.45 61.83C26.18 62.3 26.19 62.88 26.46 63.35C26.73 63.82 27.23 64.1 27.77 64.1H41.14C40.38 70.81 34.68 76.04 27.76 76.04L27.77 76.05ZM49.76 66.19C49.43 66.95 48.53 67.33 47.74 66.99C47.37 66.83 47.08 66.54 46.94 66.16C46.79 65.78 46.8 65.37 46.96 64.99L47.74 63.18C47.74 63.18 47.74 63.16 47.75 63.15L54.42 47.7C54.72 47 54.46 46.17 53.8 45.79L37.42 36.17C37.06 35.96 36.8 35.61 36.71 35.19C36.62 34.78 36.71 34.35 36.95 34L49.07 16.73C49.34 16.35 49.75 16.12 50.22 16.09C50.25 16.09 50.29 16.09 50.32 16.09C50.75 16.09 51.15 16.27 51.44 16.58L59.67 25.61C59.92 25.88 60.26 26.06 60.62 26.1L72.92 27.5C73.75 27.59 74.36 28.35 74.27 29.18C74.17 30.01 73.41 30.61 72.58 30.52L59.13 29C58.77 28.96 58.44 28.79 58.19 28.52L51.75 21.46C51.44 21.12 50.99 20.94 50.53 20.97C50.07 21 49.65 21.24 49.38 21.61L41.34 33.0699C41.1 33.4199 41.01 33.85 41.1 34.27C41.19 34.68 41.45 35.0399 41.82 35.2599L57.66 44.56C58.32 44.95 58.59 45.78 58.29 46.48L49.77 66.23L49.76 66.19ZM60.86 48.14L61.07 47.65C61.98 45.54 61.18 43.07 59.19 41.9L53.84 38.7599L66.37 38.69L67.2 41.17L60.85 48.14H60.86ZM76 76.05C68.57 76.05 62.53 70.01 62.53 62.58C62.53 57.19 65.72 52.55 70.3 50.39L74.55 63.06C74.76 63.7 75.36 64.1 75.99 64.1C76.15 64.1 76.31 64.07 76.47 64.02C77.27 63.75 77.7 62.89 77.43 62.09L73.18 49.41C74.09 49.21 75.03 49.11 75.99 49.11C83.42 49.11 89.46 55.15 89.46 62.58C89.46 70.01 83.42 76.04 76 76.04V76.05ZM60.6 16.08C65.03 16.08 68.64 12.47 68.64 8.03998C68.64 3.60998 65.03 0 60.6 0C56.17 0 52.56 3.60998 52.56 8.03998C52.56 12.47 56.17 16.08 60.6 16.08ZM60.6 3.04999C63.35 3.04999 65.59 5.28998 65.59 8.03998C65.59 10.79 63.35 13.03 60.6 13.03C57.85 13.03 55.61 10.79 55.61 8.03998C55.61 5.28998 57.85 3.04999 60.6 3.04999Z" fill="black"/>
<path d="M0.650787 13.9188C1.29215 13.3945 2.2368 13.4894 2.76114 14.1307L15.9809 30.3007C16.5052 30.942 16.4103 31.8867 15.769 32.411C15.1276 32.9352 14.1829 32.8404 13.6586 32.1991L0.438873 16.0292C-0.0854365 15.3878 0.00944078 14.4432 0.650787 13.9188Z" fill="black"/>
<path d="M0.393951 28.7474C0.886783 28.0815 1.82671 27.9411 2.49258 28.4339L9.84219 33.8743C10.508 34.3671 10.6483 35.3061 10.1557 35.972C9.66287 36.6378 8.72389 36.7782 8.05801 36.2855L0.707428 30.846C0.041561 30.3532 -0.0988535 29.4133 0.393951 28.7474Z" fill="black"/>
<path d="M19.2379 24.2748C19.9699 23.887 20.8774 24.1659 21.2652 24.8978L25.5455 32.9779C25.9332 33.7099 25.6542 34.6174 24.9224 35.0052C24.1904 35.393 23.2819 35.1143 22.8941 34.3822L18.6148 26.3021C18.2271 25.5701 18.5059 24.6626 19.2379 24.2748Z" fill="black"/>
<path d="M15.312 17.3102C16.03 16.8971 16.9466 17.144 17.3598 17.8619L18.85 20.4518C19.2631 21.1699 19.0164 22.0875 18.2983 22.5006C17.5802 22.9137 16.6626 22.6659 16.2495 21.9479L14.7602 19.358C14.3471 18.64 14.594 17.7233 15.312 17.3102Z" fill="black"/>
<path d="M12.3998 37.5206C12.8965 36.8578 13.8365 36.7233 14.4994 37.2198L16.8891 39.0098C17.552 39.5065 17.6874 40.4464 17.1908 41.1094C16.6942 41.7724 15.7543 41.9067 15.0912 41.4102L12.7006 39.6202C12.0378 39.1235 11.9033 38.1835 12.3998 37.5206Z" fill="black"/>
<path d="M12.4 13.55C13.7255 13.55 14.8 12.4754 14.8 11.15C14.8 9.82448 13.7255 8.75 12.4 8.75C11.0745 8.75 10 9.82448 10 11.15C10 12.4754 11.0745 13.55 12.4 13.55Z" fill="black"/>
<path d="M23.88 43.49C25.2055 43.49 26.28 42.4155 26.28 41.09C26.28 39.7645 25.2055 38.69 23.88 38.69C22.5545 38.69 21.48 39.7645 21.48 41.09C21.48 42.4155 22.5545 43.49 23.88 43.49Z" fill="black"/>
<path d="M2.39999 43.49C3.72548 43.49 4.80002 42.4155 4.80002 41.09C4.80002 39.7645 3.72548 38.69 2.39999 38.69C1.07451 38.69 0 39.7645 0 41.09C0 42.4155 1.07451 43.49 2.39999 43.49Z" fill="black"/>
</svg>
