<svg width="95" height="102" viewBox="0 0 95 102" fill="none" xmlns="http://www.w3.org/2000/svg">
<path d="M89.6951 70.11C90.3651 70.11 90.945 70.49 91.335 71.07C91.625 71.65 91.625 72.32 91.235 72.9C90.175 75.02 82.095 76.36 67.095 76.94L65.555 74.63C65.265 74.05 65.075 73.48 65.175 72.8L65.465 70.11H89.7051M89.6951 67.11H62.755L62.465 69.79L62.185 72.44C61.985 73.98 62.475 75.19 62.865 75.97L62.945 76.14L63.045 76.3L64.585 78.61L65.5151 80.01L67.195 79.95C89.165 79.1 92.5651 76.77 93.8251 74.41C94.6951 72.99 94.7551 71.26 94.0051 69.74L93.925 69.57L93.8251 69.41C92.8551 67.95 91.3451 67.11 89.6951 67.11Z" fill="black"/>
<path d="M65.045 20.45C65.955 20.45 66.855 20.81 67.475 21.54C68.625 22.89 68.625 24.91 67.285 26.16C67.185 26.26 66.995 26.45 66.615 26.74L65.745 34.82C66.515 35.4 67.095 36.26 67.185 37.22C67.375 38.76 66.415 40.11 65.165 40.59L61.7051 72.43C61.5151 73.87 61.895 75.32 62.665 76.57L64.2051 78.78C64.9751 80.03 65.355 81.47 65.165 82.92L64.0151 93.79C63.8351 96.21 61.725 98.05 59.335 98.05C59.165 98.05 58.995 98.05 58.815 98.02L55.835 97.73C53.235 97.54 51.315 95.13 51.605 92.54L52.7551 81.67C52.855 80.23 53.525 78.88 54.585 77.82L56.605 75.9C57.665 74.84 58.245 73.5 58.435 72.05L61.805 40.6L58.8251 40.22C55.2651 39.74 51.805 38.49 48.725 36.66L46.805 48.2L51.3251 52.34C52.1951 53.11 52.575 54.26 52.475 55.42L51.125 70.04H55.2651L55.0751 71.68C54.9751 72.26 54.6951 72.83 54.2051 73.32L52.185 75.24C51.605 75.82 51.035 76.49 50.645 77.16H47.275C19.475 77.16 4.66502 75.62 3.22502 72.74C2.93502 72.07 2.93506 71.39 3.32506 70.82C3.70506 70.24 4.28501 69.95 4.96501 69.95H29.585L37.285 49.37L35.935 48.12L35.645 47.83C35.455 47.54 35.265 47.16 35.065 46.87C34.875 46.29 34.775 45.72 34.775 45.04C34.875 44.94 34.875 44.75 34.875 44.66L37.475 28.79V28.6C38.145 25.6 40.825 23.54 43.785 23.54C44.245 23.54 44.705 23.59 45.175 23.69C46.695 24.09 48.225 24.29 49.795 24.29C50.115 24.29 50.425 24.29 50.745 24.27C59.495 23.98 62.865 21.29 62.865 21.29C63.485 20.76 64.275 20.49 65.055 20.49M62.5751 34.04L63.155 28.65C60.755 29.71 57.095 30.67 51.995 30.96C54.305 32.31 56.9951 33.27 59.6951 33.65L62.585 34.03M37.365 70.11H43.615L44.865 56.64L43.035 54.91L37.355 70.11M65.045 17.45C63.565 17.45 62.1351 17.96 61.0151 18.88C60.7051 19.09 57.675 21 50.645 21.23H50.585C50.315 21.24 50.045 21.25 49.785 21.25C48.475 21.25 47.205 21.09 45.925 20.75H45.865L45.805 20.72C45.135 20.57 44.4451 20.5 43.7651 20.5C39.3651 20.5 35.485 23.62 34.525 27.91L34.4551 28.23V28.51L31.995 43.53L31.7551 43.77V45.01C31.7551 45.98 31.8951 46.89 32.1951 47.79L32.3251 48.17L32.545 48.5C32.605 48.59 32.665 48.7 32.725 48.81C32.855 49.04 32.995 49.27 33.125 49.47L33.285 49.72L33.735 50.17L27.475 66.93H4.93504C3.24504 66.93 1.73504 67.73 0.805038 69.13C-0.124962 70.52 -0.254948 72.26 0.445052 73.9L0.475021 73.98L0.51506 74.06C1.61506 76.25 4.50502 77.93 15.035 79C22.535 79.76 33.375 80.15 47.245 80.15H49.925C49.835 80.56 49.765 80.98 49.735 81.41L48.585 92.23C48.355 94.28 48.995 96.4 50.335 98.01C51.665 99.61 53.505 100.57 55.545 100.73L58.495 101.02C58.735 101.05 59.015 101.06 59.305 101.06C63.295 101.06 66.655 98 66.965 94.07L68.115 83.28C68.375 81.22 67.905 79.12 66.725 77.22L66.685 77.15L66.6351 77.08L65.155 74.95C64.855 74.44 64.535 73.68 64.645 72.85V72.77L67.9551 42.37C69.5051 41.05 70.375 38.99 70.125 36.91C70.005 35.78 69.555 34.68 68.835 33.75L69.425 28.24C71.765 25.92 71.905 22.17 69.715 19.61C68.555 18.25 66.8351 17.47 65.0051 17.47L65.045 17.45ZM50.025 47.06L51.0151 41.13C53.4151 42.13 55.915 42.82 58.425 43.16H58.5151L55.965 67.01H54.425L55.475 55.66C55.655 53.47 54.8751 51.44 53.3251 50.06L50.035 47.05L50.025 47.06Z" fill="black"/>
<path d="M47.1951 3.00998C47.6751 3.00998 48.165 3.05998 48.645 3.16998C52.295 3.96998 54.6151 7.53997 53.8151 11.19C53.1251 14.35 50.3551 16.52 47.2451 16.52C46.7651 16.52 46.2751 16.47 45.7951 16.36C42.2351 15.56 39.9151 11.99 40.6251 8.34C41.3151 5.18 44.0851 3.00998 47.1951 3.00998ZM47.1951 0.00997925C42.5951 0.00997925 38.6951 3.16997 37.6951 7.68997V7.72L37.6851 7.75C36.6751 12.95 40.0151 18.12 45.1351 19.27C45.8451 19.42 46.5451 19.5 47.2451 19.5C51.8451 19.5 55.7451 16.34 56.7451 11.82C57.8951 6.57998 54.555 1.37998 49.285 0.22998C48.595 0.0799805 47.8851 0 47.1851 0L47.1951 0.00997925Z" fill="black"/>
</svg>
