<svg xmlns="http://www.w3.org/2000/svg" viewBox="0 0 24 24" fill="#4a6bc5">
  <circle cx="14" cy="4" r="2.5"/>
  <path d="M17 8c-.5-.6-1.2-.8-2-.6l-3 .8-1.8-1.5c-.7-.6-1.7-.4-2.2.3L6 10c-.4.6-.3 1.4.3 1.8.6.4 1.4.3 1.8-.3l1.2-1.6 1.2 1-2.2 3.2c-.5.7-.3 1.6.3 2.1L11 18" fill="none" stroke="#4a6bc5" stroke-width="1.8" stroke-linecap="round" stroke-linejoin="round"/>
  <path d="M13.5 13l2 2.5h2.5" fill="none" stroke="#4a6bc5" stroke-width="1.8" stroke-linecap="round" stroke-linejoin="round"/>
  <rect x="7" y="19" width="10" height="1.5" rx=".75" fill="#4a6bc5"/>
  <circle cx="8.5" cy="22" r="1.5"/>
  <circle cx="12" cy="22" r="1.5"/>
  <circle cx="15.5" cy="22" r="1.5"/>
</svg>
