<svg width="90" height="94" viewBox="0 0 90 94" fill="none" xmlns="http://www.w3.org/2000/svg">
<path d="M50.4947 84.9543C49.8647 84.5643 49.8847 84.0744 49.8147 83.4344C48.9747 76.2644 50.6347 67.8844 50.1847 60.6244C49.9547 59.5944 43.4647 52.3243 42.5747 51.9543C41.8347 51.6443 41.9847 52.2443 41.8247 52.5143C40.0647 55.5043 38.0747 61.5744 36.0047 63.8544C33.9347 66.1344 23.1447 71.1143 22.3347 73.0843C22.6147 78.0843 27.5147 84.4844 19.9347 86.0844L7.68471 69.3343C8.21471 68.5743 8.9447 67.9944 9.6647 67.4344C13.8547 64.1644 24.1447 59.5543 26.9747 56.1443C27.8547 55.0843 34.5347 42.6744 34.9947 41.2844C35.4947 39.7744 35.2447 38.6544 35.9747 36.9844C37.8547 32.6344 43.1147 27.5243 45.4447 23.1443C45.6547 22.4843 41.1347 22.2844 40.1747 22.7144C38.6947 23.3844 34.1447 29.6744 32.4847 31.2944C27.1947 36.4544 20.8947 31.3644 25.4747 25.1644C27.2447 22.7644 33.0047 15.9544 35.1047 14.1244C36.1347 13.2244 37.2847 12.9144 38.6047 12.7944C41.6847 12.5044 52.1747 13.1644 55.2447 13.7944C62.7247 15.3444 67.2747 23.7744 72.7347 28.4244C76.5547 29.3444 82.4947 28.3844 86.0547 29.1844C90.3447 30.1444 90.3747 37.7444 85.2747 38.3444C82.0647 38.7244 73.2147 38.3044 69.9047 37.8544C66.0647 37.3344 63.4847 32.7044 60.6247 30.4244L51.6647 43.4944L51.8147 44.4744C53.8247 47.3744 60.2547 52.7644 61.0847 55.9144C62.1147 59.8244 60.2747 72.7644 61.6947 74.9944C63.7147 76.8544 69.1147 76.9543 70.7347 78.8243C71.7747 80.0243 72.5247 83.8344 71.1947 84.9644H50.5147L50.4947 84.9543ZM52.9147 69.1144L58.4447 68.7043L58.6147 57.0344L48.0547 43.8144L59.5047 27.0743C60.4147 26.4943 61.3847 27.4843 62.1047 28.0143C64.3447 29.6843 67.6547 34.4744 70.0347 35.0444L84.7947 35.6644L85.9447 35.0644C86.5647 34.2844 86.5347 33.1243 85.9447 32.3343C85.0547 31.2143 80.3447 31.8244 78.6447 31.7144C76.3647 31.5644 73.7847 31.2044 71.4947 30.9444C65.6447 26.4244 61.4047 17.4543 53.5647 16.3243C50.0647 15.8143 44.8847 15.5744 41.2647 15.4244C39.8547 15.3644 38.2547 15.2444 37.0747 16.1144L27.1947 27.3444C25.6447 29.0544 26.9547 31.6544 29.1447 30.6244L39.1447 19.9344L49.3947 20.2844C49.4647 21.0544 49.4247 21.7244 49.1547 22.4644C47.5547 26.7644 40.6647 33.2944 38.5847 37.8544C37.2147 40.8744 37.8347 42.6644 39.7247 45.1244C41.2747 47.1544 52.9147 58.0844 52.9147 59.2144V69.1144ZM24.7747 67.3343C25.2447 67.4743 25.6347 67.3044 26.0547 67.1244C26.7147 66.8544 33.0747 62.7944 33.5747 62.3144C34.4447 61.4844 40.0847 50.2444 40.0347 49.5243L35.9747 44.9144C33.6647 48.3244 31.6347 54.9243 29.1647 57.8943C28.0747 59.2043 22.1647 62.2944 22.1347 62.7244L24.7847 67.3243L24.7747 67.3343ZM21.2347 82.7444C21.3847 77.4344 16.4447 72.2643 22.9847 68.8843L19.6947 64.2944C17.2347 65.9744 14.6547 67.4544 12.1147 69.0044C11.7647 69.2144 11.3947 68.8944 11.5447 69.7544C11.6947 70.6144 17.8047 79.1544 18.8447 80.5044L21.2247 82.7444H21.2347ZM58.6347 71.7544H52.4747V81.8744H68.7547L68.4947 80.5143C63.6947 79.0043 57.5247 78.4244 58.6347 71.7544Z" fill="black"/>
<path d="M65.5647 0.144335C72.9147 -1.11566 78.8047 6.10438 75.1647 12.8144C71.1947 20.1344 59.9547 18.2944 58.8247 9.72435C58.2847 5.65435 61.3947 0.854325 65.5647 0.134325V0.144335ZM66.8947 2.75438C59.8647 3.57438 59.8847 13.9444 66.7847 14.5544C68.4847 14.7044 69.3447 14.6244 70.7447 13.6744C75.9347 10.1044 72.7247 2.07438 66.9047 2.75438H66.8947Z" fill="black"/>
<path d="M73.8947 92.7343C70.9447 95.9643 64.5747 92.0244 67.4347 87.8144C70.9747 82.5944 77.6747 88.6043 73.8947 92.7343ZM71.7647 91.0443C72.6247 89.6743 71.9947 88.4443 70.3047 88.4643L69.6247 91.1043L71.7547 91.0443H71.7647Z" fill="black"/>
<path d="M59.8347 85.9144C64.9647 84.7744 66.6047 92.2944 62.6247 93.5544C56.0047 95.6344 54.9547 87.0044 59.8347 85.9144ZM62.1047 88.9544C61.4347 87.8844 58.3147 88.7144 59.7047 90.6944C60.6747 92.0744 63.0347 90.4444 62.1047 88.9544Z" fill="black"/>
<path d="M2.6347 68.7644C9.7247 67.1744 9.5447 78.2044 2.7447 76.3844C-1.0853 75.3544 -0.705298 69.5144 2.6347 68.7644ZM3.4247 71.3144C2.2547 71.6644 2.53471 74.4744 4.29471 73.9444C5.46471 73.5944 5.1847 70.7844 3.4247 71.3144Z" fill="black"/>
<path d="M49.7247 85.9043C54.8247 84.8743 56.5247 92.2744 52.5047 93.5544C45.8547 95.6644 45.0347 86.8543 49.7247 85.9043ZM51.9947 88.9543C51.3347 88.0343 48.9547 88.8644 49.3947 90.4444C49.8647 92.1544 53.1847 90.6243 51.9947 88.9543Z" fill="black"/>
<path d="M12.5947 85.9844C16.0347 82.5444 21.8347 87.5344 18.4047 91.5744C14.7647 95.8544 8.6947 89.8844 12.5947 85.9844ZM14.8747 87.5944C13.7947 87.9044 13.8347 90.6544 15.6647 90.1644C17.7247 89.6144 16.4047 87.1544 14.8747 87.5944Z" fill="black"/>
<path d="M9.2047 76.7244C15.1347 76.4144 14.4747 86.2944 8.46471 84.7544C3.82471 83.5644 5.0847 76.9444 9.2047 76.7244ZM10.6347 81.8344C11.8247 80.1644 8.51471 78.6444 8.03471 80.3444C7.59471 81.9244 9.9747 82.7444 10.6347 81.8344Z" fill="black"/>
</svg>
