<svg xmlns="http://www.w3.org/2000/svg" viewBox="0 0 24 24" fill="#4a6bc5">
  <circle cx="12" cy="4" r="2.5"/>
  <path d="M9 8.5h6c.8 0 1.5.7 1.5 1.5v3.5l-3 2.5v-3h-3v3l-3-2.5V10c0-.8.7-1.5 1.5-1.5z"/>
  <path d="M2.5 18c0 0 4-2.5 9.5-2.5S21.5 18 21.5 18" fill="none" stroke="#4a6bc5" stroke-width="1.8" stroke-linecap="round"/>
  <path d="M4 20c2 2 5 2.5 8 2.5S18 22 20 20" fill="none" stroke="#4a6bc5" stroke-width="1.8" stroke-linecap="round"/>
  <path d="M5 8l3.5 3.5M19 8l-3.5 3.5" stroke="#4a6bc5" stroke-width="1.3" stroke-linecap="round"/>
  <ellipse cx="4" cy="7" rx="1.5" ry=".7"/>
  <ellipse cx="20" cy="7" rx="1.5" ry=".7"/>
</svg>
