<svg width="98" height="94" viewBox="0 0 98 94" fill="none" xmlns="http://www.w3.org/2000/svg">
<path d="M65.0471 16.73C63.7871 16.73 62.5671 16.45 61.4271 15.9C58.5471 14.52 56.6871 11.55 56.6871 8.35999C56.6871 7.09999 56.9671 5.87999 57.5171 4.73999C58.8971 1.85999 61.8671 0 65.0571 0C66.3171 0 67.5371 0.279987 68.6771 0.829987C71.5571 2.20999 73.4171 5.18 73.4171 8.37C73.4171 9.63 73.1371 10.85 72.5871 11.99C71.2071 14.87 68.2371 16.73 65.0471 16.73ZM65.0571 3.09C63.0371 3.09 61.1671 4.25999 60.2971 6.07999C59.9471 6.79999 59.7771 7.56999 59.7771 8.35999C59.7771 10.38 60.9471 12.25 62.7671 13.12C63.4871 13.47 64.2571 13.64 65.0471 13.64C67.0671 13.64 68.9371 12.47 69.8071 10.65C70.1571 9.92999 70.3271 9.16 70.3271 8.37C70.3271 6.35 69.1571 4.47999 67.3371 3.60999C66.6171 3.25999 65.8471 3.09 65.0571 3.09ZM78.0871 73.39C78.7871 72.91 78.9671 71.95 78.4871 71.24C78.1971 70.82 77.7271 70.57 77.2071 70.57C76.8971 70.57 76.5971 70.66 76.3371 70.84C76.2871 70.87 71.5071 74.11 66.4971 74.11C64.6871 74.11 63.0571 73.68 61.6471 72.84C59.2971 71.43 56.8871 70.71 54.4871 70.71C50.4071 70.71 47.8671 72.75 47.5871 72.98C46.9371 73.53 46.8471 74.5 47.3971 75.16C47.6871 75.51 48.1271 75.71 48.5771 75.71C48.9371 75.71 49.2871 75.58 49.5771 75.35C49.5971 75.33 51.4771 73.81 54.4871 73.81C56.3171 73.81 58.1871 74.38 60.0571 75.5C61.9471 76.64 64.1171 77.21 66.4971 77.21C72.4971 77.21 77.8671 73.56 78.0871 73.4V73.39ZM96.4871 89.75C97.1871 89.27 97.3671 88.31 96.8871 87.6C96.5971 87.18 96.1271 86.93 95.6071 86.93C95.2971 86.93 94.9971 87.02 94.7371 87.2C94.6871 87.23 89.9071 90.47 84.8971 90.47C83.0871 90.47 81.4571 90.04 80.0471 89.2C77.6971 87.79 75.2871 87.07 72.8871 87.07C68.8071 87.07 66.2671 89.11 65.9871 89.34C65.6671 89.61 65.4771 89.98 65.4371 90.39C65.3971 90.8 65.5271 91.2 65.7971 91.52C66.0871 91.87 66.5271 92.07 66.9771 92.07C67.3371 92.07 67.6871 91.94 67.9771 91.71C67.9971 91.69 69.8771 90.17 72.8871 90.17C74.7171 90.17 76.5871 90.74 78.4571 91.86C80.3471 93 82.5171 93.57 84.8971 93.57C90.8971 93.57 96.2671 89.92 96.4871 89.76V89.75ZM32.2171 71.62C31.7671 71.62 31.3371 71.42 31.0471 71.08C30.7771 70.77 30.6471 70.37 30.6771 69.96C30.7071 69.55 30.8971 69.17 31.2071 68.9L37.5671 63.44H26.0771C25.0771 63.44 24.0471 63.37 23.0171 63.22L22.8171 63.19L22.6571 63.31C18.7271 66.17 14.8171 67.62 11.0571 67.62C4.35714 67.62 0.517131 63.07 0.357131 62.88C0.0971312 62.56 -0.0328749 62.16 0.00712511 61.75C0.0471251 61.34 0.247143 60.97 0.557143 60.71C0.837143 60.48 1.18712 60.36 1.53712 60.36C1.99712 60.36 2.42713 60.56 2.72713 60.91C2.85713 61.06 5.87714 64.54 11.0571 64.54C13.1971 64.54 15.4671 63.93 17.8071 62.72L18.7671 62.22L17.7671 61.81C9.45714 58.4 4.09712 50.41 4.09712 41.46C4.09712 40.61 4.78713 39.92 5.63713 39.92H35.0371L35.1571 39.59C35.2471 39.35 35.3071 39.16 35.3971 38.98L46.3771 16.12C47.3071 14.19 49.2071 13 51.3471 13C52.5471 13 53.6871 13.38 54.6471 14.11L69.3171 25.15L69.5071 25.13L76.4071 24.64C76.6471 24.6 76.8371 24.58 77.0271 24.58C77.4771 24.58 77.9271 24.68 78.3171 24.87L79.9571 25.66C80.9971 26.16 81.6371 27.19 81.6371 28.34C81.6371 29.32 81.1471 30.24 80.3271 30.8L69.7071 39.92H89.4771C90.3271 39.92 91.0171 40.61 91.0171 41.46V61.91C91.0171 62.76 90.3271 63.45 89.4771 63.45H69.5471C68.6971 63.45 68.0071 62.76 68.0071 61.91C68.0071 61.06 68.6971 60.37 69.5471 60.37H87.9371V55.28H51.8371L45.9171 60.37H48.8971C49.7471 60.37 50.4371 61.06 50.4371 61.91C50.4371 62.76 49.7471 63.45 48.8971 63.45H42.3171L33.2271 71.26C32.9471 71.5 32.5871 71.63 32.2171 71.63V71.62ZM7.29713 43.55C8.35713 53.13 16.4371 60.35 26.0871 60.35H41.1671L47.0871 55.26H26.0771C25.2271 55.26 24.5371 54.57 24.5371 53.72C24.5371 52.87 25.2271 52.18 26.0771 52.18H50.6771L61.3671 43H7.22713L7.28712 43.56L7.29713 43.55ZM87.9271 52.17V42.99H66.1071L55.4171 52.17H87.9271ZM55.8671 38.92C55.8371 38.99 55.7871 39.05 55.7471 39.11L55.2171 39.89H64.9771L69.2671 36.2L68.7871 35.35C68.4471 35.46 68.1471 35.52 67.8671 35.52C67.2271 35.52 66.5871 35.31 66.0771 34.92L59.9871 30.33L55.8671 38.91V38.92ZM51.3471 16.07C50.6071 16.07 49.6471 16.43 49.1671 17.44L38.3771 39.9H53.7371L53.2071 39.12C52.8871 38.66 52.8471 38.08 53.0871 37.58L57.4371 28.52L54.9171 26.72C54.5071 26.43 54.2671 25.96 54.2671 25.46C54.2671 25.14 54.3671 24.83 54.5571 24.56C54.8471 24.15 55.3171 23.91 55.8171 23.91C56.1371 23.91 56.4471 24.01 56.7171 24.2L61.7371 27.77L67.8871 32.4L78.3771 28.29L77.0471 27.65L76.7971 27.68L69.9571 28.16C69.7171 28.2 69.5271 28.22 69.3471 28.22C68.6971 28.22 68.0571 28.01 67.5471 27.62L52.8171 16.53C52.2871 16.13 51.7371 16.04 51.3671 16.04L51.3471 16.07ZM59.6771 86.21C60.3771 85.73 60.5571 84.76 60.0771 84.06C59.7871 83.64 59.3071 83.39 58.8071 83.39C58.4971 83.39 58.1871 83.48 57.9371 83.66C57.8871 83.69 53.1571 86.93 48.0971 86.93C46.2871 86.93 44.6571 86.5 43.2471 85.66C40.8971 84.25 38.4871 83.53 36.0871 83.53C32.0071 83.53 29.4671 85.57 29.1871 85.8C28.5371 86.35 28.4471 87.32 28.9971 87.98C29.2871 88.33 29.7271 88.53 30.1771 88.53C30.5371 88.53 30.8871 88.4 31.1671 88.17C31.1871 88.15 33.0671 86.62 36.0871 86.62C37.9171 86.62 39.7871 87.19 41.6571 88.31C43.5471 89.45 45.7171 90.02 48.0971 90.02C54.0971 90.02 59.4671 86.37 59.6871 86.21H59.6771ZM59.3171 63.44C60.1671 63.44 60.8571 62.75 60.8571 61.9C60.8571 61.05 60.1671 60.36 59.3171 60.36H59.1171C58.2671 60.36 57.5771 61.05 57.5771 61.9C57.5771 62.75 58.2671 63.44 59.1171 63.44H59.3171ZM35.1371 78.03C35.4771 77.8 35.7071 77.44 35.7771 77.04C35.8471 76.64 35.7671 76.22 35.5271 75.88C35.2371 75.46 34.7671 75.21 34.2571 75.21C33.9471 75.21 33.6371 75.3 33.3771 75.48C33.1871 75.61 28.5471 78.74 23.5371 78.74C21.7271 78.74 20.0971 78.31 18.6871 77.47C16.3371 76.06 13.9271 75.34 11.5271 75.34C7.44714 75.34 4.90712 77.38 4.62712 77.61C3.97712 78.16 3.88712 79.13 4.43712 79.79C4.72712 80.14 5.16714 80.34 5.61714 80.34C5.97714 80.34 6.32714 80.21 6.61714 79.98C6.63714 79.96 8.51714 78.44 11.5271 78.44C13.3571 78.44 15.2271 79.01 17.0971 80.13C18.9871 81.27 21.1571 81.84 23.5371 81.84C29.5571 81.84 34.9071 78.19 35.1271 78.03H35.1371Z" fill="black"/>
</svg>
