<svg width="74" height="87" viewBox="0 0 74 87" fill="none" xmlns="http://www.w3.org/2000/svg">
<path d="M53.254 0.00999451C49.084 0.00999451 45.324 2.52 43.734 6.37C42.144 10.22 43.024 14.66 45.964 17.6C48.914 20.55 53.344 21.43 57.194 19.83C61.044 18.23 63.554 14.48 63.554 10.31C63.554 4.62 58.934 0.01 53.244 0L53.254 0.00999451ZM53.254 17.43C50.374 17.43 47.784 15.7 46.674 13.04C45.574 10.38 46.184 7.32 48.224 5.28C50.264 3.24 53.324 2.63 55.984 3.74C58.644 4.84 60.374 7.44 60.374 10.32C60.374 14.25 57.184 17.44 53.254 17.44V17.43Z" fill="black"/>
<path d="M71.934 36.65C73.074 35.64 73.774 34.21 73.854 32.69C73.944 31.18 73.424 29.69 72.414 28.57C70.364 26.36 66.944 26.14 64.614 28.06L57.224 34.22L55.174 29.73C53.644 26.43 51.134 23.66 47.994 21.83L43.614 19.21C39.594 16.78 34.754 16.06 30.194 17.22L18.354 19.08C17.604 19.24 16.874 19.51 16.204 19.89L6.28401 28.05C3.41401 29.75 2.44401 33.44 4.13401 36.32C5.81401 39.2 9.514 40.18 12.404 38.51L21.034 30.84L28.584 29.37L22.394 39.51C19.954 43.64 20.324 48.85 23.304 52.6L19.054 66.67L3.31401 74.77C1.92401 75.43 0.854007 76.63 0.344007 78.09C-0.195993 79.62 -0.0959967 81.3 0.614003 82.75C1.684 84.79 3.80401 86.07 6.10401 86.08C6.97401 86.08 7.834 85.88 8.624 85.51L26.064 77.07C28.714 75.75 30.674 73.35 31.464 70.49L34.644 61.2L38.444 63.91L32.784 76.43C31.794 78.75 32.274 81.43 33.994 83.26C35.724 85.09 38.374 85.72 40.744 84.86C42.394 84.27 43.724 83.03 44.424 81.43L51.364 65.3C53.064 61.22 51.764 56.51 48.224 53.87L40.334 47.93L46.224 39.06L50.684 44.96C51.854 46.47 53.584 47.44 55.484 47.64C57.374 47.84 59.284 47.27 60.744 46.05L71.884 36.68L71.914 36.65H71.934ZM28.434 69.51L28.404 69.62C27.864 71.62 26.514 73.29 24.664 74.22L7.25401 82.65C5.84401 83.28 4.18401 82.7 3.46401 81.34C3.14401 80.66 3.09401 79.87 3.34401 79.16C3.58401 78.48 4.084 77.94 4.724 77.64L21.714 68.9L25.914 55L31.934 59.29L28.434 69.52V69.51ZM69.834 34.26L58.714 43.62C57.914 44.28 56.884 44.59 55.854 44.48C54.824 44.37 53.874 43.85 53.234 43.03L46.074 33.55L36.034 48.66L46.324 56.41C48.694 58.18 49.564 61.32 48.444 64.05L41.514 80.15C41.164 80.95 40.494 81.57 39.674 81.86C38.854 82.16 37.944 82.11 37.154 81.72C35.724 80.93 35.114 79.21 35.714 77.69L42.434 62.82L27.414 52.13C23.934 49.61 22.944 44.84 25.134 41.15L35.074 24.86L19.574 27.88L10.664 35.84C9.33401 36.52 7.70401 36.05 6.93401 34.78C6.50401 34.12 6.37401 33.32 6.57401 32.56C6.76401 31.8 7.26401 31.15 7.95401 30.78L17.814 22.66C18.144 22.47 18.494 22.33 18.864 22.23L30.754 20.36L30.884 20.33C34.644 19.35 38.634 19.93 41.964 21.93L46.384 24.57C48.974 26.08 51.034 28.34 52.294 31.07L56.064 39.34L66.664 30.51C67.404 29.86 68.454 29.73 69.334 30.16C70.214 30.6 70.744 31.52 70.674 32.5C70.634 33.17 70.334 33.8 69.834 34.25V34.26Z" fill="black"/>
</svg>
