<svg width="87" height="87" viewBox="0 0 87 87" fill="none" xmlns="http://www.w3.org/2000/svg">
<path d="M85.8523 79.28C85.2123 78.46 84.0323 78.32 83.2223 78.95C77.7823 83.18 70.4023 83.69 64.4223 80.25L46.1923 69.72L56.7123 59.2C58.8323 57.08 60.0123 54.25 60.0123 51.24C60.0123 48.23 58.8423 45.41 56.7123 43.28L56.5623 43.13H75.0023C78.1023 43.13 80.6223 40.61 80.6223 37.51C80.6223 34.41 78.1023 31.89 75.0023 31.89H67.5023V25.3C67.5023 22.8 66.5223 20.44 64.7523 18.67L64.2223 18.14C65.2423 18.52 66.3423 18.76 67.4923 18.76C72.6623 18.76 76.8723 14.55 76.8723 9.38C76.8723 4.21 72.6623 0 67.4923 0C62.3223 0 58.1123 4.21 58.1123 9.38C58.1123 11.03 58.5723 12.56 59.3323 13.91C58.0123 13.21 56.5423 12.81 55.0123 12.81C52.5123 12.81 50.1523 13.79 48.3823 15.56L36.0323 27.92C32.9223 31.03 32.4923 35.78 34.6623 39.38H20.6223V38.44C20.6223 37.4 19.7823 36.56 18.7423 36.56C17.7023 36.56 16.8623 37.4 16.8623 38.44V39.38H14.9823C13.9423 39.38 13.1023 40.22 13.1023 41.26C13.1023 42.3 13.9423 43.14 14.9823 43.14H16.8623V44.08C16.8623 45.12 17.7023 45.96 18.7423 45.96C19.7823 45.96 20.6223 45.12 20.6223 44.08V43.14H37.9823L46.0923 51.25L34.4223 62.92L2.81227 44.66C1.92227 44.14 0.772268 44.45 0.252268 45.35C-0.267732 46.24 0.0422628 47.39 0.942263 47.91L62.5523 83.5C65.7823 85.36 69.3323 86.27 72.8723 86.27C77.3523 86.27 81.8123 84.8 85.5223 81.91C86.3423 81.27 86.4823 80.09 85.8523 79.28ZM51.9423 38.54L56.2423 34.24V35.66C56.2423 37.03 56.6423 38.3 57.2823 39.41H52.8023L51.9423 38.55V38.54ZM76.8723 37.53C76.8723 38.57 76.0323 39.41 74.9923 39.41H73.1123V35.66H74.9923C76.0323 35.66 76.8723 36.5 76.8723 37.54V37.53ZM67.5023 3.78C70.6023 3.78 73.1223 6.29999 73.1223 9.39999C73.1223 12.5 70.6023 15.02 67.5023 15.02C64.4023 15.02 61.8823 12.5 61.8823 9.39999C61.8823 6.29999 64.4023 3.78 67.5023 3.78ZM51.0423 18.23C52.1023 17.17 53.5223 16.58 55.0223 16.58C56.5223 16.58 57.9323 17.17 59.0023 18.23L62.1123 21.34C63.1723 22.4 63.7623 23.82 63.7623 25.32V33.78C63.7623 34.82 64.6023 35.66 65.6423 35.66H69.3923V39.41H63.7723C61.7023 39.41 60.0223 37.73 60.0223 35.66V29.71C60.0223 28.95 59.5623 28.27 58.8623 27.98C58.1623 27.69 57.3523 27.85 56.8223 28.39L49.3123 35.9L41.3623 27.95L51.0623 18.24L51.0423 18.23ZM38.6823 38.55C36.4923 36.35 36.4923 32.79 38.6823 30.6L47.5023 39.41H39.5423L38.6823 38.55ZM48.7423 53.91C49.4523 53.2 49.8423 52.26 49.8423 51.26C49.8423 50.26 49.4523 49.31 48.7423 48.61L43.2923 43.16H51.2523L54.0523 45.96C55.4723 47.37 56.2523 49.26 56.2523 51.26C56.2523 53.26 55.4723 55.15 54.0523 56.56L42.8323 67.78L37.7823 64.86L48.7423 53.9V53.91Z" fill="black"/>
</svg>
