<svg width="89" height="96" viewBox="0 0 89 96" fill="none" xmlns="http://www.w3.org/2000/svg">
<path d="M60.6195 0.228195C75.0395 -2.43181 75.1995 19.0782 61.4395 17.2482C52.1395 16.0082 52.0295 1.8182 60.6195 0.228195ZM61.4995 2.86821C54.9195 4.21821 56.0295 15.3282 63.5495 14.6282C71.7495 13.8582 69.9795 1.12821 61.4995 2.86821Z" fill="black"/>
<path d="M12.0395 93.2682C7.41953 88.0682 14.6895 80.3782 19.8395 85.2382C25.6495 90.7282 16.7995 98.6182 12.0395 93.2682ZM15.7395 86.4282C12.1195 86.9882 12.4595 93.4082 17.3095 91.9882C20.4295 91.0682 18.7395 85.9682 15.7395 86.4282Z" fill="black"/>
<path d="M66.5395 93.2682C61.9195 88.0682 69.1895 80.3782 74.3395 85.2382C80.1495 90.7282 71.2995 98.6182 66.5395 93.2682ZM70.2495 86.4282C66.6295 86.9882 66.9696 93.4082 71.8196 91.9882C74.9396 91.0682 73.2495 85.9682 70.2495 86.4282Z" fill="black"/>
<path d="M39.1795 82.3982L39.5795 84.3382L38.9595 85.0382H23.5595C23.3895 85.0382 22.5395 83.7582 22.5095 83.4282L23.1195 82.3982H39.1795Z" fill="black"/>
<path d="M9.25954 82.3982C10.7895 85.8182 4.55953 85.2782 2.40953 85.0682C-0.750467 84.7582 -0.190462 82.3982 0.679538 82.3982H9.25954Z" fill="black"/>
<path d="M7.93952 88.5582L7.52953 91.0082C7.07953 91.3182 2.27952 91.3482 1.62952 91.1282C0.139524 90.6282 0.699532 88.5582 1.55953 88.5582H7.93952Z" fill="black"/>
<path d="M75.0395 82.3982H73.7295C74.4295 82.7382 75.0995 83.1982 75.7195 83.7782C76.0895 84.1282 76.3995 84.4982 76.6895 84.8782C78.9295 84.0982 82.5195 80.4682 81.8095 78.2882C80.7095 74.9182 78.1595 80.6782 77.6995 81.0982C77.3795 81.3782 75.2795 82.3982 75.0395 82.3982Z" fill="black"/>
<path d="M24.6595 88.5582V91.1982H63.2795C63.0795 90.3382 63.0195 89.4482 63.1395 88.5582H55.4595L73.5795 40.0182C74.3895 38.7782 78.2995 39.4682 79.1095 36.3182C80.0695 32.5982 77.7295 31.7482 77.6095 30.7182C77.4595 29.4482 80.2095 26.9482 77.9095 25.4082C75.5495 25.0982 75.9595 29.6682 74.5595 29.9782L65.0095 29.0782C64.3095 28.8782 61.3995 24.7082 60.9995 23.8482C60.0095 21.6982 60.3995 19.9582 58.5295 17.9582C57.4995 16.8582 56.3595 16.2882 54.9295 15.8482C50.8995 14.5882 40.0395 15.4782 35.4895 16.0282C33.1395 16.3182 32.0495 17.2782 30.6295 19.0882C29.3795 20.6782 22.3995 31.4182 22.1895 32.6882C21.5695 36.4582 25.7195 39.5582 29.2795 37.0982C31.8695 35.2982 36.2995 26.1882 37.8595 25.4382C38.9495 24.9082 40.6195 25.3482 41.8195 25.2282C42.3695 25.7582 35.8095 36.1082 35.1395 37.6782C32.5895 43.5882 29.6395 56.2882 25.3095 60.4082C21.8895 63.6582 13.2895 68.5982 11.0995 72.1582C7.92953 77.2982 12.6195 82.5682 18.2195 80.1582L35.8495 66.1082L40.8395 54.7982C41.0695 54.2682 40.6295 53.6182 41.6095 53.8382L46.6795 60.6582C45.3895 68.2782 42.5995 75.7682 41.9395 83.4282C43.5795 89.0482 50.7195 89.2982 52.7295 83.8582L58.5895 58.4582C58.3395 54.9382 49.6395 45.6582 49.8295 44.4482L55.4895 34.0282C56.2895 33.4782 58.5295 37.3382 59.7095 37.9282C60.1695 38.1582 62.8195 38.8582 63.1795 38.8582H70.8795L51.7395 88.5782H24.6795L24.6595 88.5582ZM34.2895 63.6482L16.9995 77.5982C13.9395 78.9182 11.5795 76.3482 13.6695 73.3882C16.0095 70.0682 24.1295 65.3782 27.5095 62.1582C31.7595 58.1082 32.3695 50.8782 35.4395 45.8982C36.2095 47.3182 39.2695 49.8882 39.1895 51.3482C39.1495 52.0082 34.7295 63.0182 34.2895 63.6582V63.6482ZM60.7395 35.5482C59.5195 34.9582 55.5895 27.4182 54.9495 27.0482C54.3595 26.7082 53.0895 26.9382 52.8495 27.6782C52.3595 29.1782 54.3495 29.9482 53.9595 31.3682L46.6695 44.7982L55.7695 58.4782L50.0695 82.9482C48.5395 86.3482 44.8095 85.2082 44.4895 81.7982L49.6295 60.2382C49.3995 58.2282 40.0695 48.0382 38.3895 45.1482C36.8195 42.4582 36.5295 41.5182 37.7895 38.5482C39.5395 34.4382 43.9695 29.2882 45.4495 25.0882C45.8195 24.0482 46.2995 22.2182 44.6895 22.1082L36.5495 22.7882C34.3895 24.3482 28.6795 34.8382 26.9995 35.2682C25.6995 35.5982 24.9295 34.1482 25.0995 32.9382C25.2195 32.1182 33.5995 19.6182 34.3495 19.2682C40.9695 18.4582 48.2095 17.4982 54.7495 18.6482C57.9695 19.9482 56.4895 21.3282 56.9995 22.9782C57.5595 24.7982 62.0895 29.2782 62.9395 31.5782L75.6995 32.8982C77.1995 33.9682 76.8995 36.2882 74.9395 36.5582L60.7295 35.5482H60.7395Z" fill="black"/>
<path d="M87.3395 83.7182C85.4695 83.5482 85.3295 85.7182 84.2995 86.8182C83.9495 87.1882 81.8895 88.5582 81.6395 88.5582H78.2095C78.2995 89.4282 78.2095 90.3182 77.9695 91.1982H82.0795C84.3995 91.1982 89.9595 86.2582 87.3495 83.7182H87.3395Z" fill="black"/>
<path d="M60.2995 82.3982L59.4295 84.3782L60.0795 85.0382H64.5795C65.3995 83.8882 66.4795 82.9782 67.6995 82.3982H60.2995Z" fill="black"/>
</svg>
