<svg width="88" height="95" viewBox="0 0 88 95" fill="none" xmlns="http://www.w3.org/2000/svg">
<path d="M56.4306 0.415104C52.8406 1.5451 50.2805 4.71509 49.9405 8.46509C49.6005 12.2151 51.5605 15.7951 54.8905 17.5351C58.2305 19.2851 62.2805 18.8451 65.1705 16.4351C68.0605 14.0251 69.2106 10.1151 68.0906 6.52509C66.5506 1.62509 61.3406 -1.10489 56.4306 0.425114V0.415104ZM61.1206 15.4251C58.6406 16.2051 55.9406 15.4051 54.2706 13.4151C52.6006 11.4251 52.3005 8.6151 53.5105 6.3151C54.7105 4.0151 57.1905 2.66509 59.7805 2.89509C62.3705 3.12509 64.5606 4.8951 65.3406 7.3751C66.4006 10.7651 64.5106 14.3651 61.1206 15.4251Z" fill="black"/>
<path d="M82.3905 26.9451C83.1005 25.7651 83.3205 24.3551 82.9705 23.0151C82.6405 21.6951 81.8006 20.5451 80.6206 19.8551C78.2606 18.5051 75.2505 19.2351 73.7705 21.5151L69.0606 28.8051L66.0805 25.4951C63.8705 23.0551 60.9705 21.3551 57.7605 20.6251L53.2805 19.5551C49.1605 18.5451 44.8005 19.2251 41.1905 21.4551L31.4905 26.2551C30.8805 26.5951 30.3305 27.0251 29.8605 27.5351L23.5105 37.2351C21.4905 39.4651 21.6605 42.9151 23.8905 44.9451C26.1205 46.9751 29.5605 46.8251 31.6005 44.6051L36.9705 35.6751L43.0805 32.3751L40.4805 42.7751C39.4905 46.9851 41.2105 51.3751 44.7905 53.8051L44.9205 67.0751L33.5405 78.2951C32.5205 79.2451 31.9205 80.5551 31.8706 81.9551C31.8206 83.4151 32.3605 84.8351 33.3605 85.9051C34.8305 87.3751 37.0005 87.9051 38.9905 87.2951C39.7405 87.0651 40.4305 86.6551 41.0105 86.1251L53.7605 74.1551C55.6905 72.2951 56.7305 69.7051 56.6405 67.0351L56.8705 58.1851L60.8705 59.4951L59.3705 71.8051C59.1405 74.0651 60.2705 76.2451 62.2605 77.3651C64.2405 78.4751 66.6905 78.3051 68.5005 76.9251C69.7605 75.9751 70.5805 74.5451 70.7505 72.9751L72.3805 57.2051C72.7405 53.2351 70.3605 49.5251 66.6005 48.1951L58.2105 45.2051L60.9005 35.9751L66.3305 39.8551C67.7405 40.8351 69.5005 41.2051 71.1905 40.8751C72.8805 40.5351 74.3605 39.5351 75.2905 38.0851L82.3706 27.0151L82.3905 26.9751V26.9451ZM53.7705 66.9751V67.0751C53.8505 68.9351 53.1305 70.7451 51.7905 72.0451L39.0606 83.9951C38.0106 84.9151 36.4305 84.8651 35.4405 83.8851C34.9805 83.3851 34.7305 82.7151 34.7505 82.0351C34.7705 81.3851 35.0605 80.7851 35.5305 80.3551L47.8106 68.2451L47.6805 55.1451L54.0205 57.2151L53.7605 66.9751H53.7705ZM79.9405 25.4451L72.8805 36.5051C72.3705 37.2851 71.5606 37.8351 70.6506 38.0151C69.7306 38.1951 68.7805 38.0151 68.0105 37.4751L59.2905 31.2351L54.7105 46.9551L65.6605 50.8551C68.1805 51.7351 69.7805 54.2151 69.5405 56.8751L67.9105 72.6151C67.8205 73.3951 67.4205 74.1151 66.7905 74.5851C66.1605 75.0651 65.3605 75.2651 64.5805 75.1451C63.1405 74.8451 62.1405 73.5351 62.2505 72.0651L64.0305 57.4451L48.2105 52.2751C44.5305 51.0351 42.3905 47.2051 43.2905 43.4251L47.4705 26.7151L34.9305 33.4951L29.4005 42.7451C28.4405 43.6851 26.9105 43.7251 25.9005 42.8351C25.3605 42.3851 25.0205 41.7251 24.9905 41.0151C24.9505 40.3051 25.2105 39.6151 25.7005 39.1051L32.0105 29.4551C32.2405 29.2051 32.5105 28.9851 32.8005 28.8051L42.5405 23.9851L42.6405 23.9251C45.6105 22.0751 49.2105 21.4851 52.6105 22.3251L57.1305 23.4051C59.7605 24.0051 62.1505 25.4051 63.9705 27.4051L69.4505 33.5051L76.2105 23.0451C76.6705 22.2851 77.5405 21.8851 78.4205 22.0251C79.3005 22.1651 80.0005 22.8151 80.2105 23.6851C80.3605 24.2751 80.2705 24.9051 79.9605 25.4251L79.9405 25.4451Z" fill="black"/>
<path d="M81.8506 71.3551V74.3551C84.0006 74.3551 84.7506 74.9651 84.7806 75.1851C84.8406 75.6451 84.2005 76.7151 82.7505 77.1251C80.4305 77.7751 73.6506 78.8151 65.3406 78.8151C64.9006 78.8151 64.4605 78.8151 64.0305 78.8151C68.3405 77.4051 73.2405 75.9351 77.9706 74.8651C79.4305 74.5351 80.7406 74.3651 81.8606 74.3651V71.3651M81.8506 71.3551C80.5706 71.3551 79.0606 71.5251 77.3006 71.9251C67.4206 74.1551 56.8006 78.1151 52.3606 79.6451C51.7106 79.8651 51.7706 80.8551 52.4506 80.9551C56.8906 81.5751 61.2806 81.8151 65.3306 81.8151C73.9206 81.8151 80.9506 80.7451 83.5506 80.0151C88.8806 78.5151 90.0506 71.3651 81.8406 71.3651L81.8506 71.3551Z" fill="black"/>
<path d="M41.1605 87.6551C43.0905 87.6551 44.9306 87.6951 46.6206 87.7751C51.5806 88.0051 53.1205 89.4751 53.1105 89.8651C53.1105 90.2651 52.2505 91.2151 50.6305 91.2251H50.5606C47.7606 91.2251 40.5006 90.3251 32.1106 87.8951C34.9606 87.7551 38.0405 87.6551 41.1605 87.6551ZM41.1605 84.6551C32.7505 84.6551 24.4905 85.3751 20.6605 85.6251C19.9705 85.6651 19.7706 86.6351 20.4006 86.9051C33.1706 92.4051 46.4706 94.2251 50.5506 94.2251C50.5806 94.2251 50.6105 94.2251 50.6405 94.2251C57.0406 94.1851 60.0806 85.3951 46.7406 84.7751C44.9006 84.6951 43.0205 84.6551 41.1405 84.6551H41.1605Z" fill="black"/>
<path d="M82.1905 87.4251C83.7204 87.4251 84.9606 86.1849 84.9606 84.6551C84.9606 83.1253 83.7204 81.8851 82.1905 81.8851C80.6607 81.8851 79.4206 83.1253 79.4206 84.6551C79.4206 86.1849 80.6607 87.4251 82.1905 87.4251Z" fill="black"/>
<path d="M78.8906 90.5151C79.6472 90.5151 80.2606 89.9017 80.2606 89.1451C80.2606 88.3885 79.6472 87.7751 78.8906 87.7751C78.1339 87.7751 77.5206 88.3885 77.5206 89.1451C77.5206 89.9017 78.1339 90.5151 78.8906 90.5151Z" fill="black"/>
<path d="M82.1905 91.9151C82.6268 91.9151 82.9806 91.5614 82.9806 91.1251C82.9806 90.6888 82.6268 90.3351 82.1905 90.3351C81.7542 90.3351 81.4006 90.6888 81.4006 91.1251C81.4006 91.5614 81.7542 91.9151 82.1905 91.9151Z" fill="black"/>
<path d="M78.7606 65.3953V27.9051C78.7606 27.0767 79.4321 26.4051 80.2606 26.4051C81.089 26.4051 81.7606 27.0767 81.7606 27.9051V65.3953C81.7604 66.2236 81.0889 66.8953 80.2606 66.8953C79.4322 66.8953 78.7607 66.2236 78.7606 65.3953Z" fill="black"/>
<path d="M0.074758 36.2883C0.332471 35.5011 1.18008 35.0718 1.96734 35.3293L37.0875 46.8195C37.8744 47.0773 38.3037 47.9241 38.0464 48.7112C37.7888 49.4985 36.9412 49.9287 36.1539 49.6711L1.03374 38.1809C0.246573 37.9232 -0.182805 37.0756 0.074758 36.2883Z" fill="black"/>
</svg>
