<svg width="77" height="94" viewBox="0 0 77 94" fill="none" xmlns="http://www.w3.org/2000/svg">
<path d="M34.3204 0.415104C30.7304 1.5451 28.1704 4.71509 27.8304 8.46509C27.4904 12.2151 29.4504 15.7951 32.7804 17.5351C36.1204 19.2851 40.1704 18.8451 43.0604 16.4351C45.9504 14.0251 47.1004 10.1151 45.9804 6.52509C44.4404 1.62509 39.2304 -1.10489 34.3204 0.425114V0.415104ZM39.0104 15.4251C36.5304 16.2051 33.8304 15.4051 32.1604 13.4151C30.4904 11.4251 30.1904 8.61513 31.4004 6.31513C32.6004 4.01513 35.0804 2.66515 37.6704 2.89515C40.2604 3.12515 42.4504 4.89513 43.2304 7.37513C44.2904 10.7651 42.4004 14.3651 39.0104 15.4251Z" fill="black"/>
<path d="M60.2904 26.9452C61.0004 25.7652 61.2204 24.3552 60.8704 23.0152C60.5404 21.6952 59.7004 20.5451 58.5204 19.8551C56.1604 18.5051 53.1504 19.2352 51.6704 21.5152L46.9604 28.8051L43.9804 25.4951C41.7704 23.0551 38.8704 21.3551 35.6604 20.6251L31.1804 19.5551C27.0604 18.5451 22.7004 19.2252 19.0904 21.4552L9.3904 26.2552C8.7804 26.5952 8.23045 27.0251 7.76045 27.5351L1.41042 37.2351C-0.609584 39.4651 -0.439579 42.9152 1.79042 44.9452C4.02042 46.9752 7.46044 46.8251 9.50044 44.6051L14.8704 35.6751L20.9804 32.3751L18.3804 42.7751C17.3904 46.9851 19.1104 51.3751 22.6904 53.8051L22.8204 67.0752L11.4404 78.2951C10.4204 79.2451 9.8204 80.5552 9.7704 81.9552C9.7204 83.4152 10.2605 84.8351 11.2605 85.9051C12.7305 87.3751 14.9004 87.9051 16.8904 87.2951C17.6404 87.0651 18.3304 86.6551 18.9104 86.1251L31.6604 74.1551C33.5904 72.2951 34.6304 69.7051 34.5404 67.0351L34.7704 58.1851L38.7704 59.4951L37.2704 71.8051C37.0404 74.0651 38.1704 76.2451 40.1604 77.3651C42.1404 78.4751 44.5904 78.3051 46.4004 76.9251C47.6604 75.9751 48.4804 74.5451 48.6504 72.9751L50.2804 57.2052C50.6404 53.2352 48.2604 49.5252 44.5004 48.1952L36.1104 45.2052L38.8004 35.9751L44.2304 39.8551C45.6404 40.8351 47.4004 41.2052 49.0904 40.8751C50.7804 40.5351 52.2604 39.5352 53.1904 38.0852L60.2704 27.0152L60.2904 26.9751V26.9452ZM31.6604 66.9651V67.0651C31.7404 68.9251 31.0204 70.7351 29.6804 72.0351L16.9504 83.9851C15.9004 84.9051 14.3204 84.8551 13.3304 83.8751C12.8704 83.3751 12.6204 82.7051 12.6404 82.0251C12.6604 81.3751 12.9504 80.7751 13.4204 80.3451L25.7004 68.2351L25.5704 55.1352L31.9104 57.2052L31.6504 66.9651H31.6604ZM57.8304 25.4452L50.7704 36.5052C50.2604 37.2852 49.4504 37.8352 48.5404 38.0152C47.6204 38.1952 46.6704 38.0151 45.9004 37.4751L37.1804 31.2351L32.6004 46.9552L43.5504 50.8551C46.0704 51.7351 47.6704 54.2151 47.4304 56.8751L45.8004 72.6151C45.7104 73.3951 45.3104 74.1152 44.6804 74.5852C44.0504 75.0652 43.2504 75.2652 42.4704 75.1452C41.0304 74.8452 40.0304 73.5351 40.1404 72.0651L41.9204 57.4452L26.1004 52.2751C22.4204 51.0351 20.2804 47.2051 21.1804 43.4251L25.3604 26.7151L12.8205 33.4951L7.29042 42.7451C6.33042 43.6851 4.80042 43.7252 3.79042 42.8352C3.25042 42.3852 2.91045 41.7252 2.88045 41.0152C2.84045 40.3052 3.10041 39.6151 3.59041 39.1051L9.90041 29.4552C10.1304 29.2052 10.4004 28.9851 10.6904 28.8051L20.4304 23.9851L20.5304 23.9251C23.5004 22.0751 27.1004 21.4852 30.5004 22.3252L35.0204 23.4051C37.6504 24.0051 40.0404 25.4051 41.8604 27.4051L47.3404 33.5052L54.1004 23.0451C54.5604 22.2851 55.4304 21.8851 56.3104 22.0251C57.1904 22.1651 57.8904 22.8151 58.1004 23.6851C58.2504 24.2751 58.1604 24.9051 57.8504 25.4251L57.8304 25.4452Z" fill="black"/>
<path d="M64.9407 81.4247C64.9405 77.6434 61.8716 74.5751 58.0901 74.5751H54.4661L7.9212 90.4755H64.9407V81.4247ZM67.9407 90.9755C67.9405 92.3537 66.8189 93.4754 65.4407 93.4755H4.92023C2.05485 93.4753 1.48279 89.5161 4.11066 88.6074L4.11554 88.6054L53.5853 71.706C53.9125 71.5891 54.2088 71.5766 54.3802 71.5761L58.0901 71.5751C63.5284 71.5751 67.9405 75.9865 67.9407 81.4247V90.9755Z" fill="black"/>
<path d="M61.0204 82.5251C61.0204 80.338 59.2475 78.5651 57.0604 78.5651C54.8734 78.5651 53.1004 80.338 53.1004 82.5251C53.1004 84.7121 54.8734 86.4851 57.0604 86.4851C59.2475 86.4851 61.0204 84.7121 61.0204 82.5251Z" fill="black"/>
<path d="M64.9308 80.4047V47.5648C64.9308 47.3047 64.9984 47.0487 65.1271 46.8226L70.5118 37.3636L58.3995 45.3949C57.7091 45.8527 56.7782 45.6644 56.3204 44.974C55.8627 44.2836 56.051 43.3527 56.7413 42.8949L74.1017 31.3851C74.6805 31.0014 75.4467 31.0653 75.9542 31.5394C76.4617 32.0136 76.5771 32.7738 76.2335 33.3773L67.9308 47.9603V80.4047C67.9308 81.233 67.259 81.9045 66.4308 81.9047C65.6024 81.9047 64.9308 81.2331 64.9308 80.4047Z" fill="black"/>
</svg>
