<svg width="80" height="96" viewBox="0 0 80 96" fill="none" xmlns="http://www.w3.org/2000/svg">
<path d="M71.48 64.6559V15.5959C71.48 14.7259 74.1201 14.7259 74.1201 15.5959V67.0758C74.1201 67.3558 77.01 70.0458 77.72 71.3958C81.43 78.5758 79.77 86.6959 74.57 92.5959H79.78V95.8058H0V92.8158H3.73004L3.76001 88.0458C3.08001 87.7858 2.65003 87.6058 2.03003 87.0758C0.970029 86.1758 -0.399949 84.4958 0.240051 81.6258C0.810051 79.0658 3.73004 77.9659 3.73004 77.9659V45.0858C3.73004 43.8059 6.81 43.8059 6.81 45.0858V77.8658L8.17004 78.3658L9.82001 76.9159C9.18001 74.8959 8.53005 73.5858 9.36005 71.3958C10.78 67.6558 17.71 62.3258 19.79 58.5158C21.15 52.9958 20.69 46.7758 21.38 41.1858C21.78 37.8958 29.94 21.4458 32.14 18.5058C33.9 16.1558 36.35 14.5758 39.39 15.1458C43.84 15.9758 46.98 22.5658 51.04 24.6358L61.09 24.5858C62.28 24.1859 62.25 19.2559 64.58 19.8559C67.25 20.5459 64.07 24.2458 64.01 25.7958C63.95 27.3458 65.96 28.1758 65.23 31.3758C64.5 34.5758 58.91 33.2358 62.69 38.5058C65 41.7358 67.56 41.4759 67.98 46.4159C68.44 51.8059 67.45 57.2558 67.6 62.6358L71.4901 64.6858L71.48 64.6559ZM62.13 31.1059C62.96 30.2859 62.66 28.1558 61.51 27.7658C58.92 26.8758 51.9401 28.5759 49.4901 27.4659C48.9801 27.2359 44.03 22.4358 43.09 21.5458C41.22 19.7958 40.32 16.9659 37.25 17.8559C36.07 18.1959 34.85 19.5058 34.15 20.5058C32.81 22.4458 24.6801 38.5758 24.4301 40.2558C23.9601 43.3558 24.7601 45.1058 27.4901 46.3758C29.8501 47.4758 42.63 50.2959 43.23 51.0959L46.01 66.7859L50.75 65.9159L47.7401 47.6758C46.1201 45.4858 34.63 43.9058 34.13 41.8958C33.8 40.5758 39.7701 31.1458 40.6201 29.1458C40.7401 27.9258 37.44 26.8358 38.08 24.8758C38.53 23.9458 39.4001 23.9958 40.2401 24.3858C41.66 25.0458 46 30.6358 47.6 31.1158C50.15 30.5958 60.74 32.4859 62.14 31.0959L62.13 31.1059ZM58.72 34.2958C54.46 33.9458 49.48 35.2758 45.65 33.0658C44.92 32.6458 43.6601 31.0859 43.1201 31.2159L37.61 40.6758C37.42 41.2858 47.8801 43.4058 49.4901 45.1858C52.1301 48.1058 52.3 60.3658 53.45 64.6458L64.89 62.4458V45.0758C62.59 41.5158 57.93 39.3659 58.73 34.2859L58.72 34.2958ZM28.7401 49.7558C27.1801 49.4758 25.98 48.5958 24.63 47.9258C24.22 47.7158 24.3101 47.1958 23.7401 47.9258L22.89 58.9558L12.14 71.9659C10.56 74.5258 13.33 77.1458 15.85 75.6758L27.69 61.5558L28.7401 49.7558ZM21.92 79.3858L9.44 79.6059C9.44 79.6059 9.80005 80.0258 10.05 80.5858C10.35 81.2658 10.59 81.8358 10.59 81.8358L29.67 81.8058C29.57 73.0858 35.78 70.1458 43.13 68.1858L40.89 53.6458C40.27 52.3958 33.32 51.2058 31.65 50.5658L30.2 62.7658L18.67 76.7458C19.63 77.4158 20.7501 76.9259 21.7401 76.9759C23.9101 77.0859 23.23 78.9858 21.9 79.3858H21.92ZM32.76 92.8058H69.5C69.7 92.8058 72.44 90.7458 72.8 90.3858C80.4501 82.5158 76.5901 66.4858 65.1201 65.5158C60.3701 65.1158 43.75 70.5758 38.81 72.6758C37.41 73.2658 36.02 73.8459 34.95 74.9759C34.36 75.5959 32.77 78.3158 32.77 78.9558V92.8158L32.76 92.8058ZM4.48004 80.5758C1.72004 81.3958 2.57005 86.1758 5.61005 85.6958C9.41005 85.0958 8.65004 79.3358 4.48004 80.5758ZM29.6801 84.4458H10.32C10.06 84.4458 10.5501 86.7759 6.87006 88.0359L6.80005 92.8058H29.6801V84.4458Z" fill="black"/>
<path d="M47.6196 0.08603C59.7396 -1.40397 61.0496 16.946 49.1996 17.546C38.4896 18.096 36.7596 1.41603 47.6196 0.08603ZM47.1596 3.15604C41.3396 4.36604 41.7196 13.856 47.9296 14.506C57.3596 15.486 56.8996 1.13604 47.1596 3.15604Z" fill="black"/>
<path d="M61.2598 69.1661C75.0898 67.4661 76.3098 89.426 62.8798 89.746C50.0198 90.056 48.9098 70.6861 61.2598 69.1661ZM60.7999 72.236C52.5899 73.746 53.4998 88.366 64.1098 86.546C72.8598 85.046 70.9099 70.386 60.7999 72.236Z" fill="black"/>
<path d="M22.7496 79.6365H6.55957V76.6465H22.7496C23.5796 76.6465 24.2396 77.3165 24.2396 78.1365C24.2396 78.9665 23.5696 79.6265 22.7496 79.6265V79.6365Z" fill="black"/>
</svg>
