<svg width="93" height="60" viewBox="0 0 93 60" fill="none" xmlns="http://www.w3.org/2000/svg">
<path d="M20.6778 59.93C17.8278 59.93 15.1578 58.79 13.1678 56.73L13.0778 56.64C11.7278 55.24 9.91778 54.46 7.97778 54.46C6.03778 54.46 4.22774 55.23 2.87774 56.64C2.55774 56.97 2.12778 57.15 1.66778 57.15C1.22778 57.15 0.817748 56.98 0.507748 56.68C-0.152252 56.04 -0.17223 54.98 0.46777 54.31C2.45777 52.25 5.11778 51.11 7.97778 51.11C10.8378 51.11 13.4978 52.25 15.4878 54.31L15.5778 54.41C16.9278 55.81 18.7378 56.59 20.6778 56.59C22.6178 56.59 24.4278 55.82 25.7778 54.41L25.8777 54.31C27.8577 52.25 30.5277 51.11 33.3777 51.11C36.2277 51.11 38.8978 52.25 40.8878 54.31L40.9778 54.4C42.3278 55.8 44.1378 56.58 46.0778 56.58C48.0178 56.58 49.8278 55.81 51.1778 54.4L51.2678 54.31C53.2578 52.25 55.9178 51.11 58.7778 51.11C61.6378 51.11 64.2978 52.25 66.2878 54.31L66.3777 54.4C67.7277 55.8 69.5378 56.58 71.4778 56.58C73.4178 56.58 75.2278 55.81 76.5778 54.4C78.5678 52.34 81.2278 51.2 84.0878 51.2C87.0478 51.22 89.7278 52.4 91.7078 54.51C92.0178 54.84 92.1778 55.26 92.1578 55.71C92.1478 56.16 91.9577 56.57 91.6277 56.88C91.3177 57.17 90.9078 57.33 90.4878 57.33C90.0178 57.33 89.5878 57.14 89.2678 56.8C87.9278 55.36 86.1078 54.56 84.1478 54.55C82.1578 54.57 80.3377 55.34 78.9977 56.73C77.0077 58.79 74.3478 59.93 71.4878 59.93C68.6278 59.93 65.9678 58.79 63.9778 56.73L63.8878 56.64C62.5378 55.24 60.7278 54.46 58.7878 54.46C56.8478 54.46 55.0377 55.23 53.6877 56.64L53.5978 56.73C51.6078 58.79 48.9378 59.93 46.0878 59.93C43.2378 59.93 40.5678 58.79 38.5778 56.73L38.4878 56.63C37.1378 55.23 35.3278 54.46 33.3878 54.46C31.4478 54.46 29.6378 55.23 28.2878 56.64L28.1978 56.74C26.2078 58.8 23.5477 59.94 20.6877 59.94L20.6778 59.93ZM20.6778 47.09C17.8278 47.09 15.1578 45.95 13.1678 43.89L13.0778 43.8C11.7278 42.4 9.91778 41.62 7.97778 41.62C6.03778 41.62 4.22774 42.39 2.87774 43.8C2.55774 44.13 2.12778 44.31 1.66778 44.31C1.23778 44.31 0.817748 44.14 0.507748 43.84C-0.152252 43.2 -0.17223 42.14 0.46777 41.47C2.45777 39.41 5.11778 38.27 7.97778 38.27C10.8378 38.27 13.4978 39.41 15.4878 41.47L15.5778 41.57C16.9278 42.97 18.7378 43.75 20.6778 43.75C22.6178 43.75 24.4278 42.98 25.7778 41.57L25.8678 41.47C27.8578 39.41 30.5177 38.27 33.3777 38.27C36.2377 38.27 38.8978 39.41 40.8878 41.47L40.9778 41.56C42.3278 42.96 44.1378 43.74 46.0778 43.74C48.0178 43.74 49.8278 42.97 51.1778 41.56L51.2678 41.47C53.2578 39.4 55.9278 38.27 58.7778 38.27C61.6278 38.27 64.2978 39.41 66.2878 41.47L66.3777 41.56C67.7277 42.96 69.5378 43.74 71.4778 43.74C73.4178 43.74 75.2278 42.97 76.5778 41.56C78.5678 39.5 81.2278 38.36 84.0878 38.36C87.0478 38.38 89.7278 39.56 91.7078 41.67C92.3378 42.34 92.3077 43.4 91.6277 44.03C91.3177 44.32 90.9078 44.48 90.4878 44.48C90.0178 44.48 89.5878 44.29 89.2678 43.95C87.9278 42.51 86.1078 41.71 84.1478 41.7C82.1578 41.72 80.3377 42.49 78.9977 43.88C77.0077 45.94 74.3478 47.08 71.4878 47.08C68.6278 47.08 65.9678 45.94 63.9778 43.88L63.8878 43.79C62.5378 42.39 60.7278 41.61 58.7878 41.61C56.8478 41.61 55.0377 42.38 53.6877 43.79L53.5978 43.88C51.6078 45.94 48.9378 47.08 46.0878 47.08C43.2378 47.08 40.5678 45.94 38.5778 43.88L38.4878 43.78C37.1378 42.38 35.3278 41.6 33.3878 41.6C31.4478 41.6 29.6378 42.37 28.2878 43.78L28.1877 43.88C26.2077 45.94 23.5377 47.08 20.6877 47.08L20.6778 47.09ZM20.6778 34.25C17.8278 34.25 15.1578 33.11 13.1678 31.05L13.0778 30.96C11.7278 29.56 9.91778 28.78 7.97778 28.78C6.03778 28.78 4.22774 29.55 2.87774 30.96C2.55774 31.29 2.12778 31.47 1.66778 31.47C1.23778 31.47 0.817748 31.3 0.507748 31C-0.152252 30.36 -0.17223 29.3 0.46777 28.63C2.45777 26.57 5.11778 25.43 7.97778 25.43C9.26778 25.43 10.5378 25.67 11.7678 26.15L11.9977 26.24L27.8177 16.99L24.6978 15.42L16.8077 20.03C15.8477 20.59 14.7578 20.89 13.6578 20.89C13.1178 20.89 12.5678 20.82 12.0378 20.68C10.4078 20.25 9.04775 19.2 8.19775 17.73C6.46775 14.72 7.48778 10.84 10.4778 9.09L21.4778 2.66C22.4678 2.08 23.5978 1.76999 24.7278 1.76999C25.7378 1.76999 26.7478 2.02001 27.6578 2.48001L39.0577 8.29999C41.1377 9.35999 42.8578 11 44.0278 13.03L52.4878 27.53L52.9278 27.23C54.6478 26.06 56.6677 25.44 58.7577 25.44C61.6077 25.44 64.2778 26.58 66.2678 28.64L66.3578 28.73C67.7078 30.13 69.5178 30.91 71.4578 30.91C73.3978 30.91 75.2077 30.14 76.5577 28.73C78.5477 26.67 81.2077 25.53 84.0677 25.53C87.0277 25.55 89.7077 26.73 91.6877 28.84C92.3177 29.51 92.2778 30.57 91.6078 31.2C91.2978 31.49 90.8878 31.65 90.4678 31.65C89.9978 31.65 89.5677 31.46 89.2477 31.12C87.9077 29.68 86.0877 28.88 84.1277 28.87C82.1577 28.87 80.3278 29.64 78.9778 31.05C76.9878 33.11 74.3278 34.25 71.4678 34.25C68.6078 34.25 65.9478 33.11 63.9578 31.05L63.8678 30.96C62.5178 29.56 60.7078 28.78 58.7678 28.78C56.8278 28.78 55.0178 29.55 53.6678 30.96L53.3978 31.22C53.2978 31.34 53.2078 31.43 53.0978 31.5C51.1378 33.28 48.6477 34.25 46.0677 34.25C43.2177 34.25 40.5477 33.11 38.5577 31.05L38.4678 30.95C37.1178 29.55 35.3078 28.78 33.3678 28.78C31.4278 28.78 29.6178 29.55 28.2678 30.96L28.1678 31.06C26.1878 33.12 23.5178 34.26 20.6678 34.26L20.6778 34.25ZM24.6277 11.84C24.8877 11.84 25.1477 11.9 25.3777 12.02L32.0677 15.38C32.6177 15.66 32.9678 16.21 32.9878 16.82C33.0078 17.43 32.6878 18.01 32.1578 18.32L15.1378 28.28L15.5778 28.74C16.9278 30.14 18.7378 30.91 20.6778 30.91C22.6178 30.91 24.4278 30.14 25.7778 28.73L25.8678 28.63C27.8578 26.57 30.5177 25.43 33.3777 25.43C36.2377 25.43 38.8978 26.57 40.8878 28.63L40.9778 28.72C42.3278 30.12 44.1378 30.9 46.0778 30.9C47.2778 30.9 48.4578 30.6 49.4878 30.02L49.9377 29.77L41.1478 14.69C40.2978 13.22 39.0577 12.03 37.5577 11.26L26.1578 5.44C25.7178 5.22 25.2377 5.10001 24.7477 5.10001C24.1977 5.10001 23.6578 5.25 23.1778 5.53L12.1778 11.96C10.7678 12.79 10.2878 14.62 11.1078 16.04C11.5078 16.73 12.1378 17.22 12.9078 17.42C13.1578 17.49 13.4078 17.52 13.6578 17.52C14.1678 17.52 14.6777 17.38 15.1277 17.12L23.7978 12.06C24.0578 11.91 24.3478 11.83 24.6378 11.83L24.6277 11.84ZM58.6678 21.56C57.7478 21.56 56.8278 21.44 55.9278 21.2C53.1578 20.46 50.8278 18.68 49.3978 16.17C46.4478 11.03 48.1778 4.42999 53.2678 1.45999C54.8978 0.509991 56.7378 0 58.5978 0C59.5178 0 60.4378 0.119985 61.3378 0.359985C64.1078 1.09999 66.4377 2.87998 67.8777 5.38998C70.8277 10.53 69.0977 17.13 64.0078 20.1C62.3778 21.05 60.5378 21.56 58.6678 21.56ZM58.5978 3.35999C57.3178 3.35999 56.0578 3.69999 54.9478 4.35999C51.4478 6.40999 50.2478 10.97 52.2978 14.51C53.2878 16.23 54.8878 17.46 56.7878 17.97C57.4078 18.13 58.0378 18.22 58.6678 18.22C59.9478 18.22 61.2077 17.88 62.3177 17.22C65.8177 15.17 67.0078 10.62 64.9678 7.07001C63.9778 5.35001 62.3778 4.11999 60.4778 3.60999C59.8578 3.44999 59.2278 3.35999 58.5978 3.35999Z" fill="black"/>
</svg>
