<svg width="100" height="87" viewBox="0 0 100 87" fill="none" xmlns="http://www.w3.org/2000/svg">
<path d="M67.88 0.00999451C63.71 0.00999451 59.95 2.52 58.36 6.37C56.77 10.22 57.65 14.66 60.59 17.6C63.54 20.55 67.97 21.43 71.82 19.83C75.67 18.23 78.18 14.48 78.18 10.31C78.18 4.62 73.56 0.01 67.87 0L67.88 0.00999451ZM67.88 17.43C65 17.43 62.41 15.7 61.3 13.04C60.2 10.38 60.81 7.32 62.85 5.28C64.89 3.24 67.95 2.63 70.61 3.74C73.27 4.84 75 7.44 75 10.32C75 14.25 71.81 17.44 67.88 17.44V17.43Z" fill="black"/>
<path d="M86.56 36.65C87.7 35.64 88.4 34.21 88.48 32.69C88.57 31.18 88.05 29.69 87.04 28.57C84.99 26.36 81.57 26.14 79.24 28.06L71.85 34.22L69.8 29.73C68.27 26.43 65.76 23.66 62.62 21.83L58.24 19.21C54.22 16.78 49.38 16.06 44.82 17.22L32.98 19.08C32.23 19.24 31.5 19.51 30.83 19.89L20.91 28.05C18.04 29.75 17.07 33.44 18.76 36.32C20.44 39.2 24.14 40.18 27.03 38.51L35.66 30.84L43.21 29.37L37.02 39.51C34.58 43.64 34.95 48.85 37.93 52.6L33.68 66.67L17.94 74.77C16.55 75.43 15.48 76.63 14.97 78.09C14.43 79.62 14.53 81.3 15.24 82.75C16.31 84.79 18.43 86.07 20.73 86.08C21.6 86.08 22.46 85.88 23.25 85.51L40.69 77.07C43.34 75.75 45.3 73.35 46.09 70.49L49.27 61.2L53.07 63.91L47.41 76.43C46.42 78.75 46.9 81.43 48.62 83.26C50.35 85.09 53 85.72 55.37 84.86C57.02 84.27 58.35 83.03 59.05 81.43L65.99 65.3C67.69 61.22 66.39 56.51 62.85 53.87L54.96 47.93L60.85 39.06L65.31 44.96C66.48 46.47 68.21 47.44 70.11 47.64C72 47.84 73.91 47.27 75.37 46.05L86.51 36.68L86.54 36.65H86.56ZM43.06 69.51L43.03 69.62C42.49 71.62 41.14 73.29 39.29 74.22L21.88 82.65C20.47 83.28 18.81 82.7 18.09 81.34C17.77 80.66 17.72 79.87 17.97 79.16C18.21 78.48 18.71 77.94 19.35 77.64L36.34 68.9L40.54 55L46.56 59.29L43.06 69.52V69.51ZM84.46 34.26L73.34 43.62C72.54 44.28 71.51 44.59 70.48 44.48C69.45 44.37 68.5 43.85 67.86 43.03L60.7 33.55L50.66 48.66L60.95 56.41C63.32 58.18 64.19 61.32 63.07 64.05L56.14 80.15C55.79 80.95 55.12 81.57 54.3 81.86C53.48 82.16 52.57 82.11 51.78 81.72C50.35 80.93 49.74 79.21 50.34 77.69L57.06 62.82L42.04 52.13C38.56 49.61 37.57 44.84 39.76 41.15L49.7 24.86L34.2 27.88L25.29 35.84C23.96 36.52 22.33 36.05 21.56 34.78C21.13 34.12 21 33.32 21.2 32.56C21.39 31.8 21.89 31.15 22.58 30.78L32.44 22.66C32.77 22.47 33.12 22.33 33.49 22.23L45.38 20.36L45.51 20.33C49.27 19.35 53.26 19.93 56.59 21.93L61.01 24.57C63.6 26.08 65.66 28.34 66.92 31.07L70.69 39.34L81.29 30.51C82.03 29.86 83.08 29.73 83.96 30.16C84.84 30.6 85.37 31.52 85.3 32.5C85.26 33.17 84.96 33.8 84.46 34.25V34.26Z" fill="black"/>
<path d="M0 68.4796V64.9796C0 63.8751 0.89543 62.9796 2 62.9796C3.10457 62.9796 4 63.8751 4 64.9796V68.4796C4 69.5842 3.10457 70.4796 2 70.4796C0.89543 70.4796 0 69.5842 0 68.4796Z" fill="black"/>
<path d="M0 57.1396V53.6396C0 52.9975 0.308522 52.3946 0.829102 52.0186C1.34976 51.6426 2.01927 51.5393 2.62891 51.7412L5.94922 52.8408C6.99769 53.1882 7.56614 54.3206 7.21875 55.3691C6.87124 56.4174 5.73974 56.9849 4.69141 56.6377L4 56.4082V57.1396C4 58.2442 3.10457 59.1396 2 59.1396C0.89543 59.1396 0 58.2442 0 57.1396Z" fill="black"/>
<path d="M16.8091 58.5426C17.1559 57.4941 18.2868 56.9254 19.3354 57.2721L21.2075 57.8903C22.2562 58.237 22.8257 59.3689 22.479 60.4176C22.1322 61.4662 21.0012 62.0347 19.9526 61.6882L18.0796 61.07C17.0309 60.7232 16.4624 59.5913 16.8091 58.5426ZM10.1216 56.3317C10.4684 55.2831 11.5993 54.7145 12.6479 55.0612L14.52 55.6794C15.5687 56.0261 16.1382 57.158 15.7915 58.2067C15.4447 59.2553 14.3128 59.8239 13.2641 59.4772L11.3921 58.8581C10.3435 58.5113 9.77487 57.3804 10.1216 56.3317Z" fill="black"/>
<path d="M22.0316 60.2707C22.3789 59.2222 23.5104 58.6539 24.5589 59.0012L27.8792 60.1008C28.9277 60.4482 29.4961 61.5806 29.1487 62.6291C28.8012 63.6773 27.6697 64.2449 26.6214 63.8977L23.3011 62.7981C22.2526 62.4507 21.6842 61.3192 22.0316 60.2707Z" fill="black"/>
<path d="M64.8276 73.6447C65.2005 72.6051 66.3456 72.0641 67.3853 72.4367L70.6753 73.6174C71.715 73.9903 72.2562 75.1353 71.8833 76.175C71.5104 77.2145 70.3653 77.7547 69.3257 77.382L66.0356 76.2023C64.9961 75.8295 64.455 74.6843 64.8276 73.6447Z" fill="black"/>
<path d="M81.8644 75.4888C82.6764 74.7401 83.9418 74.7921 84.6906 75.604C85.4392 76.4161 85.3883 77.6814 84.5763 78.4302L82.006 80.7994C81.4571 81.3055 80.672 81.4645 79.9698 81.2105L76.6798 80.0201C75.6415 79.6442 75.1041 78.498 75.4796 77.4595C75.8553 76.4208 77.0024 75.8826 78.0411 76.2583L80.1876 77.0347L81.8644 75.4888Z" fill="black"/>
<path d="M89.8593 63.609C90.8369 63.095 92.0464 63.4712 92.5604 64.4489L94.1903 67.5485C94.6119 68.3503 94.4422 69.3357 93.7762 69.9498L91.2059 72.32C90.3939 73.0685 89.1285 73.0176 88.3798 72.2057C87.631 71.3937 87.683 70.1283 88.495 69.3795L89.9344 68.0504L89.0204 66.3102C88.5064 65.3326 88.8818 64.1231 89.8593 63.609Z" fill="black"/>
<path d="M86.914 51.297C87.7991 50.6363 89.052 50.8182 89.7128 51.7032C90.3735 52.5884 90.1917 53.8413 89.3065 54.5021L87.8749 55.5694L88.7108 57.1583C89.2249 58.136 88.8487 59.3454 87.871 59.8595C86.8934 60.3735 85.6839 59.9982 85.1698 59.0206L83.5399 55.92C83.0824 55.0494 83.3259 53.9752 84.1142 53.3868L86.914 51.297Z" fill="black"/>
<path d="M96.4528 44.167C97.3375 43.5058 98.5913 43.6875 99.2526 44.5723C99.9138 45.4571 99.7321 46.7108 98.8473 47.3721L96.0377 49.4717C95.1529 50.1329 93.8991 49.9512 93.2379 49.0664C92.5771 48.1817 92.7586 46.9287 93.6432 46.2676L96.4528 44.167Z" fill="black"/>
</svg>
