<svg xmlns="http://www.w3.org/2000/svg" viewBox="0 0 24 24" fill="#4a6bc5">
  <circle cx="17" cy="4" r="2.5"/>
  <path d="M18 7.5c-.4-.5-1-.8-1.6-.8h-.2l-3.2.5-2.1-1.7c-.8-.6-1.8-.5-2.5.2L6.2 8c-.5.6-.5 1.4.1 1.9.6.5 1.4.4 1.9-.1l1.7-1.8 1.1.9-2.3 3.1c-.5.7-.4 1.6.2 2.2l3.3 3.1-1.8 6.2c-.2.8.2 1.6 1 1.8.8.2 1.6-.2 1.8-1l2-7c.1-.4 0-.9-.3-1.2L12 13.5l2.3-3.1.7 1c.3.4.7.7 1.2.8l2.5.2c.7.1 1.4-.5 1.4-1.3.1-.7-.4-1.4-1.1-1.4l-1.8-.2-1.5-2.3 1.5-.3c.4-.1.8.1 1 .4l.8 1.1c.4.6 1.3.8 1.9.3.6-.4.8-1.3.3-1.9L18 7.5z"/>
  <path d="M7.5 20.5l3-5.2-1.5-1.4-2.7 4.7c-.4.7-.2 1.5.5 1.9.7.4 1.5.2 1.9-.5l-1.2.5z"/>
  <rect x="1" y="2" width="5.5" height="4" rx="1" fill="none" stroke="#4a6bc5" stroke-width=".8"/>
  <line x1="2" y1="3.5" x2="5.5" y2="3.5" stroke="#4a6bc5" stroke-width=".6"/>
  <line x1="2" y1="4.8" x2="4.5" y2="4.8" stroke="#4a6bc5" stroke-width=".6"/>
</svg>
