<svg width="81" height="92" viewBox="0 0 81 92" fill="none" xmlns="http://www.w3.org/2000/svg">
<path d="M67.1016 2.72061C64.4116 2.72061 61.9816 4.34061 60.9516 6.83061C59.9216 9.32061 60.4916 12.1806 62.3916 14.0806C64.2916 15.9806 67.1616 16.5506 69.6416 15.5206C72.1216 14.4906 73.7516 12.0606 73.7516 9.37061C73.7516 5.69061 70.7716 2.72061 67.0916 2.71061L67.1016 2.72061ZM67.1016 13.9706C65.2416 13.9706 63.5716 12.8506 62.8516 11.1306C62.1416 9.41061 62.5316 7.43061 63.8516 6.12061C65.1616 4.80061 67.1416 4.41061 68.8616 5.12061C70.5816 5.83061 71.7016 7.51061 71.7016 9.37061C71.7016 11.9106 69.6416 13.9706 67.1016 13.9706Z" fill="black"/>
<path d="M79.1716 26.3806C79.9116 25.7306 80.3616 24.8106 80.4116 23.8206C80.4716 22.8506 80.1416 21.8906 79.4816 21.1606C78.1516 19.7306 75.9516 19.5906 74.4416 20.8306L69.6716 24.8106L68.3516 21.9106C67.3616 19.7806 65.7416 17.9906 63.7116 16.8106L60.8816 15.1206C58.2816 13.5506 55.1616 13.0906 52.2116 13.8406L44.5616 15.0406C44.0716 15.1406 43.6016 15.3206 43.1716 15.5606L36.7616 20.8306C34.9116 21.9206 34.2816 24.3106 35.3716 26.1706C36.4616 28.0306 38.8416 28.6606 40.7116 27.5806L46.2916 22.6306L51.1716 21.6806L47.1716 28.2306C45.6016 30.9006 45.8316 34.2606 47.7616 36.6806L45.0216 45.7706L34.8516 51.0006C33.9516 51.4306 33.2616 52.2006 32.9316 53.1406C32.5816 54.1306 32.6516 55.2106 33.1016 56.1506C33.7916 57.4706 35.1616 58.2906 36.6516 58.3006C37.2116 58.3006 37.7716 58.1706 38.2816 57.9306L49.5416 52.4806C51.2516 51.6206 52.5216 50.0806 53.0316 48.2306L55.0816 42.2306L57.5316 43.9806L53.8716 52.0706C53.2316 53.5706 53.5416 55.3006 54.6516 56.4806C55.7716 57.6606 57.4816 58.0706 59.0116 57.5106C60.0716 57.1306 60.9316 56.3306 61.3916 55.2906L65.8716 44.8706C66.9616 42.2406 66.1316 39.1906 63.8416 37.4906L58.7516 33.6606L62.5516 27.9306L65.4316 31.7406C66.1816 32.7106 67.3016 33.3406 68.5316 33.4706C69.7516 33.6006 70.9816 33.2306 71.9316 32.4406L79.1316 26.3906L79.1516 26.3706L79.1716 26.3806ZM51.0816 47.6006L51.0616 47.6706C50.7116 48.9606 49.8416 50.0406 48.6416 50.6406L37.3916 56.0806C36.4816 56.4906 35.4116 56.1206 34.9416 55.2306C34.7316 54.7906 34.7016 54.2806 34.8616 53.8206C35.0116 53.3806 35.3416 53.0306 35.7516 52.8406L46.7216 47.1906L49.4316 38.2106L53.3216 40.9806L51.0616 47.5906L51.0816 47.6006ZM77.8116 24.8406L70.6316 30.8806C70.1116 31.3106 69.4516 31.5106 68.7816 31.4406C68.1116 31.3706 67.5016 31.0306 67.0916 30.5106L62.4716 24.3906L55.9816 34.1506L62.6216 39.1506C64.1516 40.2906 64.7116 42.3206 63.9916 44.0906L59.5116 54.4906C59.2816 55.0006 58.8516 55.4106 58.3216 55.5906C57.7916 55.7806 57.2016 55.7506 56.6916 55.5006C55.7716 54.9906 55.3716 53.8806 55.7616 52.9006L60.1016 43.3006L50.4016 36.3906C48.1516 34.7606 47.5116 31.6906 48.9316 29.3006L55.3516 18.7806L45.3416 20.7306L39.5916 25.8706C38.7316 26.3106 37.6816 26.0106 37.1816 25.1806C36.9116 24.7506 36.8216 24.2306 36.9516 23.7406C37.0716 23.2506 37.4016 22.8306 37.8416 22.5906L44.2116 17.3506C44.4216 17.2306 44.6516 17.1406 44.8916 17.0806L52.5716 15.8706L52.6516 15.8506C55.0816 15.2206 57.6616 15.5906 59.8016 16.8806L62.6516 18.5906C64.3216 19.5606 65.6516 21.0306 66.4616 22.7906L68.9016 28.1306L75.7516 22.4306C76.2316 22.0106 76.9116 21.9306 77.4816 22.2106C78.0516 22.4906 78.3916 23.0906 78.3516 23.7206C78.3316 24.1506 78.1316 24.5606 77.8116 24.8506V24.8406Z" fill="black"/>
<path d="M40.6744 0.274979C44.7553 -0.844763 48.9589 1.55679 50.0777 5.63338C50.2969 6.43215 49.8276 7.25776 49.0289 7.47713C48.23 7.69634 47.4044 7.22622 47.1852 6.42732C46.525 4.02173 44.1052 2.57915 41.7008 3.10994L41.4684 3.16756L6.42833 12.7672C4.02271 13.4274 2.58008 15.8471 3.11095 18.2515L3.16857 18.484L21.4283 85.1441L21.4977 85.3736C22.2695 87.7159 24.7436 89.0628 27.1451 88.4039L62.1852 78.8043L62.4147 78.7349C64.757 77.9632 66.1039 75.489 65.4449 73.0875L62.7848 63.3765C62.5662 62.5777 63.0367 61.7526 63.8356 61.5338C64.6345 61.3151 65.4595 61.7856 65.6783 62.5845L68.3385 72.2935L68.4332 72.6763C69.2784 76.5065 67.0782 80.3569 63.3561 81.5836L62.9781 81.6969L27.9381 91.2974C23.9849 92.3819 19.9165 90.161 18.649 86.315L18.5348 85.9371L0.275014 19.2779L0.180287 18.8951C-0.69321 14.9372 1.68494 10.9574 5.63439 9.87361L40.6744 0.274979Z" fill="black"/>
<path d="M38.0594 11.4587C38.5909 11.3085 39.1436 11.6176 39.2938 12.1491C39.4437 12.6805 39.1347 13.2324 38.6033 13.3825L15.2342 19.9929L15.2273 19.9948C14.6332 20.1589 14.2717 20.7435 14.3699 21.3278L14.3953 21.445L14.3963 21.446L20.8748 45.1042C21.0387 45.6984 21.6244 46.0608 22.2088 45.9626L22.326 45.9362L41.1795 40.6081C41.7109 40.4579 42.2636 40.7671 42.4139 41.2985C42.5641 41.83 42.2549 42.3827 41.7234 42.5329L22.8641 47.863L22.8572 47.8649C21.1587 48.3333 19.4131 47.3224 18.948 45.6364L18.9471 45.6345L12.4686 21.9753L12.4676 21.9763C11.9998 20.2799 13.0072 18.5369 14.6893 18.069L38.0594 11.4587Z" fill="black"/>
<path d="M45.1719 70.6503C45.1717 68.6401 43.5414 67.0106 41.5312 67.0106C39.5212 67.0108 37.8918 68.6402 37.8916 70.6503C37.8916 72.6605 39.5211 74.2907 41.5312 74.2909C43.5416 74.2909 45.1719 72.6606 45.1719 70.6503ZM47.1719 70.6503C47.1719 73.7652 44.6461 76.2909 41.5312 76.2909C38.4165 76.2907 35.8916 73.765 35.8916 70.6503C35.8918 67.5357 38.4166 65.0108 41.5312 65.0106C44.646 65.0106 47.1717 67.5355 47.1719 70.6503Z" fill="black"/>
</svg>
