<svg width="50" height="91" viewBox="0 0 50 91" fill="none" xmlns="http://www.w3.org/2000/svg">
<path fill-rule="evenodd" clip-rule="evenodd" d="M20.2241 3.51646C22.1241 2.76646 24.3141 2.73645 26.3341 3.60645C30.4141 5.36645 32.2541 10.0365 30.5041 14.0965C28.7441 18.1665 24.0741 20.0165 20.0041 18.2665C15.9441 16.5165 14.0941 11.8265 15.8441 7.77646C16.7241 5.74646 18.3341 4.26646 20.2241 3.51646ZM19.1341 0.776459C16.5241 1.81646 14.3141 3.84645 13.1241 6.61645C10.7341 12.1465 13.2841 18.6165 18.8241 21.0065C24.3641 23.3965 30.8341 20.8265 33.2341 15.2865C35.6141 9.75645 33.0541 3.27645 27.5141 0.896454C24.7441 -0.303546 21.7441 -0.253541 19.1341 0.776459Z" fill="black"/>
<path d="M18.0241 58.1465L23.1641 64.7165L22.4441 67.4165C22.1041 68.6965 22.0441 69.1765 21.6141 69.8265L10.8841 85.7065C10.1341 86.8165 9.31412 87.2565 8.50412 87.3865C7.68411 87.5265 6.82413 87.3065 6.11413 86.8265C5.40413 86.3465 4.88413 85.6265 4.70413 84.8265C4.52413 84.0165 4.62411 83.1065 5.37411 81.9865L15.6441 66.7765C15.7441 66.6365 15.8041 66.4865 15.8541 66.3265L18.0341 58.1465H18.0241ZM23.4441 26.4765C25.3441 26.5765 26.9941 27.2865 27.6941 28.2865L36.4341 40.8165C36.5541 40.9865 36.7041 41.1265 36.8741 41.2365L44.9741 46.1865C45.8241 46.7065 46.1441 47.2765 46.2441 47.8865C46.3541 48.4965 46.2041 49.1965 45.8441 49.7965C45.4741 50.3865 44.9141 50.8465 44.3241 51.0365C43.7341 51.2165 43.0841 51.1965 42.2341 50.6765L33.3941 45.2665C33.0741 45.0665 32.7941 44.7965 32.6141 44.5465L29.3841 39.9365C28.5641 38.7565 26.7041 39.3365 26.6941 40.7765L26.6441 53.0365C26.6441 53.3765 26.7541 53.6965 26.9541 53.9665L36.3441 65.9165C36.6941 66.3565 36.9141 66.8765 37.0041 67.4265L39.6041 83.3265C39.8141 84.6465 39.5141 85.5065 39.0141 86.1665C38.5141 86.8165 37.7441 87.2565 36.8941 87.3965C36.0441 87.5365 35.1741 87.3665 34.4841 86.9165C33.8041 86.4565 33.2441 85.7265 33.0341 84.4165L30.6141 69.7565C30.5741 69.5065 30.4741 69.2765 30.3241 69.0765L17.9741 53.3065C17.5141 52.7165 17.2541 51.9865 17.2541 51.2565V38.1065C17.2541 36.8865 15.8741 36.1965 14.8841 36.9165L12.0341 39.0365C11.7641 39.2365 11.5741 39.5165 11.4841 39.8265L8.2741 51.4465C7.7441 53.3765 6.23411 53.8465 4.87411 53.5865C4.19411 53.4565 3.61412 53.1065 3.29412 52.6565C2.97412 52.2165 2.80411 51.6565 3.06411 50.6865L6.57412 37.4965C6.77412 36.7565 7.14413 36.1165 7.61413 35.7765L18.4541 27.7265C19.5141 26.9365 21.5441 26.4065 23.4341 26.5065L23.4441 26.4765ZM16.6941 25.3165L5.85412 33.3565C4.72412 34.1965 4.03412 35.4465 3.69412 36.8065C2.73412 40.6565 1.32413 45.6665 0.204127 49.8965C-0.235873 51.5765 0.0541298 53.1965 0.89413 54.3665C1.72413 55.5365 2.99412 56.2265 4.32412 56.4865C6.98412 56.9965 10.2241 55.5765 11.1441 52.2265L14.2841 41.0565V51.2465C14.2841 52.6665 14.7741 54.0265 15.6341 55.1265L15.7141 55.2265L13.0141 65.3365L2.89413 80.3365C1.75413 82.0365 1.42412 83.8965 1.79412 85.4965C2.16412 87.1065 3.16413 88.4265 4.45413 89.2965C5.73413 90.1665 7.34412 90.5865 8.97412 90.3265C10.5941 90.0565 12.2041 89.0665 13.3441 87.3765L24.0641 71.5065C24.8441 70.3565 25.0041 69.3365 25.3141 68.1965L25.4541 67.6565L27.7541 70.5965L30.1041 84.8865C30.4341 86.8965 31.4841 88.4665 32.8441 89.3865C34.2141 90.2965 35.8441 90.5765 37.3741 90.3165C38.9041 90.0665 40.3641 89.2765 41.3741 87.9765C42.3741 86.6765 42.8641 84.8665 42.5241 82.8565L39.9341 66.9665C39.7541 65.9065 39.3241 64.9265 38.6641 64.0965L29.5941 52.5365L29.6341 45.4665L30.1741 46.2565C30.6341 46.9265 31.2641 47.4665 31.8441 47.8265L40.6741 53.2265C42.1641 54.1365 43.8041 54.3065 45.1941 53.8765C46.5741 53.4565 47.6641 52.5265 48.3741 51.3665C49.0841 50.2065 49.4241 48.7865 49.1641 47.3665C48.9141 45.9465 48.0041 44.5765 46.5141 43.6665L38.6741 38.8765L30.0941 26.5965C28.6241 24.4965 26.0741 23.6565 23.2641 23.5965C20.4541 23.5465 18.2941 24.1065 16.6641 25.3265L16.6941 25.3165Z" fill="black"/>
</svg>
