<svg width="100" height="93" viewBox="0 0 100 93" fill="none" xmlns="http://www.w3.org/2000/svg">
<path d="M42.71 23.9613C43.44 19.5413 48.42 16.9814 52.52 18.5514C56.64 20.1314 58.68 27.9413 60.82 31.5813C64.83 32.3813 72.99 29.7913 75.21 34.1313C76.81 37.2513 75.13 40.4313 71.77 41.1413C68.41 41.8513 62.87 41.3613 59.43 40.8913L58.98 43.0914C55.76 43.1114 56.89 42.2014 56.12 40.9114C55.85 40.4514 54.88 40.2214 54.39 39.5514C53.31 38.0914 48.39 30.1614 48.65 28.9714C48.93 27.7014 49.8 27.3814 50.88 28.1114C52.86 29.4514 54.65 36.4014 57.09 38.1814C57.86 38.4414 70.34 38.4614 71.52 38.2414C73.99 37.7714 73.26 34.7114 71.08 34.3014C68.66 33.8514 60.88 34.9313 59.43 34.0713C56.36 31.1313 53.32 16.3914 47.08 21.7314C43.69 24.6314 46.11 35.8114 45.29 40.1814C44.95 41.2014 43.57 40.8913 42.71 40.9013C43.31 35.7913 41.9 28.8413 42.71 23.9613Z" fill="black"/>
<path d="M77.18 88.7014C68.89 80.4114 81.15 67.2114 89.74 75.4814C98.51 83.9214 85.46 96.9814 77.18 88.7014ZM87.87 77.5714C81.48 71.1914 72.55 82.5214 80.32 87.5414C86.53 91.5514 92.94 82.6313 87.87 77.5714Z" fill="black"/>
<path d="M54.92 0.101367C66.51 -1.46863 68.58 15.6914 58.22 17.4814C45.55 19.6714 43.67 1.62137 54.92 0.101367ZM54.47 3.17137C47.45 4.47137 49.7 16.6213 57.7 14.7513C64.59 13.1413 63.55 1.49137 54.47 3.17137Z" fill="black"/>
<path d="M75.04 44.8614C77.36 45.1514 80.57 46.6514 81.49 48.9614C83.33 56.0614 87.25 63.4114 89.15 70.3514C89.26 70.7414 89.61 71.7114 89.11 71.7114L86.23 70.5214C83.43 64.6814 82.1 57.6214 79.55 51.7914C76.46 44.7214 70.77 49.4514 65.45 47.8614C65.04 47.7414 62.37 45.6313 62.5 44.8713C66.46 45.2213 71.18 44.3913 75.04 44.8713V44.8614Z" fill="black"/>
<path d="M36.55 42.6614V27.0414C36.55 23.5414 26.62 27.8314 27.28 23.1514C27.33 22.9014 28.32 22.4214 28.41 22.4214H35.01C37.62 22.4214 39.37 26.0814 39.63 28.3614C39.81 29.9914 39.9 40.4614 39.56 41.4914C39.22 42.5214 37.49 42.7514 36.55 42.6614Z" fill="black"/>
<path d="M97.15 71.7614C98.17 71.6114 98.86 72.2914 99.04 73.2414C97.34 75.2914 93.22 77.5014 91.99 74.1114C91.99 73.8314 96.69 71.8214 97.15 71.7614Z" fill="black"/>
<path d="M18.8696 50.0914C19.698 50.0914 20.3696 50.7629 20.3696 51.5914C20.3696 52.4198 19.698 53.0914 18.8696 53.0914H5.56C4.73157 53.0914 4.06 52.4198 4.06 51.5914C4.06 50.7629 4.73157 50.0914 5.56 50.0914H18.8696Z" fill="black"/>
<path d="M14.8096 61.2014C15.638 61.2014 16.3096 61.8729 16.3096 62.7014C16.3096 63.5298 15.638 64.2014 14.8096 64.2014H1.5C0.671573 64.2014 0 63.5298 0 62.7014C0 61.8729 0.671573 61.2014 1.5 61.2014H14.8096Z" fill="black"/>
<path d="M14.8096 72.3014C15.638 72.3014 16.3096 72.973 16.3096 73.8014C16.3096 74.6298 15.638 75.3014 14.8096 75.3014H1.5C0.671573 75.3014 0 74.6298 0 73.8014C0 72.973 0.671573 72.3014 1.5 72.3014H14.8096Z" fill="black"/>
<path d="M68.9304 67.6616C68.9304 55.8151 59.3266 46.2115 47.4802 46.2114C35.6337 46.2114 26.03 55.8151 26.03 67.6616C26.0301 79.508 35.6337 89.1118 47.4802 89.1118C59.3266 89.1117 68.9303 79.5079 68.9304 67.6616ZM71.9304 67.6616C71.9303 81.1648 60.9834 92.1117 47.4802 92.1118C33.9769 92.1118 23.0301 81.1648 23.03 67.6616C23.03 54.1582 33.9768 43.2114 47.4802 43.2114C60.9835 43.2115 71.9304 54.1583 71.9304 67.6616Z" fill="black"/>
<path d="M52.4895 67.6611C52.4894 64.8943 50.2466 62.6514 47.4798 62.6514C44.713 62.6515 42.4701 64.8944 42.47 67.6611C42.47 70.428 44.7129 72.6717 47.4798 72.6719C50.2467 72.6719 52.4895 70.4281 52.4895 67.6611ZM55.4895 67.6611C55.4895 72.0849 51.9036 75.6719 47.4798 75.6719C43.0561 75.6717 39.47 72.0849 39.47 67.6611C39.4701 63.2375 43.0562 59.6515 47.4798 59.6514C51.9035 59.6514 55.4894 63.2375 55.4895 67.6611Z" fill="black"/>
<path d="M72.0683 52.9712C72.847 52.6888 73.7076 53.0911 73.9901 53.8696L79.6503 69.48C79.9327 70.2588 79.5297 71.1195 78.7509 71.4019C77.9722 71.6839 77.1123 71.2811 76.83 70.5024L71.1698 54.8931C70.8875 54.1144 71.2897 53.2537 72.0683 52.9712Z" fill="black"/>
</svg>
