<svg width="80" height="91" viewBox="0 0 80 91" fill="none" xmlns="http://www.w3.org/2000/svg">
<path d="M77.67 64.85H71.4C72.01 63.8 72.39 62.6099 72.41 61.3199L72.43 56.0099C73.04 55.1399 73.41 54.09 73.41 52.94C73.41 52.73 73.41 52.49 73.38 52.36L72.3 44.0699C71.92 39.5999 70.06 35.31 67.05 31.99L64.2 28.83C61.32 25.67 57.23 23.85 52.97 23.85H46.63C41.85 23.85 37.29 26.1499 34.44 30.0099L29.23 37.0699L26.96 36.62C26.6 32.64 24.15 29.26 20.72 27.58C18.7 24.25 15.13 22.2 11.2 22.2C5.03001 22.2 0 27.22 0 33.4C0 37.67 2.43003 41.51 6.22003 43.4C8.18003 46.65 11.74 48.84 15.8 48.84C18.21 48.84 20.44 48.07 22.26 46.77L32.98 48.5099C33.58 48.6099 34.18 48.4 34.59 47.96L40.41 41.75L45.54 51.21L45.11 55.48H42.84C37.63 55.48 33.39 59.67 33.26 64.85H21.47C20.47 64.85 19.66 65.66 19.66 66.66V88.37C19.66 89.37 20.47 90.18 21.47 90.18H26.91C27.91 90.18 28.72 89.37 28.72 88.37V75.34H33.23V83.97C33.23 87.4 36.02 90.19 39.46 90.19C42.9 90.19 45.68 87.4 45.68 83.97V75.34H49.1V83.97C49.1 87.4 51.89 90.19 55.32 90.19C58.75 90.19 61.54 87.4 61.54 83.97V75.34H70.4V88.37C70.4 89.37 71.21 90.18 72.21 90.18H77.65C78.65 90.18 79.46 89.37 79.46 88.37V66.67C79.46 65.67 78.65 64.86 77.65 64.86L77.67 64.85ZM11.21 25.83C12.33 25.83 13.41 26.09 14.39 26.54C9.05001 27.23 4.89002 31.68 4.65002 37.14C4.01002 36.02 3.64001 34.74 3.64001 33.4C3.64001 29.22 7.04002 25.83 11.21 25.83ZM8.25 37.64C8.25 33.46 11.65 30.0699 15.82 30.0699C16.85 30.0699 17.83 30.28 18.72 30.65C18.76 30.67 18.8 30.69 18.84 30.7C21.52 31.87 23.4 34.54 23.4 37.64C23.4 41.82 20 45.21 15.83 45.21C11.66 45.21 8.26001 41.81 8.26001 37.64H8.25ZM25.13 86.55H23.31V75.33H25.13V86.55ZM23.31 71.71V68.47H33.26V71.71H23.31ZM42.09 83.96C42.09 85.39 40.93 86.55 39.48 86.55C38.03 86.55 36.89 85.39 36.89 83.96V65.08C36.89 61.78 39.57 59.1 42.87 59.1H50.52C49.65 60.4 49.14 61.9499 49.14 63.6299V64.85H43.9C42.9 64.85 42.09 65.66 42.09 66.66V83.96ZM45.71 71.71V68.47H49.13V71.71H45.71ZM57.94 83.96C57.94 85.39 56.78 86.55 55.35 86.55C53.92 86.55 52.76 85.39 52.76 83.96V63.62C52.76 61.12 54.79 59.09 57.29 59.09H60.79C61.79 59.09 62.6 58.28 62.6 57.28C62.6 56.28 61.79 55.47 60.79 55.47H48.79L49.24 51.0099C49.28 50.6499 49.2 50.29 49.03 49.96L42.43 37.8C42.15 37.29 41.65 36.94 41.07 36.87C40.5 36.8 39.91 37 39.52 37.43L32.64 44.77L25.3 43.5699C25.94 42.5599 26.41 41.44 26.7 40.25L29.67 40.84C30.36 40.98 31.07 40.7 31.48 40.14L37.37 32.15C39.54 29.22 43.01 27.47 46.64 27.47H52.98C56.22 27.47 59.34 28.8499 61.53 31.2599L64.37 34.41C66.85 37.15 68.38 40.68 68.7 44.44L69.79 52.92C69.79 53.86 69.03 54.62 68.1 54.62C67.27 54.62 66.55 54.01 66.42 53.11L64.43 43C64.37 42.68 64.22 42.38 64 42.14L57.6 35C56.93 34.26 55.79 34.19 55.04 34.86C54.3 35.53 54.23 36.67 54.9 37.42L60.97 44.19L62.85 53.73C63.24 56.31 65.49 58.25 68.1 58.25C68.34 58.25 68.57 58.21 68.8 58.18V61.27C68.77 63.23 67.15 64.83 65.18 64.83H59.74C58.74 64.83 57.93 65.64 57.93 66.64V83.95L57.94 83.96ZM61.57 68.47H75.87V71.71H61.57V68.47ZM75.86 86.55H74.04V75.33H75.86V86.55Z" fill="black"/>
<path d="M43.35 21.92C49.39 21.92 54.31 17 54.31 10.96C54.31 4.91996 49.39 0 43.35 0C37.31 0 32.39 4.91996 32.39 10.96C32.39 17 37.31 21.92 43.35 21.92ZM43.35 3.62994C47.4 3.62994 50.68 6.91996 50.68 10.96C50.68 15 47.39 18.29 43.35 18.29C39.31 18.29 36.02 15 36.02 10.96C36.02 6.91996 39.31 3.62994 43.35 3.62994Z" fill="black"/>
<path d="M15.82 32.29C12.87 32.29 10.47 34.69 10.47 37.64C10.47 40.59 12.87 42.99 15.82 42.99C18.77 42.99 21.17 40.59 21.17 37.64C21.17 34.69 18.76 32.29 15.82 32.29ZM15.82 39.37C14.86 39.37 14.09 38.6 14.09 37.64C14.09 36.68 14.86 35.91 15.82 35.91C16.78 35.91 17.55 36.68 17.55 37.64C17.55 38.6 16.77 39.37 15.82 39.37Z" fill="black"/>
</svg>
