<svg width="107" height="28" viewBox="0 0 107 28" fill="none" xmlns="http://www.w3.org/2000/svg">
<path d="M13.7977 22.4419C12.7134 21.4507 12.3969 19.3683 12.8486 17.8596C13.6319 18.8107 14.7172 19.1122 15.8413 19.2821C17.5767 19.5447 19.281 19.4465 20.8931 18.6533C21.0775 18.5626 21.248 18.4416 21.4495 18.3195C21.6008 18.7582 21.6401 19.2012 21.5873 19.6522C21.4588 20.7504 20.9123 21.5988 20.043 22.2418C19.6954 22.4991 19.3276 22.729 18.9686 22.9716C17.8658 23.7168 17.5674 24.5909 17.9818 25.8624C17.9916 25.8934 18.0004 25.9243 18.0227 25.9999C17.4596 25.7479 17.0483 25.381 16.7349 24.8986C16.4039 24.3893 16.2464 23.826 16.2381 23.2167C16.234 22.92 16.234 22.6207 16.1941 22.3284C16.0967 21.6156 15.762 21.2964 15.1316 21.2779C14.4846 21.2592 13.9728 21.6591 13.837 22.2891C13.8267 22.3373 13.8116 22.3851 13.7966 22.4412L13.7977 22.4419Z" fill="#17191E"/>
<path d="M7.60938 17.6082C7.60938 17.6082 10.82 16.0442 14.0396 16.0442L16.467 8.53172C16.5579 8.16841 16.8232 7.9215 17.1228 7.9215C17.4224 7.9215 17.6877 8.16841 17.7786 8.53172L20.2061 16.0442C24.0191 16.0442 26.6363 17.6082 26.6363 17.6082C26.6363 17.6082 21.1828 2.75192 21.1721 2.72211C21.0156 2.28289 20.7514 2 20.3951 2H13.8511C13.4948 2 13.2413 2.28289 13.0741 2.72211C13.0623 2.75137 7.60938 17.6082 7.60938 17.6082Z" fill="#17191E"/>
<path d="M41.4593 12.8295C41.4593 14.146 39.8218 14.9322 37.5545 14.9322C36.0787 14.9322 35.557 14.5665 35.557 13.7986C35.557 12.9941 36.2047 12.6101 37.6803 12.6101C39.012 12.6101 40.1455 12.6284 41.4593 12.7929V12.8295ZM41.4773 11.2022C40.6675 11.0194 39.4438 10.9097 37.9863 10.9097C33.7395 10.9097 31.7422 11.9153 31.7422 14.2557C31.7422 16.6875 33.1097 17.62 36.2767 17.62C38.958 17.62 40.7753 16.9434 41.4413 15.2796H41.5491C41.5311 15.6818 41.5131 16.0841 41.5131 16.3949C41.5131 17.2543 41.6571 17.3274 42.3588 17.3274H45.6699C45.4899 16.8155 45.3819 15.371 45.3819 14.1277C45.3819 12.7929 45.4359 11.7873 45.4359 10.4343C45.4359 7.67338 43.7806 5.91809 38.598 5.91809C36.3667 5.91809 33.8835 6.30207 31.9942 6.86887C32.1739 7.61851 32.4259 9.13611 32.5519 10.1234C34.1895 9.35552 36.5107 9.0264 38.3103 9.0264C40.7933 9.0264 41.4773 9.59321 41.4773 10.7451V11.2022Z" fill="#17191E"/>
<path d="M50.5622 13.5975C50.1124 13.6523 49.5004 13.6523 48.8707 13.6523C48.2049 13.6523 47.5931 13.634 47.1791 13.5792C47.1791 13.7255 47.1611 13.89 47.1611 14.0363C47.1611 16.3218 48.6547 17.6565 53.9092 17.6565C58.8575 17.6565 60.4591 16.3401 60.4591 14.018C60.4591 11.8239 59.3975 10.7451 54.701 10.5074C51.0479 10.3429 50.7242 9.94063 50.7242 9.48353C50.7242 8.9533 51.1919 8.67903 53.6392 8.67903C56.1765 8.67903 56.8603 9.02642 56.8603 9.7578V9.92234C57.22 9.90406 57.868 9.88579 58.5338 9.88579C59.1635 9.88579 59.8473 9.90406 60.2433 9.94063C60.2433 9.77607 60.2613 9.62981 60.2613 9.50182C60.2613 6.81403 58.0298 5.9364 53.7112 5.9364C48.8527 5.9364 47.2151 7.12488 47.2151 9.44695C47.2151 11.5314 48.5289 12.8295 53.1895 13.0307C56.6263 13.1404 57.0043 13.5243 57.0043 14.0546C57.0043 14.6214 56.4463 14.8774 54.0352 14.8774C51.2639 14.8774 50.5622 14.4934 50.5622 13.7072V13.5975Z" fill="#17191E"/>
<path d="M66.3984 3.96167C65.0849 5.18673 62.7276 6.41176 61.4141 6.74087C61.4321 7.41738 61.4321 8.6607 61.4321 9.33721L62.6376 9.3555C62.6196 10.6537 62.6016 12.2261 62.6016 13.2683C62.6016 15.7001 63.8791 17.5285 67.8559 17.5285C69.5294 17.5285 70.6452 17.3457 72.0307 17.0531C71.8867 16.1572 71.7247 14.7859 71.6707 13.7437C70.8429 14.018 69.7994 14.1642 68.6477 14.1642C67.0461 14.1642 66.3984 13.7254 66.3984 12.4638C66.3984 11.3668 66.3984 10.3428 66.4164 9.39208C68.4679 9.41037 70.5192 9.44692 71.7247 9.48349C71.7067 8.53271 71.7427 7.1614 71.7967 6.24719C70.0512 6.28377 68.0899 6.30205 66.4704 6.30205C66.4884 5.49755 66.5064 4.72962 66.5244 3.96167H66.3984Z" fill="#17191E"/>
<path d="M77.146 8.78853C77.164 7.83774 77.182 7.03326 77.2 6.24702H73.583C73.637 7.81948 73.637 9.42849 73.637 11.7871C73.637 14.1458 73.619 15.7731 73.583 17.3272H77.7218C77.6498 16.2302 77.6318 14.3835 77.6318 12.811C77.6318 10.3244 78.6396 9.61132 80.9248 9.61132C81.9866 9.61132 82.7424 9.73931 83.4081 9.97701C83.4261 9.04451 83.6061 7.23438 83.7139 6.42988C83.0301 6.22876 82.2744 6.10077 81.3566 6.10077C79.3953 6.08248 77.9558 6.88698 77.29 8.80682L77.146 8.78853Z" fill="#17191E"/>
<path d="M95.1637 11.7141C95.1637 13.7071 93.7242 14.6396 91.4569 14.6396C89.2077 14.6396 87.7681 13.7619 87.7681 11.7141C87.7681 9.66627 89.2257 8.89834 91.4569 8.89834C93.7062 8.89834 95.1637 9.72113 95.1637 11.7141ZM98.9245 11.6227C98.9245 7.65502 95.8295 5.88147 91.4569 5.88147C87.0664 5.88147 84.0791 7.65502 84.0791 11.6227C84.0791 15.5721 86.8684 17.6931 91.4389 17.6931C96.0455 17.6931 98.9245 15.5721 98.9245 11.6227Z" fill="#17191E"/>
</svg>
