<svg width="73" height="20" viewBox="0 0 73 20" fill="none" xmlns="http://www.w3.org/2000/svg">
<g clip-path="url(#clip0_1735_7636)">
<path d="M17.542 0.0166016V15.4279L19.5213 15.4354V8.09996H24.3033V6.15844H19.5213V1.95812H25.7462V0.0166016H17.542ZM29.3195 3.14418C30.0372 3.14418 30.6114 2.56248 30.6114 1.85236C30.6114 1.14223 30.0297 0.560529 29.3195 0.560529C28.6018 0.560529 28.0277 1.14223 28.0277 1.85236C28.0277 2.56248 28.6094 3.14418 29.3195 3.14418ZM28.3148 5.0857V15.4279H30.2941V5.0857H28.3148Z" fill="black"/>
<path fill-rule="evenodd" clip-rule="evenodd" d="M37.6442 4.78357C35.0076 4.78357 33.1719 7.01216 33.1719 9.65625C33.1719 12.3003 35.0076 14.5289 37.6442 14.5289C38.8529 14.5289 39.8425 14.0605 40.5678 13.3051V14.6725C40.5678 16.3873 39.2231 17.8152 37.4629 17.8152C36.8283 17.8152 36.2012 17.5734 35.7026 17.2259L34.7054 18.9483C35.4987 19.462 36.443 19.7567 37.4553 19.7567C40.2656 19.7567 42.5395 17.4828 42.5395 14.6725V5.08575H40.5678V6.00741C39.8425 5.25195 38.8529 4.78357 37.6442 4.78357ZM35.1587 9.65625C35.1587 8.01691 36.4128 6.72509 37.8632 6.72509C39.3137 6.72509 40.5678 8.01691 40.5678 9.65625C40.5678 11.2956 39.3137 12.5874 37.8632 12.5874C36.4128 12.5874 35.1587 11.2956 35.1587 9.65625Z" fill="black"/>
<path d="M49.6939 6.72509C48.523 6.72509 47.5711 7.72229 47.5711 8.89324V15.4279H45.5918V5.08575H47.5711V6.03007C48.1528 5.28217 49.0065 4.78357 50.1245 4.78357C51.5146 4.78357 52.5798 5.47103 53.1992 6.52867C53.8867 5.50881 55.0048 4.78357 56.357 4.78357C58.6158 4.78357 60.021 6.60421 60.0285 8.85547V15.4279H58.0492V8.88569C58.0492 7.71473 57.0974 6.71753 55.9264 6.71753C54.7555 6.71753 53.8036 7.71473 53.8036 8.88569V15.4279H51.8243V8.88569C51.8167 7.71473 50.8649 6.72509 49.6939 6.72509Z" fill="black"/>
<path fill-rule="evenodd" clip-rule="evenodd" d="M70.5894 6.25671C69.7055 5.34261 68.4968 4.78357 67.0992 4.78357C64.1529 4.78357 62.0527 7.28412 62.0527 10.2606C62.0527 13.2371 64.1453 15.7377 67.0992 15.7377C68.4968 15.7377 69.7055 15.1711 70.5894 14.2645V15.4279H72.5687V5.08575H70.5894V6.25671ZM64.0396 10.2606C64.0396 8.28888 65.5505 6.72509 67.3182 6.72509C69.0785 6.72509 70.5969 8.28132 70.5969 10.2606C70.5969 12.2323 69.086 13.7961 67.3182 13.7961C65.5505 13.7886 64.0396 12.2323 64.0396 10.2606Z" fill="black"/>
<path d="M6.65527 10.0038C6.65527 8.16804 8.14352 6.67224 9.98683 6.67224C11.8226 6.67224 13.3184 8.16049 13.3184 10.0038C13.3184 11.8395 11.8301 13.3353 9.98683 13.3353C8.15107 13.3353 6.65527 11.8395 6.65527 10.0038Z" fill="#1ABCFE"/>
<path d="M0 16.6593C0 14.8236 1.48824 13.3278 3.33155 13.3278H6.66311V16.6593C6.66311 18.4951 5.17486 19.9909 3.33155 19.9909C1.48824 19.9909 0 18.5026 0 16.6593Z" fill="#0ACF83"/>
<path d="M6.65527 0.0167098V6.67226H9.98683C11.8226 6.67226 13.3184 5.18402 13.3184 3.34071C13.3184 1.50495 11.8301 0.00915527 9.98683 0.00915527H6.65527V0.0167098Z" fill="#FF7262"/>
<path d="M0 3.34816C0 5.18391 1.48824 6.67971 3.33155 6.67971H6.66311V0.0166016H3.33155C1.48824 0.0166016 0 1.50485 0 3.34816Z" fill="#F24E1E"/>
<path d="M0 10.0038C0 11.8395 1.48824 13.3353 3.33155 13.3353H6.66311V6.67224H3.33155C1.48824 6.67224 0 8.16804 0 10.0038Z" fill="#A259FF"/>
</g>
<defs>
<clipPath id="clip0_1735_7636">
<rect width="72.5689" height="20" fill="white"/>
</clipPath>
</defs>
</svg>
