<svg width="124" height="24" viewBox="0 0 124 24" fill="none" xmlns="http://www.w3.org/2000/svg">
<g clip-path="url(#clip0_1735_7624)">
<path d="M32.1562 14.1791C32.2837 15.3685 33.3669 17.4074 36.506 17.4074C39.2416 17.4074 40.5584 15.6658 40.5584 13.9667C40.5584 12.4375 39.5177 11.1844 37.4596 10.7596L35.9729 10.441C35.4016 10.3348 35.0193 10.0163 35.0193 9.50652C35.0193 8.91183 35.6139 8.46581 36.3573 8.46581C37.5467 8.46581 37.9906 9.25165 38.0755 9.86758L40.4309 9.33661C40.3035 8.21094 39.3053 6.32068 36.3361 6.32068C34.0847 6.32068 32.4324 7.87112 32.4324 9.74015C32.4324 11.2056 33.3456 12.4163 35.3591 12.8623L36.7396 13.1809C37.5467 13.3508 37.8653 13.7331 37.8653 14.2003C37.8653 14.7525 37.4193 15.241 36.4847 15.241C35.2529 15.241 34.637 14.4764 34.5732 13.6481L32.1562 14.1791Z" fill="#1F1F1F"/>
<path d="M49.5755 17.0888H52.2707C52.2282 16.7278 52.1645 16.0057 52.1645 15.1986V6.63928H49.3419V12.7136C49.3419 13.9242 48.6197 14.7738 47.3688 14.7738C46.0519 14.7738 45.4572 13.8393 45.4572 12.6711V6.63928H42.6367V13.2446C42.6367 15.5172 44.081 17.3649 46.6042 17.3649C47.7086 17.3649 48.9192 16.9402 49.4926 15.9632C49.4926 16.388 49.5351 16.8764 49.5776 17.0888H49.5755Z" fill="#1F1F1F"/>
<path d="M57.9994 21.1263V16.0715C58.5091 16.7724 59.569 17.3458 61.0111 17.3458C63.9612 17.3458 65.9343 15.0095 65.9343 11.8428C65.9343 8.74192 64.1714 6.40564 61.1173 6.40564C59.5477 6.40564 58.3817 7.10652 57.9145 7.9136V6.63927H55.1768V21.1242H57.9994V21.1263ZM63.1541 11.864C63.1541 13.7331 62.0072 14.8163 60.5651 14.8163C59.123 14.8163 57.9569 13.7118 57.9569 11.864C57.9569 10.0163 59.1251 8.93307 60.5651 8.93307C62.0093 8.93307 63.1562 10.0163 63.1562 11.864H63.1541Z" fill="#1F1F1F"/>
<path d="M67.5312 14.2428C67.5312 15.8782 68.8905 17.3862 71.1185 17.3862C72.6668 17.3862 73.6629 16.664 74.1939 15.8357C74.1939 16.2393 74.2364 16.8127 74.3001 17.0888H76.8891C76.8254 16.7278 76.7617 15.9844 76.7617 15.4322V10.2924C76.7617 8.18971 75.5298 6.32068 72.2208 6.32068C69.4194 6.32068 67.9136 8.12599 67.7436 9.76139L70.2498 10.2924C70.3348 9.37909 71.0123 8.59324 72.2421 8.59324C73.4314 8.59324 74.0049 9.20917 74.0049 9.95254C74.0049 10.3136 73.8137 10.6109 73.219 10.6959L70.6513 11.0782C68.9097 11.3331 67.5312 12.3738 67.5312 14.2428ZM71.7111 15.2835C70.7978 15.2835 70.3539 14.6888 70.3539 14.0729C70.3539 13.2658 70.9274 12.8623 71.6495 12.7561L74.0028 12.395V12.8623C74.0028 14.7101 72.8983 15.2835 71.7111 15.2835Z" fill="#1F1F1F"/>
<path d="M82.343 17.0889V15.8145C82.8952 16.7066 83.9996 17.3437 85.4418 17.3437C88.4131 17.3437 90.3649 14.9862 90.3649 11.8216C90.3649 8.72074 88.6021 6.36322 85.548 6.36322C83.9975 6.36322 82.8527 7.04286 82.3855 7.78623V1.70764H79.6074V17.0868H82.343V17.0889ZM87.5423 11.8429C87.5423 13.7544 86.3954 14.8163 84.9533 14.8163C83.5303 14.8163 82.343 13.7331 82.343 11.8429C82.343 9.93136 83.5324 8.89065 84.9533 8.89065C86.3975 8.89065 87.5423 9.93136 87.5423 11.8429Z" fill="#1F1F1F"/>
<path d="M91.9629 14.2428C91.9629 15.8782 93.3222 17.3862 95.548 17.3862C97.0985 17.3862 98.0967 16.664 98.6255 15.8357C98.6255 16.2393 98.668 16.8127 98.7317 17.0888H101.321C101.257 16.7278 101.193 15.9844 101.193 15.4322V10.2924C101.193 8.18971 99.9615 6.32068 96.6525 6.32068C93.851 6.32068 92.3452 8.12599 92.1753 9.76139L94.6794 10.2924C94.7643 9.37909 95.444 8.59324 96.6737 8.59324C97.8631 8.59324 98.4344 9.20917 98.4344 9.95254C98.4344 10.3136 98.2432 10.6109 97.6486 10.6959L95.0829 11.0782C93.3413 11.3331 91.9629 12.3738 91.9629 14.2428ZM96.1427 15.2835C95.2294 15.2835 94.7834 14.6888 94.7834 14.0729C94.7834 13.2658 95.3569 12.8623 96.079 12.7561L98.4344 12.395V12.8623C98.4344 14.7101 97.33 15.2835 96.1427 15.2835Z" fill="#1F1F1F"/>
<path d="M103.145 14.1791C103.272 15.3685 104.355 17.4074 107.494 17.4074C110.234 17.4074 111.549 15.6658 111.549 13.9667C111.549 12.4375 110.508 11.1844 108.45 10.7596L106.963 10.441C106.39 10.3348 106.01 10.0163 106.01 9.50652C106.01 8.91183 106.604 8.46581 107.348 8.46581C108.537 8.46581 108.981 9.25165 109.066 9.86758L111.421 9.33661C111.294 8.21094 110.296 6.32068 107.326 6.32068C105.075 6.32068 103.421 7.87112 103.421 9.74015C103.421 11.2056 104.334 12.4163 106.349 12.8623L107.73 13.1809C108.537 13.3508 108.854 13.7331 108.854 14.2003C108.854 14.7525 108.408 15.241 107.473 15.241C106.243 15.241 105.627 14.4764 105.564 13.6481L103.147 14.1791H103.145Z" fill="#1F1F1F"/>
<path d="M115.833 10.6747C115.897 9.71891 116.704 8.61448 118.169 8.61448C119.781 8.61448 120.459 9.63395 120.503 10.6747H115.833ZM120.777 13.3932C120.438 14.3278 119.715 14.9862 118.401 14.9862C117.001 14.9862 115.833 13.9879 115.771 12.6074H123.239C123.239 12.5649 123.281 12.1401 123.281 11.7366C123.281 8.38086 121.351 6.32068 118.125 6.32068C115.453 6.32068 112.991 8.48705 112.991 11.8216C112.991 15.3472 115.517 17.4074 118.38 17.4074C120.949 17.4074 122.602 15.8994 123.133 14.0941L120.777 13.3932Z" fill="#1F1F1F"/>
<path d="M13.5293 23.4223C13.3955 23.5889 13.2136 23.7104 13.0084 23.7701C12.8031 23.8297 12.5845 23.8248 12.3822 23.7559C12.1799 23.687 12.0037 23.5575 11.8776 23.3849C11.7514 23.2124 11.6815 23.0052 11.6772 22.7915L11.4648 8.5083H21.067C21.4581 8.50811 21.8414 8.61826 22.1728 8.8261C22.5042 9.03394 22.7702 9.33103 22.9403 9.68326C23.1104 10.0355 23.1778 10.4286 23.1345 10.8173C23.0913 11.2061 22.9393 11.5748 22.696 11.881L13.5293 23.4223Z" fill="url(#paint0_linear_1735_7624)"/>
<path d="M13.5293 23.4223C13.3955 23.5889 13.2136 23.7104 13.0084 23.7701C12.8031 23.8297 12.5845 23.8248 12.3822 23.7559C12.1799 23.687 12.0037 23.5575 11.8776 23.3849C11.7514 23.2124 11.6815 23.0052 11.6772 22.7915L11.4648 8.5083H21.067C21.4581 8.50811 21.8414 8.61826 22.1728 8.8261C22.5042 9.03394 22.7702 9.33103 22.9403 9.68326C23.1104 10.0355 23.1778 10.4286 23.1345 10.8173C23.0913 11.2061 22.9393 11.5748 22.696 11.881L13.5293 23.4223Z" fill="url(#paint1_linear_1735_7624)" fill-opacity="0.2"/>
<path d="M9.62591 0.439597C9.75972 0.272934 9.94159 0.151508 10.1468 0.0918207C10.352 0.0321337 10.5707 0.0370803 10.773 0.105988C10.9753 0.174896 11.1515 0.304424 11.2776 0.476969C11.4037 0.649513 11.4737 0.856707 11.4779 1.07039L11.5714 15.3536H2.08821C1.69761 15.3531 1.31505 15.2425 0.984361 15.0346C0.653673 14.8267 0.388229 14.5299 0.218438 14.1781C0.0486475 13.8264 -0.0186238 13.4339 0.0243307 13.0456C0.0672852 12.6574 0.218728 12.2891 0.461311 11.983L9.62591 0.439597Z" fill="#3ECF8E"/>
</g>
<defs>
<linearGradient id="paint0_linear_1735_7624" x1="11.4627" y1="11.675" x2="19.9986" y2="15.2559" gradientUnits="userSpaceOnUse">
<stop stop-color="#249361"/>
<stop offset="1" stop-color="#3ECF8E"/>
</linearGradient>
<linearGradient id="paint1_linear_1735_7624" x1="7.68006" y1="6.49485" x2="11.571" y2="13.8223" gradientUnits="userSpaceOnUse">
<stop/>
<stop offset="1" stop-opacity="0"/>
</linearGradient>
<clipPath id="clip0_1735_7624">
<rect width="123.398" height="24" fill="white"/>
</clipPath>
</defs>
</svg>
