<svg width="140" height="43" viewBox="0 0 140 43" fill="none" xmlns="http://www.w3.org/2000/svg">
<path d="M65.9921 14.7959C61.486 14.7959 58.237 17.7346 58.237 22.1428C58.237 26.551 61.8942 29.4897 66.4003 29.4897C69.1228 29.4897 71.5228 28.4122 73.0085 26.5959L69.886 24.7918C69.0615 25.6938 67.8085 26.2204 66.4003 26.2204C64.4452 26.2204 62.784 25.2 62.1677 23.5673H73.6044C73.6942 23.1102 73.7472 22.6367 73.7472 22.1387C73.7472 17.7346 70.4983 14.7959 65.9921 14.7959ZM62.1309 20.7142C62.6411 19.0857 64.037 18.0612 65.9881 18.0612C67.9432 18.0612 69.3391 19.0857 69.8452 20.7142H62.1309ZM109.943 14.7959C105.437 14.7959 102.188 17.7346 102.188 22.1428C102.188 26.551 105.845 29.4897 110.351 29.4897C113.074 29.4897 115.474 28.4122 116.959 26.5959L113.837 24.7918C113.013 25.6938 111.759 26.2204 110.351 26.2204C108.396 26.2204 106.735 25.2 106.119 23.5673H117.555C117.645 23.1102 117.698 22.6367 117.698 22.1387C117.698 17.7346 114.449 14.7959 109.943 14.7959ZM106.086 20.7142C106.596 19.0857 107.992 18.0612 109.943 18.0612C111.898 18.0612 113.294 19.0857 113.8 20.7142H106.086ZM90.1554 22.1428C90.1554 24.5918 91.7554 26.2244 94.237 26.2244C95.9187 26.2244 97.1799 25.4612 97.8289 24.2163L100.964 26.0244C99.6656 28.1877 97.233 29.4897 94.237 29.4897C89.7268 29.4897 86.4819 26.551 86.4819 22.1428C86.4819 17.7346 89.7309 14.7959 94.237 14.7959C97.233 14.7959 99.6615 16.0979 100.964 18.2612L97.8289 20.0693C97.1799 18.8244 95.9187 18.0612 94.237 18.0612C91.7595 18.0612 90.1554 19.6938 90.1554 22.1428ZM123.821 10.3061V29.0816H120.147V10.3061H123.821ZM23.5064 8.26526L38.5881 34.3877H8.4248L23.5064 8.26526ZM61.2126 10.3061L49.9024 29.8979L38.5922 10.3061H42.833L49.9024 22.551L56.9717 10.3061H61.2126ZM85.2575 15.204V19.1591C84.8493 19.0408 84.4166 18.9591 83.9513 18.9591C81.5799 18.9591 79.8697 20.5918 79.8697 23.0408V29.0816H76.1962V15.204H79.8697V18.9591C79.8697 16.8857 82.2819 15.204 85.2575 15.204Z" fill="black"/>
</svg>
