<svg width="24" height="24" viewBox="0 0 30 30" fill="none" xmlns="http://www.w3.org/2000/svg">
<g clip-path="url(#clip0_430_1499)">
<path fill-rule="evenodd" clip-rule="evenodd" d="M13.3954 1.13439L14.7695 15.0646L10.7089 1.66896C9.81616 1.93144 8.97664 2.28953 8.1713 2.71889L14.7695 15.0646L5.8883 4.24056C5.18017 4.81761 4.53206 5.47369 3.9454 6.18347L14.7694 15.0647L2.42372 8.45839C1.99434 9.26373 1.63622 10.1126 1.37379 10.996L14.7695 15.0647L0.839224 13.6905C0.795431 14.1458 0.769531 14.6011 0.769531 15.0647C0.769531 15.5283 0.795433 15.9835 0.839224 16.4389L14.7695 15.0647L1.37379 19.1334C1.63628 20.0165 1.99436 20.8657 2.42372 21.671L14.7694 15.0647L3.9454 23.9459C4.53206 24.6541 5.17853 25.3104 5.8883 25.8888L14.7695 15.0648L8.1713 27.4105C8.97664 27.8399 9.81595 28.198 10.7089 28.4604L14.7695 15.0648L13.3954 28.995C13.8507 29.0388 14.3059 29.0647 14.7695 29.0647C15.2331 29.0647 15.6883 29.0388 16.1437 28.995L14.7695 15.0648L18.8302 28.4604C19.7229 28.1979 20.5624 27.8399 21.3678 27.4105L14.7695 15.0648L23.6508 25.8888C24.3589 25.3118 25.007 24.6557 25.5937 23.9459L14.7697 15.0647L27.1153 21.671C27.5447 20.8657 27.9028 20.0168 28.1653 19.1334L14.7696 15.0647L28.6998 16.4389C28.7436 15.9836 28.7695 15.5283 28.7695 15.0647C28.7695 14.6011 28.7436 14.1459 28.6998 13.6905L14.7696 15.0647L28.1653 10.996C27.9028 10.1129 27.5447 9.26373 27.1153 8.45839L14.7697 15.0647L25.5937 6.18347C25.007 5.47534 24.3605 4.81895 23.6508 4.24056L14.7695 15.0646L21.3678 2.71889C20.5624 2.28951 19.7135 1.93139 18.8302 1.66896L14.7695 15.0646L16.1437 1.13439C15.6884 1.0906 15.2331 1.0647 14.7695 1.0647C14.3059 1.0647 13.8507 1.0906 13.3954 1.13439Z" fill="#1E2939"/>
</g><defs>
<clipPath id="clip0_430_1499">
<rect width="28" height="28" fill="white" transform="translate(0.692383 1)"/>
</clipPath>
</defs>
</svg>
